<svg width="62" height="62" viewBox="0 0 62 62" fill="none" xmlns="http://www.w3.org/2000/svg">
<path fill-rule="evenodd" clip-rule="evenodd" d="M45.2233 9.1024C44.3176 8.06087 42.8432 7.10472 40.7997 6.23442C40.3244 9.12456 40.2821 12.4889 42.571 13.857C42.6682 11.812 43.5977 10.2259 45.2233 9.1024ZM44.0292 17.6038C43.5451 18.576 43.4683 19.3635 43.3461 20.2199C43.292 20.6006 42.9393 20.8653 42.5586 20.8111C42.1779 20.7568 41.9132 20.4043 41.9674 20.0236L42.0504 19.4442C42.1276 18.9043 42.2709 17.904 42.9068 16.7414C42.7917 16.2938 42.7055 15.8591 42.6481 15.4372C38.7718 13.9284 38.768 9.26334 39.5831 5.13368L39.5846 5.13392C39.6667 4.71542 40.1163 4.46306 40.5177 4.61866C43.3193 5.7079 45.2973 6.96873 46.4519 8.40079C48.4238 7.47115 50.9355 7.08401 53.4172 6.96522C53.85 6.94451 54.207 7.31748 54.1342 7.78514C53.597 11.9479 52.4506 14.8409 50.695 16.4639C48.9825 18.047 46.7605 18.4269 44.0292 17.6038ZM47.4146 11.8813C46.1776 12.9927 44.9407 14.1041 44.0177 15.1762C43.8165 13.6288 44.0938 12.2056 45.0231 11.1266C46.702 9.17712 50.1254 8.59781 52.6429 8.40708C52.117 11.8038 51.1536 14.1498 49.7524 15.4452C48.5112 16.5925 46.8688 16.9051 44.8253 16.3832C45.6943 15.2997 47.0204 14.1082 48.3465 12.9167C48.6324 12.6594 48.6556 12.219 48.3984 11.9331C48.141 11.6472 47.7006 11.6241 47.4147 11.8813H47.4146ZM28.2002 22.6138C28.4614 22.3745 28.679 22.0982 28.6543 21.9167C28.6479 21.8692 28.6464 21.8221 28.6496 21.7761C28.7496 18.327 28.3722 15.9138 27.5174 14.537C26.7755 13.3419 25.5913 12.9953 23.9653 13.4971C23.8585 13.53 23.7497 13.5358 23.6466 13.5184V13.5189C16.0172 12.2343 12.5803 14.7115 13.9023 22.2492C14.8616 21.4354 15.686 20.4453 16.0286 19.3029C16.1443 18.9172 16.5549 18.7086 16.9439 18.8508C18.4531 19.38 19.9373 19.5269 21.3962 19.2914C22.8687 19.0536 24.3304 18.4234 25.7811 17.401C26.1378 17.1498 26.6452 17.2745 26.8321 17.722C27.2618 18.6692 27.5959 19.6193 27.8341 20.5722C28.0029 21.2473 28.1249 21.9278 28.2001 22.6138H28.2002ZM28.4403 24.1695C28.3842 24.2017 28.3289 24.2309 28.2749 24.2564V27.5343C28.685 26.9767 29.0016 26.4389 29.214 25.7362C29.3596 25.2542 29.4104 24.8061 29.2964 24.5086C29.1537 24.1355 28.6862 24.2115 28.4403 24.1695ZM13.4703 24.1787C13.058 24.1975 12.8029 24.243 12.7011 24.5086C12.4172 25.2501 13.1072 26.6697 13.5488 27.2931C13.6033 27.37 13.6563 27.4437 13.7072 27.513V24.126L13.4703 24.1787ZM26.88 23.537L26.8798 27.7045C26.8798 30.5471 24.5511 32.8759 21.7083 32.8759H20.2736C17.4308 32.8759 15.1022 30.5473 15.1022 27.7045V23.0495C15.9581 22.2735 16.6725 21.3864 17.1177 20.368C20.1945 21.2574 23.1305 20.7188 25.8706 19.0121C26.4481 20.4692 26.7979 21.9863 26.88 23.537ZM17.3625 41.5737L19.9679 39.1732L15.2645 34.9964L14.2676 35.9468L17.3625 41.5737ZM21.0045 38.2353L17.1326 34.7967L17.6771 33.7329C18.4744 34.0788 19.3526 34.2709 20.2736 34.2709C21.7954 34.2709 22.8504 34.3639 24.3048 33.7329L24.8579 34.8133L21.0045 38.2353ZM23.6162 40.6243C23.722 40.6815 23.807 40.7622 23.8683 40.8566L24.6466 41.5737L27.7413 35.9468L26.7446 34.9964L22.0412 39.1732L23.6162 40.6243ZM21.7613 43.7168H20.2815L17.8779 55.6307L21.0214 59.8322L24.165 55.6307L21.7613 43.7168ZM20.1278 42.3217L19.6243 41.3827L21.0045 40.111L22.4073 41.4034L21.9149 42.3216H20.1279L20.1278 42.3217ZM12.9603 36.4595L16.5702 43.0229C16.7552 43.3599 17.1786 43.4832 17.5157 43.2982C17.6626 43.2175 18.3965 42.514 18.569 42.3551L18.9831 43.1273L16.4543 55.662C16.414 55.8636 16.4655 56.0623 16.5797 56.215L18.4854 58.7622C15.1504 58.4508 12.0487 57.538 9.35968 56.1654C6.29867 54.6028 3.78004 52.4456 2.07129 49.9049V49.2611C2.07129 42.8857 6.75193 37.4696 12.9603 36.4595ZM23.5531 58.7678C26.6827 58.4824 29.6084 57.6678 32.182 56.4404C35.1026 55.0473 37.5618 53.1274 39.3425 50.852V49.2612C39.3425 43.0899 34.9468 37.7924 28.9943 36.5585L25.4387 43.0229C25.2209 43.4194 24.6863 43.5132 24.341 43.1852L23.4626 42.3758L23.0596 43.1272L25.5885 55.6619C25.6289 55.8635 25.5774 56.0622 25.4631 56.2149L23.5532 58.7677L23.5531 58.7678ZM58.867 2.16797C59.4497 2.16797 59.9289 2.64714 59.9289 3.22984V21.2219C59.9289 21.8047 59.4497 22.2838 58.867 22.2838H46.8639C46.7192 22.2838 46.5849 22.3279 46.4735 22.4032L43.0052 24.4056L38.9425 26.7528V22.9813C38.9425 22.5961 38.6302 22.2838 38.245 22.2838H34.0723C33.4895 22.2838 33.0104 21.8047 33.0104 21.2219V3.22984C33.0104 2.64714 33.4895 2.16797 34.0723 2.16797H58.867Z" fill="#6A0DAD"/>
</svg>
