<svg width="52" height="52" viewBox="0 0 52 52" fill="none" xmlns="http://www.w3.org/2000/svg">
<path d="M44.6875 10.5625H41.4375V8.9375C41.4375 8.07555 41.0951 7.2489 40.4856 6.6394C39.8761 6.02991 39.0495 5.6875 38.1875 5.6875C37.3255 5.6875 36.4989 6.02991 35.8894 6.6394C35.2799 7.2489 34.9375 8.07555 34.9375 8.9375V10.5625H29.25V8.9375C29.25 8.07555 28.9076 7.2489 28.2981 6.6394C27.6886 6.02991 26.862 5.6875 26 5.6875C25.138 5.6875 24.3114 6.02991 23.7019 6.6394C23.0924 7.2489 22.75 8.07555 22.75 8.9375V10.5625H17.0625V8.9375C17.0625 8.07555 16.7201 7.2489 16.1106 6.6394C15.5011 6.02991 14.6745 5.6875 13.8125 5.6875C12.9505 5.6875 12.1239 6.02991 11.5144 6.6394C10.9049 7.2489 10.5625 8.07555 10.5625 8.9375V10.5625H7.3125C6.23518 10.5629 5.20209 10.991 4.44031 11.7528C3.67852 12.5146 3.25039 13.5477 3.25 14.625V42.25C3.25039 43.3273 3.67852 44.3604 4.44031 45.1222C5.20209 45.884 6.23518 46.3121 7.3125 46.3125H40.625V39C40.6256 38.7847 40.7114 38.5784 40.8637 38.4262C41.0159 38.2739 41.2222 38.1881 41.4375 38.1875H48.75V14.625C48.7496 13.5477 48.3215 12.5146 47.5597 11.7528C46.7979 10.991 45.7648 10.5629 44.6875 10.5625ZM36.5625 8.9375C36.5625 8.50652 36.7337 8.0932 37.0385 7.78845C37.3432 7.48371 37.7565 7.3125 38.1875 7.3125C38.6185 7.3125 39.0318 7.48371 39.3365 7.78845C39.6413 8.0932 39.8125 8.50652 39.8125 8.9375V10.5625H36.5625V8.9375ZM24.375 8.9375C24.375 8.50652 24.5462 8.0932 24.851 7.78845C25.1557 7.48371 25.569 7.3125 26 7.3125C26.431 7.3125 26.8443 7.48371 27.149 7.78845C27.4538 8.0932 27.625 8.50652 27.625 8.9375V10.5625H24.375V8.9375ZM12.1875 8.9375C12.1875 8.50652 12.3587 8.0932 12.6635 7.78845C12.9682 7.48371 13.3815 7.3125 13.8125 7.3125C14.2435 7.3125 14.6568 7.48371 14.9615 7.78845C15.2663 8.0932 15.4375 8.50652 15.4375 8.9375V10.5625H12.1875V8.9375ZM26 40.625C24.393 40.625 22.8221 40.1485 21.486 39.2557C20.1498 38.3629 19.1084 37.094 18.4935 35.6093C17.8785 34.1247 17.7176 32.491 18.0311 30.9149C18.3446 29.3388 19.1185 27.8911 20.2548 26.7548C21.3911 25.6185 22.8388 24.8446 24.4149 24.5311C25.991 24.2176 27.6247 24.3785 29.1093 24.9935C30.594 25.6084 31.8629 26.6498 32.7557 27.986C33.6485 29.3221 34.125 30.893 34.125 32.5C34.1215 34.6538 33.2643 36.7184 31.7413 38.2413C30.2184 39.7643 28.1538 40.6215 26 40.625ZM47.125 18.6875H4.875V14.625C4.87689 13.9791 5.1343 13.3602 5.59101 12.9035C6.04772 12.4468 6.66662 12.1894 7.3125 12.1875H10.5625V13.8125C10.5625 14.6745 10.9049 15.5011 11.5144 16.1106C12.1239 16.7201 12.9505 17.0625 13.8125 17.0625C14.6745 17.0625 15.5011 16.7201 16.1106 16.1106C16.7201 15.5011 17.0625 14.6745 17.0625 13.8125H15.4375C15.4375 14.2435 15.2663 14.6568 14.9615 14.9615C14.6568 15.2663 14.2435 15.4375 13.8125 15.4375C13.3815 15.4375 12.9682 15.2663 12.6635 14.9615C12.3587 14.6568 12.1875 14.2435 12.1875 13.8125V12.1875H22.75V13.8125C22.75 14.6745 23.0924 15.5011 23.7019 16.1106C24.3114 16.7201 25.138 17.0625 26 17.0625C26.862 17.0625 27.6886 16.7201 28.2981 16.1106C28.9076 15.5011 29.25 14.6745 29.25 13.8125H27.625C27.625 14.2435 27.4538 14.6568 27.149 14.9615C26.8443 15.2663 26.431 15.4375 26 15.4375C25.569 15.4375 25.1557 15.2663 24.851 14.9615C24.5462 14.6568 24.375 14.2435 24.375 13.8125V12.1875H34.9375V13.8125C34.9375 14.6745 35.2799 15.5011 35.8894 16.1106C36.4989 16.7201 37.3255 17.0625 38.1875 17.0625C39.0495 17.0625 39.8761 16.7201 40.4856 16.1106C41.0951 15.5011 41.4375 14.6745 41.4375 13.8125H39.8125C39.8125 14.2435 39.6413 14.6568 39.3365 14.9615C39.0318 15.2663 38.6185 15.4375 38.1875 15.4375C37.7565 15.4375 37.3432 15.2663 37.0385 14.9615C36.7337 14.6568 36.5625 14.2435 36.5625 13.8125V12.1875H44.6875C45.3334 12.1894 45.9523 12.4468 46.409 12.9035C46.8657 13.3602 47.1231 13.9791 47.125 14.625V18.6875ZM30.0625 32.5C30.0611 33.1271 30.0258 33.7536 29.9569 34.3769C31.5656 33.865 32.5 33.1012 32.5 32.5C32.5 31.8988 31.5656 31.135 29.9569 30.6231C30.0258 31.2464 30.0611 31.8729 30.0625 32.5ZM28.8925 26.6906C29.2264 27.3777 29.4826 28.0999 29.6562 28.8438C30.4001 29.0174 31.1223 29.2736 31.8094 29.6075C31.1798 28.3441 30.1559 27.3202 28.8925 26.6906ZM28.8925 38.3094C30.1559 37.6798 31.1798 36.6559 31.8094 35.3925C31.1223 35.7264 30.4001 35.9826 29.6562 36.1562C29.4826 36.9001 29.2264 37.6223 28.8925 38.3094ZM26 30.0625C25.2411 30.0618 24.4833 30.1189 23.7331 30.2331C23.5056 31.7358 23.5056 33.2642 23.7331 34.7669C25.2358 34.9944 26.7642 34.9944 28.2669 34.7669C28.4944 33.2642 28.4944 31.7358 28.2669 30.2331C27.5167 30.1189 26.7589 30.0618 26 30.0625ZM27.8769 28.5431C27.365 26.9344 26.6012 26 26 26C25.3988 26 24.635 26.9344 24.1231 28.5431C25.3704 28.4023 26.6296 28.4023 27.8769 28.5431ZM24.1231 36.4569C24.635 38.0656 25.3988 39 26 39C26.6012 39 27.365 38.0656 27.8769 36.4569C26.6296 36.5977 25.3704 36.5977 24.1231 36.4569ZM20.1906 29.6075C20.8777 29.2736 21.5999 29.0174 22.3438 28.8438C22.5174 28.0999 22.7736 27.3777 23.1075 26.6906C21.8442 27.3202 20.8202 28.3441 20.1906 29.6075ZM20.1906 35.3925C20.8202 36.6559 21.8442 37.6798 23.1075 38.3094C22.7736 37.6223 22.5174 36.9001 22.3438 36.1562C21.5999 35.9826 20.8777 35.7264 20.1906 35.3925ZM21.9375 32.5C21.9389 31.8729 21.9742 31.2464 22.0431 30.6231C20.4344 31.135 19.5 31.8988 19.5 32.5C19.5 33.1012 20.4344 33.865 22.0431 34.3769C21.9742 33.7536 21.9389 33.1271 21.9375 32.5Z" fill="#6A0DAD"/>
<path d="M42.25 45.8412L48.2787 39.8125H42.25V45.8412Z" fill="#6A0DAD"/>
</svg>
