<svg width="56" height="56" viewBox="0 0 56 56" fill="none" xmlns="http://www.w3.org/2000/svg">
<path d="M55.8075 25.3944C55.7605 25.1494 55.5877 24.947 55.3525 24.8639L54.0827 24.4122C54.0739 24.3914 54.0652 24.3706 54.0564 24.3498L54.6361 23.1336C54.7444 22.9072 54.7236 22.6414 54.5825 22.4347C54.017 21.6078 53.3159 20.9067 52.4989 20.3511C52.2922 20.2111 52.0264 20.1914 51.8011 20.2986L50.5848 20.8783C50.5641 20.8695 50.5433 20.8608 50.5225 20.852L50.0708 19.5822C49.9866 19.347 49.7853 19.1731 49.5392 19.1272C48.5548 18.9402 47.5694 18.9413 46.5938 19.1272C46.3488 19.1742 46.1464 19.347 46.0633 19.5822L45.6116 20.852C45.5908 20.8608 45.57 20.8695 45.5492 20.8783L44.333 20.2986C44.1066 20.1914 43.8419 20.2111 43.6352 20.3511C42.8116 20.9111 42.1105 21.6122 41.5505 22.4358C41.4105 22.6425 41.3897 22.9083 41.498 23.1336L42.0777 24.3498L42.0514 24.4122L40.7805 24.8639C40.5453 24.947 40.3725 25.1494 40.3255 25.3944C40.2325 25.8833 40.1855 26.3787 40.1855 26.8666C40.1855 27.3533 40.2325 27.8487 40.3255 28.3398C40.3725 28.5859 40.5453 28.7883 40.7805 28.8714L42.0514 29.3242C42.0602 29.3439 42.0689 29.3647 42.0777 29.3855L41.498 30.6017C41.3897 30.827 41.4105 31.0928 41.5505 31.2995C42.1105 32.1231 42.8116 32.8242 43.6352 33.3842C43.8419 33.5242 44.1066 33.545 44.333 33.4367L45.5492 32.857L45.6116 32.8833L46.0633 34.1542C46.1464 34.3883 46.3488 34.5622 46.5938 34.6081C47.0717 34.7 47.5672 34.7459 48.0659 34.7459C48.5625 34.7459 49.058 34.7 49.5392 34.6092C49.7853 34.5622 49.9866 34.3894 50.0708 34.1542L50.5225 32.8833C50.5433 32.8745 50.5641 32.8658 50.5848 32.857L51.8011 33.4367C52.0264 33.545 52.2922 33.5242 52.4989 33.3842C53.3225 32.8242 54.0236 32.1231 54.5836 31.2995C54.7236 31.0928 54.7433 30.827 54.6361 30.6017L54.0564 29.3855C54.0652 29.3647 54.0739 29.3439 54.0827 29.3231L55.3525 28.8714C55.5877 28.7883 55.7616 28.5859 55.8075 28.3409C55.8994 27.8597 55.9453 27.3631 55.9453 26.8666C55.9453 26.3678 55.8994 25.8734 55.8075 25.3944ZM48.0659 31.1661C45.6958 31.1661 43.7686 29.2378 43.7686 26.8666C43.7686 24.4975 45.6958 22.5692 48.0659 22.5692C50.4361 22.5692 52.3655 24.4975 52.3655 26.8666C52.3655 29.2378 50.4361 31.1661 48.0659 31.1661ZM16.6622 19.5166C17.3994 20.3598 17.792 21.3092 17.8642 22.4216L17.9277 23.3327C18.0436 25.1067 19.4152 26.4783 21.1881 26.5942L22.1036 26.6577C23.2127 26.7298 24.162 27.1236 25.0053 27.8597L25.6944 28.4634C27.0309 29.6316 28.9712 29.6316 30.3056 28.4634L30.9947 27.8597C31.8413 27.1225 32.7917 26.7298 33.9019 26.6577L34.813 26.5953C36.5848 26.4783 37.9564 25.1067 38.0756 23.3337L38.1358 22.4205C38.2113 21.3027 38.6061 20.3533 39.3411 19.5155L39.9405 18.8286C41.1119 17.4909 41.1119 15.5517 39.9416 14.2162L39.34 13.5261C38.6061 12.6872 38.2113 11.7367 38.1358 10.6222L38.0756 9.70672C37.9564 7.93703 36.5848 6.56547 34.8141 6.44625L33.9019 6.38719C32.7873 6.31063 31.8369 5.91797 30.9958 5.18516L30.3056 4.58031C29.6384 3.99516 28.8192 3.70312 28.0011 3.70312C27.1819 3.70312 26.3628 3.99516 25.6944 4.58141L25.0053 5.18406C24.1664 5.91797 23.217 6.31063 22.1036 6.38719L21.187 6.44625C19.4163 6.56547 18.0436 7.93703 17.9277 9.70672L17.8642 10.6222C17.792 11.7302 17.3994 12.6806 16.6633 13.5261L16.0584 14.2162C14.8903 15.5506 14.8914 17.4909 16.0595 18.8286L16.6622 19.5166ZM28 8.87219C32.2175 8.87219 35.6497 12.3044 35.6497 16.5219C35.6497 20.7405 32.2175 24.1716 28 24.1716C23.7825 24.1716 20.3503 20.7405 20.3503 16.5219C20.3503 12.3044 23.7825 8.87219 28 8.87219ZM24.6619 33.6478H31.4694L30.4062 36.9181H25.725L24.6619 33.6478ZM31.9331 41.875L28.0656 51.1697L24.197 41.8728L25.6823 38.3236H30.4489L31.9331 41.875ZM46.8814 44.2506V52.2963H40.1909V47.8337C40.1909 47.4455 39.877 47.1305 39.4888 47.1305C39.1005 47.1305 38.7855 47.4455 38.7855 47.8337V52.2963H29.1189L33.3288 42.1791C33.331 42.1769 33.332 42.1736 33.3331 42.1714L33.3561 42.1134L36.8725 33.6653C42.443 33.9727 46.8814 38.6036 46.8814 44.2506ZM22.7981 42.1681L27.0113 52.2963H17.2178V47.8337C17.2178 47.4455 16.9028 47.1305 16.5145 47.1305C16.1263 47.1305 15.8112 47.4455 15.8112 47.8337V52.2963H9.11859V44.2506C9.11859 38.5598 13.6259 33.9016 19.2577 33.6588L22.7784 42.1211C22.7839 42.1375 22.7905 42.1528 22.7981 42.1681ZM22.4941 15.2181C22.5881 14.9283 22.8583 14.7325 23.1623 14.7325H23.1634L26.3528 14.7391L27.3306 11.705C27.4247 11.4141 27.6948 11.2172 28 11.2172C28.1531 11.2172 28.2964 11.2664 28.4134 11.3517C28.5316 11.437 28.6212 11.5584 28.6683 11.7039L29.6494 14.7391L32.8387 14.7325H32.8409C33.145 14.7325 33.4152 14.9283 33.5092 15.2181C33.6033 15.508 33.4994 15.8252 33.2533 16.0045L30.6687 17.8748L31.6586 20.9056C31.7538 21.1955 31.6509 21.5127 31.4037 21.692C31.2812 21.7817 31.1358 21.8266 30.9914 21.8266C30.8448 21.8266 30.7005 21.7817 30.5769 21.6909L28 19.8108L25.4231 21.6909C25.177 21.8714 24.8423 21.8714 24.5963 21.692C24.3491 21.5127 24.2463 21.1944 24.3414 20.9045L25.3345 17.8748L22.75 16.0045C22.5028 15.8252 22.3989 15.508 22.4941 15.2181ZM15.8145 26.8687C15.8145 22.5222 12.2795 18.9861 7.93406 18.9861C3.58969 18.9861 0.0546875 22.5222 0.0546875 26.8687C0.0546875 31.2142 3.58969 34.7492 7.93406 34.7492C12.2795 34.7492 15.8145 31.2142 15.8145 26.8687ZM11.0687 25.2544L7.38391 29.1963C7.25594 29.333 7.07875 29.4128 6.89062 29.4183C6.88406 29.4194 6.8775 29.4194 6.86984 29.4194C6.69047 29.4194 6.51766 29.3505 6.38641 29.2258L4.69875 27.6234C4.41766 27.3566 4.40563 26.9114 4.6725 26.6303C4.94047 26.3481 5.38573 26.3372 5.66672 26.6041L6.84031 27.7186L10.0417 24.2952C10.3075 24.0108 10.7516 23.9966 11.0359 24.2613C11.3192 24.527 11.3345 24.9711 11.0687 25.2544Z" fill="#E4E4E4"/>
</svg>
