<svg width="77" height="76" viewBox="0 0 77 76" fill="none" xmlns="http://www.w3.org/2000/svg">
<g clip-path="url(#clip0_2498_351)">
<path d="M44.1985 50.9606C44.1985 50.261 44.2214 49.5741 44.2624 48.8984C43.518 49.5741 42.8438 50.2654 42.249 50.9606C42.8438 51.6557 43.518 52.3465 44.2624 53.0227C44.2214 52.347 44.1985 51.6601 44.1985 50.9606Z" fill="#6A0DAD"/>
<path d="M55.6572 42.3924C56.2622 42.6927 56.8691 43.0135 57.4751 43.3601C58.0884 43.7106 58.6812 44.0782 59.2574 44.4555C59.0371 43.4752 58.768 42.5528 58.4599 41.6992C57.5619 41.8616 56.6225 42.0926 55.6572 42.3924Z" fill="#6A0DAD"/>
<path d="M47.6442 41.6992C47.3361 42.5528 47.067 43.4747 46.8467 44.4555C47.4234 44.0782 48.0157 43.7106 48.6295 43.3596C49.2354 43.013 49.8424 42.6923 50.4474 42.392C49.4816 42.0921 48.5427 41.8611 47.6442 41.6992Z" fill="#6A0DAD"/>
<path d="M39.8221 43.4099C39.3589 44.204 39.2848 45.2078 39.6027 46.3929C39.7782 47.0481 40.0663 47.7291 40.4505 48.4229C40.4519 48.4253 40.4539 48.4268 40.4548 48.4292C40.4568 48.4321 40.4573 48.4355 40.4592 48.4385C40.6323 48.7495 40.8297 49.0634 41.0413 49.3784C42.0417 48.2503 43.2214 47.1451 44.5523 46.0994C44.8024 44.4239 45.1773 42.8615 45.6604 41.4521C45.3489 41.4316 45.0422 41.418 44.7468 41.418C42.3995 41.418 40.6055 42.0668 39.8221 43.4099Z" fill="#6A0DAD"/>
<path d="M20.3757 24.6367V21.7117C20.3757 21.4689 20.4659 21.2354 20.6292 21.056L24.5813 16.7061L22.4281 15.7827C21.9332 15.5702 21.7041 14.9974 21.9162 14.5026C22.1282 14.0078 22.7015 13.7786 23.1964 13.9907L26.5864 15.4444L41.1758 20.7967C41.56 20.9376 41.815 21.3032 41.815 21.7117V24.6367C42.6656 24.6367 43.451 24.9141 44.0926 25.3787C44.5191 24.0434 44.7375 22.6521 44.7375 21.2242C44.7375 13.6977 38.6174 7.57422 31.0948 7.57422C23.5722 7.57422 17.4531 13.6977 17.4531 21.2242C17.4531 22.6521 17.671 24.0434 18.0981 25.3787C18.7396 24.9141 19.525 24.6367 20.3757 24.6367Z" fill="#6A0DAD"/>
<path d="M39.8221 58.5153C40.7044 60.028 42.8689 60.6594 45.6618 60.4756C45.1782 59.0657 44.8024 57.5023 44.5528 55.8258C43.2219 54.7801 42.0426 53.675 41.0418 52.5469C40.3559 53.5687 39.8586 54.5778 39.6027 55.5323C39.2848 56.7174 39.3589 57.7207 39.8221 58.5153Z" fill="#6A0DAD"/>
<path d="M48.6285 58.5647C48.0147 58.2141 47.4224 57.8461 46.8457 57.4688C47.0661 58.4496 47.3351 59.3719 47.6437 60.2256C48.5422 60.0632 49.4816 59.8336 50.4473 59.5333C49.8424 59.233 49.2354 58.9113 48.6285 58.5647Z" fill="#6A0DAD"/>
<path d="M25.3156 37.584C25.3346 37.5982 25.3546 37.6089 25.3727 37.6245C25.3829 37.6332 25.3897 37.644 25.3995 37.6532C25.6778 37.8906 25.9703 38.111 26.277 38.3123C26.3009 38.327 26.3238 38.3431 26.3462 38.3596C27.7175 39.2401 29.3472 39.7509 31.0959 39.7509C35.6238 39.7509 39.3746 36.3565 39.8212 31.8544C39.8709 31.3557 40.2902 30.9759 40.7913 30.9759H41.8151C42.8895 30.9759 43.7636 30.1014 43.7636 29.0259V28.5385C43.7636 27.463 42.8895 26.5884 41.8151 26.5884H40.8405C40.3023 26.5884 39.8655 26.1516 39.8655 25.6135V22.394L26.5032 17.4922L22.3258 22.0903V25.6135C22.3258 26.1516 21.889 26.5884 21.3508 26.5884H20.3763C19.3018 26.5884 18.4277 27.463 18.4277 28.5385V29.0259C18.4277 30.1014 19.3018 30.9759 20.3763 30.9759H21.4C21.9012 30.9759 22.3209 31.3557 22.3701 31.8544C22.5988 34.1574 23.6957 36.1668 25.3156 37.584Z" fill="#6A0DAD"/>
<path d="M61.3569 41.418C61.062 41.418 60.7554 41.4316 60.4434 41.4521C60.9265 42.8615 61.3018 44.4239 61.5514 46.0994C62.8823 47.1446 64.0621 48.2498 65.0624 49.3784C65.7483 48.3561 66.2456 47.3474 66.501 46.3929C66.8184 45.2078 66.7448 44.2045 66.2817 43.4099C65.4987 42.0668 63.7042 41.418 61.3569 41.418Z" fill="#6A0DAD"/>
<path d="M61.5524 55.8263C61.3023 57.5028 60.927 59.0662 60.4434 60.4761C63.2362 60.6599 65.4007 60.028 66.2831 58.5153C66.7462 57.7212 66.8199 56.7174 66.5025 55.5323C66.247 54.5778 65.7498 53.5692 65.0639 52.5469C64.063 53.6754 62.8833 54.7806 61.5524 55.8263Z" fill="#6A0DAD"/>
<path d="M48.4238 62.0632C49.6587 64.5402 51.2913 66.0739 53.0526 66.0739C54.814 66.0739 56.4461 64.5402 57.681 62.0632C56.2043 61.7732 54.6463 61.3125 53.0522 60.6875C51.4585 61.3125 49.9005 61.7732 48.4238 62.0632Z" fill="#6A0DAD"/>
<path d="M46.4121 62.3557C45.8719 62.4069 45.3454 62.4352 44.8384 62.4352C41.7223 62.4352 39.2858 61.4651 38.1368 59.4946C37.4124 58.2524 37.2676 56.7071 37.718 55.0252C38.0715 53.7055 38.7793 52.3293 39.7665 50.9599C39.6017 50.7313 39.4457 50.5027 39.297 50.274L34.8106 53.0113C34.6521 53.1079 34.4766 53.1542 34.3036 53.1542C33.975 53.1542 33.6542 52.9879 33.4704 52.6867C33.1901 52.2269 33.3354 51.6273 33.7951 51.3465L38.3435 48.5717C38.0793 48.0062 37.8657 47.4451 37.718 46.8947C37.2676 45.2128 37.4124 43.6669 38.1368 42.4253C38.3523 42.0553 38.6165 41.7228 38.9187 41.423L37.3841 39.668C35.6149 40.9472 33.4422 41.6974 31.0958 41.6974C29.5461 41.6974 28.0743 41.365 26.7415 40.7756V44.2188L31.1314 48.6112L34.0569 45.6837C34.4376 45.303 35.0548 45.303 35.436 45.6837C35.8168 46.0645 35.8173 46.6816 35.436 47.0629L32.1059 50.3944V62.6599C32.1059 63.1981 31.6696 63.6349 31.1309 63.6349C30.5927 63.6349 30.1559 63.1981 30.1559 62.6599V50.3939L25.0767 45.3118C24.8938 45.1289 24.7915 44.8808 24.7915 44.6224V39.7664L19.8472 45.4195C19.7171 45.5682 19.7195 45.731 19.7327 45.8149C19.7458 45.8987 19.7922 46.0547 19.9603 46.1571L28.4667 51.3465C28.9264 51.6268 29.0717 52.2269 28.7914 52.6867C28.6076 52.9879 28.2868 53.1542 27.9583 53.1542C27.7852 53.1542 27.6102 53.1079 27.4513 53.0113L18.9449 47.8219C18.3867 47.4816 17.9957 46.9356 17.8461 46.3053C13.2509 47.9599 10.1445 52.2923 10.1445 57.2974V66.0724H48.8808C47.9419 65.1257 47.1073 63.8645 46.4121 62.3557Z" fill="#6A0DAD"/>
<path d="M58.4594 60.2256C58.7675 59.3719 59.0371 58.4496 59.2574 57.4688C58.6807 57.8461 58.0884 58.2137 57.4751 58.5642C56.8687 58.9108 56.2617 59.2325 55.6562 59.5333C56.6215 59.8336 57.5609 60.0637 58.4594 60.2256Z" fill="#6A0DAD"/>
<path d="M63.8557 50.9601C63.2609 50.2649 62.5867 49.5741 61.8428 48.8984C61.8832 49.5736 61.9062 50.2605 61.9062 50.9601C61.9062 51.6596 61.8832 52.3465 61.8428 53.0217C62.5867 52.346 63.2609 51.6552 63.8557 50.9601Z" fill="#6A0DAD"/>
<path d="M57.6805 39.8588C56.4456 37.3813 54.813 35.8477 53.0517 35.8477C51.2903 35.8477 49.6577 37.3813 48.4229 39.8588C49.9 40.1489 51.458 40.6086 53.0517 41.2336C54.6458 40.6086 56.2034 40.1489 57.6805 39.8588Z" fill="#6A0DAD"/>
<path d="M53.0521 49.0117C51.9776 49.0117 51.1035 49.8863 51.1035 50.9617C51.1035 52.0371 51.9776 52.9117 53.0521 52.9117C54.1265 52.9117 55.0006 52.0371 55.0006 50.9617C55.0006 49.8863 54.126 49.0117 53.0521 49.0117Z" fill="#6A0DAD"/>
<path d="M53.0519 43.3477C51.9048 43.8298 50.7451 44.3972 49.5965 45.0539C48.4563 45.7057 47.3808 46.417 46.38 47.1628C46.2294 48.3821 46.1484 49.6559 46.1484 50.9624C46.1484 52.2689 46.2298 53.5427 46.38 54.762C47.3808 55.5079 48.4563 56.2191 49.5965 56.8709C50.7451 57.5271 51.9053 58.097 53.0519 58.5791C54.199 58.097 55.3588 57.5271 56.5073 56.8709C57.6481 56.2191 58.7235 55.5079 59.7239 54.762C59.8745 53.5427 59.9554 52.2689 59.9554 50.9624C59.9554 49.6559 59.874 48.3821 59.7239 47.1628C58.7235 46.417 57.6481 45.7057 56.5073 45.0539C55.3588 44.3972 54.1985 43.8298 53.0519 43.3477ZM53.0519 54.8624C50.902 54.8624 49.1534 53.1128 49.1534 50.9624C49.1534 48.812 50.902 47.0624 53.0519 47.0624C55.2013 47.0624 56.9505 48.812 56.9505 50.9624C56.9505 53.1128 55.2013 54.8624 53.0519 54.8624Z" fill="#6A0DAD"/>
</g>
<defs>
<clipPath id="clip0_2498_351">
<rect width="76.5262" height="75.5696" fill="white"/>
</clipPath>
</defs>
</svg>
