<svg width="53" height="53" viewBox="0 0 53 53" fill="none" xmlns="http://www.w3.org/2000/svg">
<path d="M43.6976 27.7053C43.9628 28.1645 44.3721 28.5235 44.862 28.7264C45.352 28.9294 45.8952 28.965 46.4075 28.8277C46.9197 28.6905 47.3724 28.388 47.6952 27.9673C48.0181 27.5465 48.1931 27.031 48.1931 26.5007C48.1931 25.9704 48.0181 25.4549 47.6952 25.0341C47.3724 24.6134 46.9197 24.311 46.4075 24.1737C45.8952 24.0364 45.352 24.0721 44.862 24.275C44.3721 24.4779 43.9628 24.8369 43.6976 25.2962H40.9549V20.478H44.5685C44.888 20.478 45.1944 20.3511 45.4203 20.1252C45.6462 19.8993 45.7731 19.5929 45.7731 19.2734V11.7125C46.2323 11.4473 46.5913 11.038 46.7942 10.5481C46.9972 10.0581 47.0328 9.51491 46.8955 9.00265C46.7583 8.4904 46.4558 8.03775 46.0351 7.71491C45.6143 7.39207 45.0988 7.21708 44.5685 7.21708C44.0382 7.21708 43.5227 7.39207 43.102 7.71491C42.6812 8.03775 42.3788 8.4904 42.2415 9.00265C42.1043 9.51491 42.1399 10.0581 42.3428 10.5481C42.5458 11.038 42.9047 11.4473 43.364 11.7125V18.0689H40.9549V13.2507C40.9549 12.6118 40.7011 11.999 40.2493 11.5472C39.7975 11.0954 39.1847 10.8416 38.5458 10.8416H34.725V7.22798C34.725 6.90852 34.5981 6.60214 34.3722 6.37624C34.1463 6.15034 33.8399 6.02344 33.5204 6.02344C33.201 6.02344 32.8946 6.15034 32.6687 6.37624C32.4428 6.60214 32.3159 6.90852 32.3159 7.22798V10.8416H27.7049V7.22798C27.7049 6.90852 27.578 6.60214 27.3521 6.37624C27.1262 6.15034 26.8198 6.02344 26.5003 6.02344C26.1809 6.02344 25.8745 6.15034 25.6486 6.37624C25.4227 6.60214 25.2958 6.90852 25.2958 7.22798V10.8416H20.4776V7.22798C20.4776 6.90852 20.3507 6.60214 20.1248 6.37624C19.8989 6.15034 19.5925 6.02344 19.2731 6.02344C18.9536 6.02344 18.6472 6.15034 18.4213 6.37624C18.1954 6.60214 18.0685 6.90852 18.0685 7.22798V10.8416H14.4549C13.816 10.8416 13.2032 11.0954 12.7514 11.5472C12.2996 11.999 12.0458 12.6118 12.0458 13.2507V18.0689H9.6367V11.7125C10.096 11.4473 10.4549 11.038 10.6579 10.5481C10.8608 10.0581 10.8964 9.51491 10.7592 9.00265C10.6219 8.4904 10.3195 8.03775 9.89872 7.71491C9.47798 7.39207 8.96248 7.21708 8.43216 7.21708C7.90183 7.21708 7.38633 7.39207 6.96559 7.71491C6.54486 8.03775 6.24241 8.4904 6.10515 9.00265C5.96789 9.51491 6.0035 10.0581 6.20645 10.5481C6.40939 11.038 6.76834 11.4473 7.22761 11.7125V19.2734C7.22761 19.5929 7.35452 19.8993 7.58041 20.1252C7.80631 20.3511 8.11269 20.478 8.43216 20.478H12.0458V25.2962H9.30304C9.03788 24.8369 8.62858 24.4779 8.13863 24.275C7.64867 24.0721 7.10544 24.0364 6.59319 24.1737C6.08094 24.311 5.62829 24.6134 5.30545 25.0341C4.98261 25.4549 4.80762 25.9704 4.80762 26.5007C4.80762 27.031 4.98261 27.5465 5.30545 27.9673C5.62829 28.388 6.08094 28.6905 6.59319 28.8277C7.10544 28.965 7.64867 28.9294 8.13863 28.7264C8.62858 28.5235 9.03788 28.1645 9.30304 27.7053H12.0458V32.5234H8.43216C8.11269 32.5234 7.80631 32.6503 7.58041 32.8762C7.35452 33.1021 7.22761 33.4085 7.22761 33.728V41.2889C6.76834 41.5541 6.40939 41.9634 6.20645 42.4533C6.0035 42.9433 5.96789 43.4865 6.10515 43.9988C6.24241 44.511 6.54486 44.9637 6.96559 45.2865C7.38633 45.6093 7.90183 45.7843 8.43216 45.7843C8.96248 45.7843 9.47798 45.6093 9.89872 45.2865C10.3195 44.9637 10.6219 44.511 10.7592 43.9988C10.8964 43.4865 10.8608 42.9433 10.6579 42.4533C10.4549 41.9634 10.096 41.5541 9.6367 41.2889V34.9325H12.0458V39.7507C12.0458 40.3896 12.2996 41.0024 12.7514 41.4542C13.2032 41.906 13.816 42.1598 14.4549 42.1598H18.0685V45.7734C18.0685 46.0929 18.1954 46.3993 18.4213 46.6252C18.6472 46.8511 18.9536 46.978 19.2731 46.978C19.5925 46.978 19.8989 46.8511 20.1248 46.6252C20.3507 46.3993 20.4776 46.0929 20.4776 45.7734V42.1598H25.2958V45.7734C25.2958 46.0929 25.4227 46.3993 25.6486 46.6252C25.8745 46.8511 26.1809 46.978 26.5003 46.978C26.8198 46.978 27.1262 46.8511 27.3521 46.6252C27.578 46.3993 27.7049 46.0929 27.7049 45.7734V42.1598H32.3159V45.7734C32.3159 46.0929 32.4428 46.3993 32.6687 46.6252C32.8946 46.8511 33.201 46.978 33.5204 46.978C33.8399 46.978 34.1463 46.8511 34.3722 46.6252C34.5981 46.3993 34.725 46.0929 34.725 45.7734V42.1598H38.5458C39.1847 42.1598 39.7975 41.906 40.2493 41.4542C40.7011 41.0024 40.9549 40.3896 40.9549 39.7507V34.9325H43.364V41.2889C42.9047 41.5541 42.5458 41.9634 42.3428 42.4533C42.1399 42.9433 42.1043 43.4865 42.2415 43.9988C42.3788 44.511 42.6812 44.9637 43.102 45.2865C43.5227 45.6093 44.0382 45.7843 44.5685 45.7843C45.0988 45.7843 45.6143 45.6093 46.0351 45.2865C46.4558 44.9637 46.7583 44.511 46.8955 43.9988C47.0328 43.4865 46.9972 42.9433 46.7942 42.4533C46.5913 41.9634 46.2323 41.5541 45.7731 41.2889V33.728C45.7731 33.4085 45.6462 33.1021 45.4203 32.8762C45.1944 32.6503 44.888 32.5234 44.5685 32.5234H40.9549V27.7053H43.6976ZM18.1408 24.5024C18.0561 24.2694 18.0454 24.016 18.1101 23.7767C18.1748 23.5374 18.3117 23.3239 18.5022 23.1653L24.9585 17.7858C25.3915 17.4249 25.9373 17.2273 26.5009 17.2273C27.0646 17.2273 27.6104 17.4249 28.0434 17.7858L34.5009 23.1653C34.6916 23.3238 34.8287 23.5373 34.8936 23.7766C34.9584 24.016 34.9478 24.2695 34.8632 24.5026C34.7786 24.7356 34.6242 24.9369 34.4209 25.079C34.2177 25.221 33.9756 25.2968 33.7276 25.2962V31.3189C34.0471 31.3189 34.3535 31.4458 34.5794 31.6717C34.8053 31.8976 34.9322 32.204 34.9322 32.5234C34.9322 32.8429 34.8053 33.1493 34.5794 33.3752C34.3535 33.6011 34.0471 33.728 33.7276 33.728H19.2731C18.9536 33.728 18.6472 33.6011 18.4213 33.3752C18.1954 33.1493 18.0685 32.8429 18.0685 32.5234C18.0685 32.204 18.1954 31.8976 18.4213 31.6717C18.6472 31.4458 18.9536 31.3189 19.2731 31.3189V25.2962C19.0257 25.2961 18.7843 25.2199 18.5817 25.0779C18.3791 24.9359 18.2252 24.7349 18.1408 24.5024Z" fill="#E4E4E4"/>
<path d="M21.6826 25.2969H25.2963V31.3196H21.6826V25.2969Z" fill="#E4E4E4"/>
<path d="M26.4999 19.6367L22.5996 22.8866H30.4002L26.4999 19.6367Z" fill="#E4E4E4"/>
<path d="M27.7051 25.2969H31.3187V31.3196H27.7051V25.2969Z" fill="#E4E4E4"/>
</svg>
