<svg width="59" height="59" viewBox="0 0 59 59" fill="none" xmlns="http://www.w3.org/2000/svg">
<path d="M37.7969 31.3438H38.7188C38.9632 31.3438 39.1977 31.2466 39.3706 31.0737C39.5435 30.9009 39.6406 30.6664 39.6406 30.4219C39.6406 30.1774 39.5435 29.9429 39.3706 29.77C39.1977 29.5971 38.9632 29.5 38.7188 29.5H37.7969V31.3438Z" fill="#6A0DAD"/>
<path d="M32.9764 17.5156H26.0236C24.5012 17.5176 23.0418 18.1232 21.9653 19.1997C20.8888 20.2762 20.2832 21.7356 20.2813 23.258C20.2807 23.6101 20.3477 23.959 20.4785 24.2859L21.2031 26.0964V24.8906C21.2031 24.7194 21.2508 24.5516 21.3408 24.406C21.4308 24.2603 21.5596 24.1426 21.7127 24.0661C21.8659 23.9895 22.0373 23.9571 22.2078 23.9725C22.3783 23.9878 22.5412 24.0504 22.6781 24.1531L23.4156 24.7062C25.1709 26.0227 27.3059 26.7344 29.5 26.7344C31.6941 26.7344 33.8291 26.0227 35.5844 24.7062L36.3219 24.1531C36.4588 24.0504 36.6217 23.9878 36.7922 23.9725C36.9627 23.9571 37.1341 23.9895 37.2873 24.0661C37.4404 24.1426 37.5692 24.2603 37.6592 24.406C37.7492 24.5516 37.7969 24.7194 37.7969 24.8906V26.0955L38.5205 24.2859C38.652 23.9592 38.7193 23.6102 38.7188 23.258C38.7168 21.7356 38.1112 20.2762 37.0347 19.1997C35.9582 18.1232 34.4988 17.5176 32.9764 17.5156Z" fill="#6A0DAD"/>
<path d="M35.9531 32.266V26.6914C34.0264 27.9237 31.7871 28.5785 29.5 28.5785C27.2129 28.5785 24.9736 27.9237 23.0469 26.6914V32.266C23.0469 33.9775 23.7268 35.6188 24.937 36.829C26.1471 38.0392 27.7885 38.7191 29.5 38.7191C31.2115 38.7191 32.8529 38.0392 34.0631 36.829C35.2732 35.6188 35.9531 33.9775 35.9531 32.266Z" fill="#6A0DAD"/>
<path d="M42.8092 45.7927L38.292 44.4375L36.8557 50.9017C36.821 51.0571 36.7466 51.2008 36.6398 51.3189C36.533 51.437 36.3974 51.5254 36.2463 51.5756C36.1519 51.6076 36.0529 51.6238 35.9532 51.6235C35.7333 51.6233 35.5208 51.5445 35.3539 51.4013L30.4219 47.1736V52.5454H28.5782V47.1736L23.6461 51.4013C23.4793 51.5445 23.2668 51.6233 23.0469 51.6235C22.9478 51.6236 22.8494 51.6074 22.7556 51.5756C22.6045 51.5254 22.4689 51.437 22.3621 51.3189C22.2554 51.2008 22.181 51.0571 22.1462 50.9017L20.71 44.4375L16.1928 45.7927C15.2407 46.0732 14.4055 46.6554 13.8128 47.4516C13.2201 48.2478 12.902 49.2149 12.9063 50.2075V56.2329H18.4375V53.4673H20.2813V56.2329H38.7188V53.4673H40.5625V56.2329H46.0938V50.2075C46.0982 49.2152 45.7804 48.2482 45.1881 47.4521C44.5957 46.6559 43.7609 46.0736 42.8092 45.7927Z" fill="#6A0DAD"/>
<path d="M23.613 49.0017L27.5393 45.6378C26.9213 45.3454 26.3761 44.9191 25.9432 44.3899C25.5103 43.8607 25.2005 43.2418 25.0364 42.5781L22.3076 43.1239L23.613 49.0017Z" fill="#6A0DAD"/>
<path d="M29.5 44.2496C30.2335 44.2496 30.9369 43.9582 31.4556 43.4396C31.9742 42.9209 32.2656 42.2175 32.2656 41.484V40.0781C30.4783 40.7234 28.5217 40.7234 26.7344 40.0781V41.484C26.7344 42.2175 27.0258 42.9209 27.5444 43.4396C28.0631 43.9582 28.7665 44.2496 29.5 44.2496Z" fill="#6A0DAD"/>
<path d="M19.3594 30.4219C19.3594 30.6664 19.4565 30.9009 19.6294 31.0737C19.8023 31.2466 20.0368 31.3438 20.2812 31.3438H21.2031V29.5H20.2812C20.0368 29.5 19.8023 29.5971 19.6294 29.77C19.4565 29.9429 19.3594 30.1774 19.3594 30.4219Z" fill="#6A0DAD"/>
<path d="M36.6906 43.1239L33.9619 42.5781C33.7977 43.2418 33.488 43.8607 33.0551 44.3899C32.6222 44.9191 32.077 45.3454 31.459 45.6378L35.3852 49.0017L36.6906 43.1239Z" fill="#6A0DAD"/>
<path d="M5.53125 9.21875C6.18762 9.21553 6.83096 9.03527 7.39344 8.69697L12.6195 13.9203C9.81087 17.6012 8.29182 22.1043 8.29688 26.7344H10.1406C10.1406 21.6 12.1803 16.6758 15.8109 13.0452C19.4414 9.41464 24.3656 7.375 29.5 7.375C34.6344 7.375 39.5586 9.41464 43.1891 13.0452C46.8197 16.6758 48.8594 21.6 48.8594 26.7344H50.7031C50.7082 22.1043 49.1891 17.6012 46.3805 13.9203L51.6066 8.69697C52.169 9.03527 52.8124 9.21553 53.4688 9.21875C54.1981 9.21875 54.911 9.00248 55.5174 8.5973C56.1238 8.19211 56.5965 7.6162 56.8756 6.9424C57.1547 6.26859 57.2277 5.52716 57.0854 4.81186C56.9431 4.09655 56.5919 3.4395 56.0762 2.9238C55.5605 2.40809 54.9035 2.05689 54.1881 1.91461C53.4728 1.77232 52.7314 1.84535 52.0576 2.12445C51.3838 2.40354 50.8079 2.87618 50.4027 3.48259C49.9975 4.08899 49.7812 4.80193 49.7812 5.53125C49.7845 6.18762 49.9647 6.83096 50.303 7.39344L45.1995 12.4969C43.2145 10.3036 40.7918 8.5505 38.0878 7.35071C35.3837 6.15093 32.4583 5.53106 29.5 5.53106C26.5417 5.53106 23.6163 6.15093 20.9122 7.35071C18.2082 8.5505 15.7855 10.3036 13.8005 12.4969L8.69697 7.39344C9.03527 6.83096 9.21553 6.18762 9.21875 5.53125C9.21875 4.80193 9.00248 4.08899 8.5973 3.48259C8.19211 2.87618 7.6162 2.40354 6.9424 2.12445C6.26859 1.84535 5.52716 1.77232 4.81186 1.91461C4.09655 2.05689 3.4395 2.40809 2.9238 2.9238C2.40809 3.4395 2.05689 4.09655 1.91461 4.81186C1.77232 5.52716 1.84535 6.26859 2.12445 6.9424C2.40354 7.6162 2.87618 8.19211 3.48259 8.5973C4.08899 9.00248 4.80193 9.21875 5.53125 9.21875Z" fill="#6A0DAD"/>
<path d="M53.4683 38.72C52.7896 38.7226 52.125 38.9141 51.549 39.2731L45.4646 33.9511C46.6677 31.2835 47.1833 28.3569 46.9642 25.4387C46.7451 22.5205 45.7984 19.7038 44.2104 17.2457C42.6225 14.7875 40.444 12.7665 37.8739 11.367C35.3039 9.96758 32.4241 9.23437 29.4977 9.23438C26.5713 9.23438 23.6916 9.96758 21.1215 11.367C18.5514 12.7665 16.3729 14.7875 14.785 17.2457C13.1971 19.7038 12.2503 22.5205 12.0312 25.4387C11.8122 28.3569 12.3277 31.2835 13.5308 33.9511L7.45015 39.2731C6.67345 38.7889 5.74663 38.6051 4.84392 38.7562C3.94121 38.9073 3.12478 39.3829 2.54808 40.0936C1.97139 40.8043 1.67415 41.7012 1.71224 42.6157C1.75033 43.5302 2.12113 44.3993 2.75493 45.0596C3.38874 45.7199 4.2419 46.1259 5.15405 46.2015C6.0662 46.277 6.97451 46.0167 7.70826 45.4696C8.442 44.9225 8.95065 44.1262 9.13858 43.2304C9.32651 42.3346 9.18078 41.4011 8.72879 40.6052L14.4066 35.6363C15.5398 37.5519 17.0263 39.235 18.7874 40.596L19.9121 39.1367C17.3243 37.1365 15.4272 34.3768 14.4865 31.2443C13.5459 28.1119 13.6088 24.7636 14.6666 21.6687C15.7243 18.5738 17.7238 15.8874 20.385 13.9859C23.0461 12.0844 26.2354 11.0631 29.5061 11.0652C32.7767 11.0672 35.9648 12.0925 38.6235 13.9973C41.2822 15.9021 43.2784 18.591 44.3323 21.6872C45.3861 24.7835 45.4449 28.1318 44.5003 31.2631C43.5558 34.3944 41.6552 37.1517 39.0649 39.1486L40.1933 40.607C41.9609 39.244 43.4527 37.5567 44.5888 35.6354L50.2676 40.6043C49.9515 41.1529 49.7838 41.7743 49.7808 42.4075C49.7808 43.1368 49.9971 43.8497 50.4023 44.4561C50.8074 45.0625 51.3834 45.5352 52.0572 45.8143C52.731 46.0934 53.4724 46.1664 54.1877 46.0241C54.903 45.8818 55.5601 45.5306 56.0758 45.0149C56.5915 44.4992 56.9427 43.8422 57.085 43.1269C57.2272 42.4116 57.1542 41.6701 56.8751 40.9963C56.596 40.3225 56.1234 39.7466 55.517 39.3414C54.9106 38.9362 54.1976 38.72 53.4683 38.72Z" fill="#6A0DAD"/>
</svg>
