<svg width="64" height="64" viewBox="0 0 64 64" fill="none" xmlns="http://www.w3.org/2000/svg">
<path d="M45.6765 7.96307C45.8288 7.98066 45.9831 7.96598 46.1293 7.91998C46.2756 7.87399 46.4105 7.79771 46.5253 7.69612C46.6401 7.59452 46.7322 7.46989 46.7956 7.33033C46.859 7.19078 46.8924 7.03942 46.8934 6.88613V5.07692C46.8926 4.79156 46.7789 4.51813 46.5771 4.31635C46.3753 4.11457 46.1019 4.00084 45.8165 4H8.73807C8.45271 4.00083 8.17927 4.11456 7.97748 4.31634C7.7757 4.51812 7.66197 4.79156 7.66114 5.07692V6.88615C7.66064 7.02771 7.68816 7.16797 7.74211 7.29886C7.79605 7.42974 7.87536 7.54866 7.97546 7.64876C8.07556 7.74886 8.19448 7.82816 8.32536 7.88211C8.45624 7.93605 8.59651 7.96357 8.73807 7.96307H45.6765Z" fill="#6A0DAD"/>
<path d="M38.4189 26.2607C38.4278 27.3571 38.6939 28.4362 39.1958 29.411C39.6977 30.3859 40.4214 31.2294 41.3087 31.8736C42.196 32.5178 43.222 32.9448 44.3044 33.1202C45.3868 33.2957 46.4952 33.2146 47.5405 32.8837C54.9808 30.3887 53.3375 19.4155 45.3972 19.293C43.5486 19.2938 41.7757 20.0278 40.4675 21.334C39.1593 22.6402 38.4226 24.412 38.4189 26.2607Z" fill="#6A0DAD"/>
<path d="M44.4277 35.3828H46.8617V38.5808H44.4277V35.3828Z" fill="#6A0DAD"/>
<path d="M46.3339 40.7344H44.8369L45.5049 42.7694L46.3339 40.7344Z" fill="#6A0DAD"/>
<path d="M49.1342 35.3797H49.0157V39.6551C49.0179 39.7997 48.9885 39.943 48.9296 40.0751L46.3988 46.2997C46.3114 46.5001 46.1656 46.6696 45.9804 46.7859C45.7953 46.9023 45.5793 46.9602 45.3608 46.952C45.1423 46.9439 44.9313 46.8701 44.7553 46.7403C44.5793 46.6105 44.4465 46.4306 44.3742 46.2242L42.3604 40.0751L42.3281 39.9889C42.2188 40.1079 42.2962 35.4515 42.2742 35.3797C41.3185 35.3654 40.3695 35.5411 39.4823 35.8966C38.5952 36.2522 37.7875 36.7804 37.1061 37.4507C36.4248 38.121 35.8835 38.92 35.5135 39.8013C35.1436 40.6825 34.9524 41.6285 34.9512 42.5843V59.9982H56.3388V42.5843C56.337 40.674 55.5774 38.8426 54.2267 37.4918C52.8759 36.1411 51.0444 35.3815 49.1342 35.3797Z" fill="#6A0DAD"/>
<path d="M39.8615 33.5187C33.3828 28.6903 36.2533 18.0771 44.3202 17.2034L44.32 10.1172H10.2354V60.0003H32.7969V42.5864C32.8 40.5049 33.496 38.4838 34.7752 36.8418C36.0545 35.1999 37.844 34.0307 39.8615 33.5187ZM13.94 49.2849H18.4739C18.7562 49.2899 19.0252 49.4056 19.2231 49.607C19.4209 49.8084 19.5318 50.0795 19.5318 50.3618C19.5318 50.6442 19.4209 50.9152 19.223 51.1166C19.0252 51.318 18.7561 51.4337 18.4738 51.4387H13.94C13.6566 51.4353 13.3861 51.3203 13.1869 51.1187C12.9878 50.9171 12.8761 50.6451 12.8761 50.3618C12.8761 50.0784 12.9878 49.8065 13.1869 49.6049C13.3861 49.4033 13.6566 49.2883 13.94 49.2849ZM23.0077 56.0372H13.94C13.6566 56.0337 13.3861 55.9188 13.1869 55.7172C12.9878 55.5156 12.8761 55.2436 12.8761 54.9603C12.8761 54.6769 12.9878 54.405 13.1869 54.2034C13.3861 54.0018 13.6566 53.8868 13.94 53.8834H23.0077C23.2899 53.8885 23.5588 54.0042 23.7566 54.2056C23.9543 54.407 24.0651 54.678 24.0651 54.9603C24.0651 55.2425 23.9543 55.5135 23.7566 55.7149C23.5588 55.9163 23.2899 56.032 23.0077 56.0372ZM27.8969 33.7879V36.6203C27.8799 37.9057 27.3573 39.1328 26.4422 40.0358C25.5272 40.9388 24.2933 41.4451 23.0077 41.4451C21.7221 41.4451 20.4882 40.9388 19.5732 40.0358C18.6581 39.1328 18.1355 37.9057 18.1185 36.6203V33.7879C10.5842 28.9898 14.0562 17.1276 23.0079 17.1388C31.9758 17.1287 35.4464 28.9953 27.8969 33.7879ZM30.9877 14.6833C30.7055 14.6782 30.4366 14.5624 30.2388 14.361C30.0411 14.1596 29.9303 13.8886 29.9303 13.6064C29.9303 13.3241 30.0411 13.0531 30.2389 12.8518C30.4366 12.6504 30.7056 12.5346 30.9878 12.5295H39.5277C39.8111 12.5328 40.0818 12.6478 40.281 12.8494C40.4803 13.051 40.592 13.323 40.592 13.6064C40.592 13.8898 40.4803 14.1619 40.281 14.3635C40.0818 14.5651 39.8111 14.68 39.5277 14.6833L30.9877 14.6833Z" fill="#6A0DAD"/>
<path d="M20.2725 36.6193C20.3542 40.1536 25.6666 40.1623 25.7433 36.6192V34.25H20.2725V36.6193Z" fill="#6A0DAD"/>
<path d="M23.008 19.293C16.0675 19.2881 13.5122 28.5782 19.4866 32.0976H21.9311V28.0268C21.9361 27.7445 22.0518 27.4755 22.2532 27.2776C22.4547 27.0797 22.7257 26.9689 23.0081 26.9689C23.2904 26.9689 23.5615 27.0798 23.7629 27.2776C23.9643 27.4755 24.0799 27.7446 24.085 28.0269V32.0975H26.5295C32.5266 28.581 29.9516 19.2867 23.008 19.293Z" fill="#6A0DAD"/>
</svg>
