<svg width="51" height="51" viewBox="0 0 51 51" fill="none" xmlns="http://www.w3.org/2000/svg">
<path fill-rule="evenodd" clip-rule="evenodd" d="M43.6669 47.9123H36.5773C36.1905 47.9123 35.877 47.5988 35.877 47.212V45.4182C35.877 44.0665 36.9766 42.9668 38.3283 42.9668L41.9159 42.9668C43.2675 42.9668 44.3672 44.0665 44.3672 45.4181V47.212C44.3673 47.5988 44.0537 47.9123 43.6669 47.9123Z" fill="#E4E4E4"/>
<path fill-rule="evenodd" clip-rule="evenodd" d="M41.8946 44.3666H38.3498C37.963 44.3666 37.6494 44.053 37.6494 43.6662V33.6738C38.3744 34.1035 39.2198 34.3506 40.1222 34.3506C41.0246 34.3506 41.87 34.1035 42.5949 33.6738L42.595 43.6662C42.595 44.053 42.2814 44.3666 41.8946 44.3666Z" fill="#E4E4E4"/>
<path fill-rule="evenodd" clip-rule="evenodd" d="M40.1226 32.8468C38.2706 32.8468 36.7637 31.3399 36.7637 29.4878C36.7637 27.6358 38.2706 26.1289 40.1226 26.1289C41.9747 26.1289 43.4816 27.6358 43.4816 29.4878C43.4816 31.3399 41.9747 32.8468 40.1226 32.8468Z" fill="#E4E4E4"/>
<path fill-rule="evenodd" clip-rule="evenodd" d="M5.9239 31.0738C5.8746 31.0738 5.82531 31.0729 5.77596 31.0712C4.76197 31.035 3.86978 30.6372 3.2635 29.9513C3.00732 29.6614 3.03464 29.2189 3.32441 28.9628C3.61418 28.7066 4.05684 28.7338 4.31299 29.0237C4.66241 29.4189 5.19959 29.6489 5.8259 29.6712C5.88984 29.6734 5.95387 29.6733 6.01775 29.6711C6.03578 30.155 6.12479 30.621 6.27464 31.059C6.15829 31.0688 6.04123 31.0738 5.9239 31.0738Z" fill="#E4E4E4"/>
<path fill-rule="evenodd" clip-rule="evenodd" d="M45.0762 31.0736C44.9589 31.0736 44.8419 31.0686 44.7256 31.0589C44.8754 30.6209 44.9642 30.1548 44.9822 29.671C45.0462 29.6733 45.1103 29.6735 45.1742 29.6713C45.8004 29.6489 46.3378 29.4189 46.6871 29.0237C46.9432 28.7337 47.3859 28.7066 47.6756 28.9628C47.9655 29.2189 47.9927 29.6615 47.7366 29.9514C47.1303 30.6373 46.2381 31.035 45.2242 31.0713C45.1749 31.0727 45.1256 31.0736 45.0762 31.0736Z" fill="#E4E4E4"/>
<path fill-rule="evenodd" clip-rule="evenodd" d="M18.1658 31.9614C17.1428 31.9614 16.1697 31.7921 15.3154 31.4791C15.5058 31.0562 15.6374 30.6013 15.6999 30.1249C16.4401 30.4111 17.3133 30.5674 18.2255 30.5604C19.111 30.5537 19.9559 30.3949 20.6765 30.1152C20.738 30.5917 20.8687 31.0468 21.0582 31.47C20.211 31.781 19.2485 31.9534 18.2361 31.9611C18.2128 31.9614 18.1892 31.9614 18.1658 31.9614Z" fill="#E4E4E4"/>
<path fill-rule="evenodd" clip-rule="evenodd" d="M32.8335 31.9613C32.81 31.9613 32.7868 31.9612 32.7633 31.9611C31.751 31.9534 30.7885 31.781 29.9414 31.47C30.1309 31.0468 30.2616 30.5917 30.3231 30.1152C31.0437 30.3949 31.8885 30.5537 32.7739 30.5604C32.7932 30.5606 32.8127 30.5607 32.832 30.5607C33.7244 30.5607 34.5759 30.4051 35.2998 30.125C35.3623 30.6013 35.4939 31.056 35.6842 31.4789C34.8298 31.7919 33.8566 31.9613 32.8335 31.9613Z" fill="#E4E4E4"/>
<path fill-rule="evenodd" clip-rule="evenodd" d="M6.35179 35.5055C5.14154 35.5055 4.03581 35.1154 3.30777 34.4288C3.02638 34.1635 3.01335 33.7202 3.27859 33.4387C3.54389 33.1572 3.98722 33.1441 4.2687 33.4097C4.87021 33.9768 5.9107 34.197 6.90042 34.0743V35.4794C6.74668 35.494 6.59139 35.5026 6.43512 35.505C6.40729 35.5054 6.37953 35.5055 6.35179 35.5055Z" fill="#E4E4E4"/>
<path fill-rule="evenodd" clip-rule="evenodd" d="M44.6481 35.5054C44.6204 35.5054 44.5927 35.5053 44.5648 35.5048C44.4086 35.5025 44.2533 35.4939 44.0996 35.4793V34.0743C45.0893 34.197 46.1298 33.9767 46.7312 33.4095C47.0128 33.1441 47.456 33.1573 47.7213 33.4386C47.9866 33.7201 47.9737 34.1633 47.6922 34.4287C46.9641 35.1152 45.8583 35.5054 44.6481 35.5054Z" fill="#E4E4E4"/>
<path fill-rule="evenodd" clip-rule="evenodd" d="M18.1659 36.3938C17.0219 36.3938 15.8795 36.2373 14.8555 35.9237V34.4453C15.819 34.8027 16.9977 35.0003 18.2401 34.9915C19.4421 34.9832 20.5827 34.7825 21.5227 34.4336V35.9133C20.4833 36.2333 19.3239 36.3938 18.1659 36.3938Z" fill="#E4E4E4"/>
<path fill-rule="evenodd" clip-rule="evenodd" d="M32.834 36.3936C31.6761 36.3936 30.5169 36.2332 29.4775 35.9134V34.4336C30.4175 34.7824 31.558 34.983 32.7598 34.9913C34.0005 35.0001 35.1802 34.8022 36.1447 34.4445V35.9233C35.1206 36.2371 33.978 36.3936 32.834 36.3936Z" fill="#E4E4E4"/>
<path fill-rule="evenodd" clip-rule="evenodd" d="M40.7181 23.9849H10.2814L13.8261 20.4401H24.161L24.171 20.4402L24.1813 20.4401H26.8232H26.8331H37.1733L40.7181 23.9849ZM28.6016 10.6922C28.5561 10.6922 28.5096 10.6878 28.4641 10.6783C28.4195 10.6695 28.3757 10.6555 28.3338 10.6388C28.2918 10.6205 28.2506 10.5994 28.2129 10.574C28.1744 10.5487 28.1384 10.5189 28.106 10.4865C28.0737 10.455 28.0448 10.4191 28.0195 10.3805C27.9941 10.342 27.9722 10.3018 27.9547 10.2597C27.9372 10.2168 27.9239 10.1731 27.9153 10.1284C27.9056 10.0829 27.9013 10.0374 27.9013 9.99183C27.9013 9.94633 27.9057 9.89992 27.9153 9.85439C27.924 9.80974 27.9372 9.76598 27.9547 9.72395C27.9722 9.68195 27.9941 9.6408 28.0195 9.60312C28.0448 9.56462 28.0737 9.52871 28.106 9.49632C28.1384 9.46394 28.1743 9.43506 28.2129 9.40968C28.2506 9.38429 28.2916 9.36241 28.3338 9.34488C28.3757 9.32735 28.4195 9.31426 28.4641 9.30462C28.5552 9.28709 28.6481 9.28709 28.7382 9.30462C28.7829 9.31426 28.8275 9.32738 28.8695 9.34488C28.9115 9.36241 28.9526 9.38429 28.9904 9.40968C29.0288 9.43506 29.0648 9.46394 29.0972 9.49632C29.1287 9.52871 29.1584 9.56462 29.1838 9.60312C29.2092 9.6408 29.2311 9.68106 29.2485 9.72395C29.2661 9.76598 29.2793 9.80977 29.2879 9.85439C29.2976 9.89989 29.3019 9.9463 29.3019 9.99183C29.3019 10.0374 29.2975 10.0829 29.2879 10.1284C29.2792 10.1731 29.2661 10.2168 29.2485 10.2597C29.2311 10.3018 29.2092 10.342 29.1838 10.3805C29.1584 10.4191 29.1287 10.455 29.0972 10.4865C29.0648 10.5189 29.0289 10.5486 28.9904 10.574C28.9526 10.5994 28.9116 10.6205 28.8695 10.6388C28.8275 10.6555 28.7829 10.6695 28.7382 10.6783C28.6934 10.6879 28.6471 10.6922 28.6016 10.6922ZM12.8358 19.4497L9.29102 22.9945V4.07838L12.8358 7.6232V19.4497ZM13.8262 6.63269L10.2814 3.08789H40.7181L37.1733 6.63269H13.8262ZM38.1638 7.62312L41.7085 4.07838V22.9945L38.1638 19.4497V7.62312ZM14.9369 19.0394H22.7698L21.4045 17.2191C21.3976 17.2102 21.3909 17.2013 21.3844 17.1922L18.8534 13.8175L14.9369 19.0394ZM24.5208 19.0394H26.4788L27.7462 17.3495L25.4255 13.8133L22.8526 16.8152L24.5208 19.0394ZM28.2298 19.0394H36.0626L32.1462 13.8175L29.1711 17.7843C29.165 17.7928 29.1587 17.8012 29.1522 17.8095L28.2298 19.0394ZM36.7631 17.6388V8.03345H14.2366V17.6386L18.2931 12.23C18.4254 12.0536 18.6329 11.9498 18.8534 11.9498C19.0738 11.9498 19.2814 12.0537 19.4137 12.23L21.9916 15.6673L24.9682 12.1945C25.1114 12.0274 25.3247 11.9374 25.5447 11.9513C25.7644 11.9654 25.9647 12.0819 26.0855 12.2659L28.6398 16.158L31.5858 12.23C31.7181 12.0536 31.9257 11.9498 32.1461 11.9498C32.3665 11.9498 32.5741 12.0537 32.7064 12.23L36.7631 17.6388Z" fill="#E4E4E4"/>
<path fill-rule="evenodd" clip-rule="evenodd" d="M29.0448 47.9123H21.9552C21.5684 47.9123 21.2549 47.5988 21.2549 47.212V45.4182C21.2549 44.0665 22.3546 42.9668 23.7062 42.9668L27.2938 42.9668C28.6454 42.9668 29.7451 44.0665 29.7451 45.4181V47.212C29.7452 47.5988 29.4316 47.9123 29.0448 47.9123Z" fill="#E4E4E4"/>
<path fill-rule="evenodd" clip-rule="evenodd" d="M27.2725 44.3666H23.7277C23.3409 44.3666 23.0273 44.053 23.0273 43.6662V33.6738C23.7523 34.1035 24.5977 34.3506 25.5001 34.3506C26.4025 34.3506 27.2479 34.1035 27.9729 33.6738L27.9729 43.6662C27.9729 44.053 27.6593 44.3666 27.2725 44.3666Z" fill="#E4E4E4"/>
<path fill-rule="evenodd" clip-rule="evenodd" d="M25.5005 32.8468C23.6485 32.8468 22.1416 31.3399 22.1416 29.4878C22.1416 27.6358 23.6485 26.1289 25.5005 26.1289C27.3526 26.1289 28.8595 27.6358 28.8595 29.4878C28.8595 31.3399 27.3526 32.8468 25.5005 32.8468Z" fill="#E4E4E4"/>
<path fill-rule="evenodd" clip-rule="evenodd" d="M14.4228 47.9123H7.33318C6.94638 47.9123 6.63281 47.5988 6.63281 47.212V45.4182C6.63281 44.0665 7.73251 42.9668 9.08415 42.9668L12.6717 42.9668C14.0234 42.9668 15.123 44.0665 15.123 45.4181V47.212C15.1231 47.5988 14.8095 47.9123 14.4228 47.9123Z" fill="#E4E4E4"/>
<path fill-rule="evenodd" clip-rule="evenodd" d="M12.6504 44.3666H9.10564C8.71887 44.3666 8.40527 44.053 8.40527 43.6662V33.6738C9.13023 34.1035 9.97565 34.3506 10.8781 34.3506C11.7804 34.3506 12.6259 34.1035 13.3508 33.6738L13.3509 43.6662C13.3509 44.053 13.0372 44.3666 12.6504 44.3666Z" fill="#E4E4E4"/>
<path fill-rule="evenodd" clip-rule="evenodd" d="M10.8785 32.8468C9.02641 32.8468 7.51953 31.3399 7.51953 29.4878C7.51953 27.6358 9.02641 26.1289 10.8785 26.1289C12.7305 26.1289 14.2374 27.6358 14.2374 29.4878C14.2374 31.3399 12.7305 32.8468 10.8785 32.8468Z" fill="#E4E4E4"/>
</svg>
