<svg width="46" height="46" viewBox="0 0 46 46" fill="none" xmlns="http://www.w3.org/2000/svg">
<g clip-path="url(#clip0_2515_260)">
<path d="M24.3506 45.9971H45.9951V40.5859H29.7617C26.7732 40.5859 24.3506 43.0087 24.3506 45.9971Z" fill="#E4E4E4"/>
<path d="M16.2334 40.5859H0V45.9971H21.6446C21.6446 43.0087 19.2219 40.5859 16.2334 40.5859Z" fill="#E4E4E4"/>
<path d="M19.1797 6.76588H21.6448V10.8242H18.9392V19.6897C20.3857 19.6897 21.1756 20.2512 21.7524 20.6615C22.1935 20.9752 22.4149 21.1326 22.9976 21.1326C23.5803 21.1326 23.8017 20.9752 24.2428 20.6615C24.8196 20.2512 25.6094 19.6897 27.0559 19.6897V10.8242H24.3504V6.76588H26.8155C29.1896 6.76588 31.1143 4.84123 31.1143 2.467V0.00195312H27.2964C24.9222 0.00195312 22.9976 1.9266 22.9976 4.30083C22.9976 1.9266 21.0729 0.00195312 18.6988 0.00195312H14.8809V2.467C14.8809 4.84123 16.8055 6.76588 19.1797 6.76588Z" fill="#E4E4E4"/>
<path d="M41.4796 16.6079C39.2418 16.655 37.1015 16.0865 35.1175 14.9186C33.338 13.8711 31.4642 13.5255 29.7617 13.5274V28.4106C29.7617 31.6771 27.4341 34.4099 24.3506 35.0383V39.9536C25.7876 38.6653 27.6844 37.8801 29.7617 37.8801H45.9955C45.9955 37.3287 45.9945 41.9784 46.0005 15.549C44.5662 16.0682 43.6258 16.5629 41.4796 16.6079ZM41.9368 33.8217H32.4673V31.1162H41.9368V33.8217ZM41.9368 28.4106H35.1729V25.705H41.9368V28.4106Z" fill="#E4E4E4"/>
<path d="M16.2334 28.4106V13.5273C14.5323 13.5263 12.6606 13.8722 10.8831 14.9186H10.883C8.89898 16.0865 6.75878 16.6551 4.52083 16.6079C2.37459 16.5629 1.43413 16.0681 0 15.5489C0.00613262 43.199 -0.00153316 8.85898 0.0050504 37.8801H16.2387C18.3161 37.8801 20.2129 38.6653 21.6499 39.9536V35.0393C18.5636 34.413 16.2334 31.679 16.2334 28.4106ZM4.05835 25.705H10.8223V28.4106H4.05835V25.705ZM13.5278 33.8217H4.05835V31.1162H13.5278V33.8217Z" fill="#E4E4E4"/>
<path d="M27.0562 28.4097V22.3945C26.4735 22.3945 26.2521 22.552 25.811 22.8657C25.2342 23.2758 24.4443 23.8375 22.9978 23.8375C21.5513 23.8375 20.7614 23.2757 20.1846 22.8657C19.7435 22.552 19.5221 22.3945 18.9395 22.3945V28.4097C18.9395 30.6511 20.7565 32.4681 22.9978 32.4681C25.2391 32.4681 27.0562 30.6511 27.0562 28.4097Z" fill="#E4E4E4"/>
</g>
<defs>
<clipPath id="clip0_2515_260">
<rect width="46" height="46" fill="white"/>
</clipPath>
</defs>
</svg>
