<svg width="76" height="76" viewBox="0 0 76 76" fill="none" xmlns="http://www.w3.org/2000/svg">
<path d="M38 26.2475H38.1013C39.0133 26.2475 39.8746 25.9435 40.584 25.4369C41.2933 24.9302 41.8506 24.2209 42.1546 23.3595C42.864 21.3835 42.0026 19.1035 40.1786 18.0902C38.608 17.1782 36.5306 17.3809 35.1626 18.5969C33.7946 19.8129 33.288 21.7889 33.9466 23.5115C34.6053 25.1329 36.2266 26.2475 38 26.2475Z" fill="#6A0DAD"/>
<path d="M59.7362 46.6649C58.5202 42.5609 50.2109 39.2676 46.1069 37.6463L41.1416 60.5983L40.2296 42.2063L44.0296 36.6836C42.1549 37.3929 40.1282 37.7983 38.0002 37.7983C35.8722 37.7983 33.8456 37.3929 31.9709 36.6836L35.7709 42.2063L34.8589 60.5983L29.8936 37.6463C25.7896 39.2676 17.5309 42.5609 16.2642 46.7156C15.8589 48.0836 15.6562 49.4516 15.6562 50.8703V68.4009H34.4536H36.4802H39.5202H41.5469H60.3442V50.8703C60.3949 49.4516 60.1416 48.0329 59.7362 46.6649Z" fill="#6A0DAD"/>
<path d="M38.0001 36.1776C46.1068 36.1776 52.6934 29.7936 52.6934 21.8896C52.6934 13.9856 46.1068 7.60156 38.0001 7.60156C29.8934 7.60156 23.3574 13.9856 23.3574 21.8896C23.3574 29.7936 29.8934 36.1776 38.0001 36.1776ZM29.4374 20.5722C29.4374 20.5216 29.4881 20.4709 29.5388 20.4709H30.2988C30.6534 20.4709 30.9574 20.2176 31.0588 19.9136C31.2108 19.4069 31.4134 18.9002 31.6668 18.3936C31.8188 18.0896 31.7681 17.7349 31.5654 17.4816L31.0081 16.9242C30.9574 16.8736 30.9574 16.8229 31.0081 16.7722L32.8828 14.8976C32.9334 14.8469 32.9841 14.8469 33.0348 14.8976L33.5921 15.4549C33.8454 15.7082 34.2001 15.7589 34.5041 15.5562C35.0108 15.3029 35.5174 15.1002 36.0241 14.9482C36.3281 14.8469 36.5814 14.5429 36.5814 14.1882V13.4282C36.5814 13.3776 36.6321 13.3269 36.6828 13.3269H39.3174C39.3681 13.3269 39.4188 13.3776 39.4188 13.4282V14.1882C39.4188 14.5429 39.6721 14.8469 39.9761 14.9482C40.4828 15.1002 40.9894 15.3029 41.4961 15.5562C41.8001 15.7082 42.1548 15.6576 42.4081 15.4549L42.9654 14.8976C43.0161 14.8469 43.0668 14.8469 43.1174 14.8976L44.9921 16.7722C45.0428 16.8229 45.0428 16.8736 44.9921 16.9242L44.4348 17.4816C44.1814 17.7349 44.1308 18.0896 44.3334 18.3936C44.5868 18.9002 44.7894 19.4069 44.9414 19.9136C45.0428 20.2682 45.3468 20.4709 45.7014 20.4709H46.4614C46.5121 20.4709 46.5628 20.5216 46.5628 20.5722V23.2069C46.5628 23.2576 46.5121 23.3082 46.4614 23.3082H45.7014C45.3468 23.3082 45.0428 23.5616 44.9414 23.8656C44.7894 24.3722 44.5868 24.9296 44.3334 25.3856C44.1814 25.6896 44.2321 26.0442 44.4348 26.2976L44.9921 26.8549C45.0428 26.9056 45.0428 26.9562 44.9921 27.0069L43.1174 28.8816C43.0668 28.9322 43.0161 28.9322 42.9654 28.8816L42.4081 28.3242C42.1548 28.0709 41.8001 28.0202 41.4961 28.2229C41.0401 28.4762 40.4828 28.7296 39.9761 28.8309C39.6214 28.9322 39.4188 29.2362 39.4188 29.5909V30.3509C39.4188 30.4016 39.3681 30.4522 39.3174 30.4522H36.6828C36.6321 30.4522 36.5814 30.4016 36.5814 30.3509V29.5909C36.5814 29.2362 36.3281 28.9322 36.0241 28.8309C35.5174 28.6789 35.0108 28.4762 34.5041 28.2229C34.4028 28.1722 34.2508 28.1216 34.0988 28.1216C33.8961 28.1216 33.6934 28.2229 33.5414 28.3242L32.9841 28.8816C32.9334 28.9322 32.8828 28.9322 32.8321 28.8816L30.9574 27.0069C30.9068 26.9562 30.9068 26.9056 30.9574 26.8549L31.5148 26.2976C31.7681 26.0442 31.8188 25.6896 31.6161 25.3856C31.3628 24.9296 31.1601 24.3722 31.0081 23.8656C30.9068 23.5616 30.6028 23.3082 30.2481 23.3082H29.4881C29.4374 23.3082 29.3868 23.2576 29.3868 23.2069V20.5722H29.4374Z" fill="#6A0DAD"/>
</svg>
