<svg width="58" height="58" viewBox="0 0 58 58" fill="none" xmlns="http://www.w3.org/2000/svg">
<path d="M48.302 48.4189V57.9414H41.6134V52.6536C41.6134 52.2037 41.2496 51.8399 40.7997 51.8399C40.3499 51.8399 39.986 52.2037 39.986 52.6536V57.9414H30.2264L34.5634 45.9499C34.5819 45.9115 34.5959 45.8708 34.6075 45.8302L38.1982 35.9055C43.8302 36.3217 48.302 41.7745 48.302 48.4189ZM26.7555 39.7729H31.3795L32.478 35.8789H25.6546L26.7555 39.7729ZM31.4249 41.4014H26.7101L25.1769 45.6129L29.0663 56.3629L32.9569 45.6082L31.4249 41.4014ZM9.69824 48.4189V57.9414H16.3868V52.6536C16.3868 52.2037 16.7507 51.8399 17.2005 51.8399C17.6504 51.8399 18.0142 52.2037 18.0142 52.6536V57.9414H27.9064L19.9311 35.8951C14.2386 36.238 9.69824 41.7245 9.69824 48.4189ZM32.4792 30.5665C32.4792 32.3776 30.9192 33.8516 29.0001 33.8516C27.081 33.8516 25.521 32.3777 25.521 30.5665V30.5537C24.3156 30.5537 23.3357 29.618 23.3357 28.4672V26.7353C22.651 26.447 22.1698 25.7751 22.1698 24.9951C22.1698 23.7526 21.6073 23.0841 20.8307 22.1588C19.7636 20.8882 18.4362 19.3085 18.4362 15.8248C18.4362 10.1138 23.1753 5.46885 29.0002 5.46885C34.8252 5.46885 39.5643 10.1138 39.5643 15.8248C39.5643 19.3085 38.238 20.8882 37.172 22.1577C36.3955 23.0841 35.834 23.7526 35.834 24.9951C35.834 25.7775 35.3517 26.4493 34.6646 26.7376V28.4673C34.6646 29.0427 34.4194 29.5647 34.0241 29.9425C33.6289 30.3203 33.0826 30.5539 32.4793 30.5539V30.5665H32.4792ZM29.8138 19.9897V19.6096C30.9914 19.4179 31.8864 18.5147 31.8864 17.4325C31.8864 16.3503 30.9914 15.4471 29.8138 15.2565V14.0557C30.0928 14.0987 30.259 14.2673 30.259 14.3649C30.259 14.8148 30.6229 15.1786 31.0727 15.1786C31.5226 15.1786 31.8864 14.8148 31.8864 14.3649C31.8864 13.3316 30.9682 12.4865 29.8138 12.4238V12.0751C29.8138 11.6252 29.45 11.2614 29.0001 11.2614C28.5503 11.2614 28.1864 11.6252 28.1864 12.0751V12.4564C27.0101 12.6482 26.1173 13.5502 26.1173 14.6324C26.1173 15.5066 26.5568 16.1819 27.3553 16.5318C27.5983 16.6387 27.8691 16.7154 28.1864 16.7666V18.0081C27.9098 17.965 27.7447 17.8 27.7447 17.7036C27.7447 17.2537 27.3797 16.8899 26.931 16.8899C26.4812 16.8899 26.1173 17.2537 26.1173 17.7036C26.1173 18.7335 27.0333 19.5774 28.1864 19.6414V19.99C28.1864 20.4399 28.5503 20.8037 29.0001 20.8037C29.45 20.8037 29.8138 20.4395 29.8138 19.9897ZM33.9195 25.259C34.0752 25.259 34.2066 25.1381 34.2066 24.9951C34.2066 23.1609 35.0808 22.1194 35.9259 21.1115C36.9139 19.934 37.9369 18.7158 37.9369 15.8249C37.9369 11.0114 33.9277 7.09636 29.0002 7.09636C24.0727 7.09636 20.0636 11.0114 20.0636 15.8249C20.0636 18.7158 21.0877 19.9341 22.0769 21.1115C22.9231 22.1181 23.7973 23.1598 23.7973 24.9951C23.7973 25.1381 23.9287 25.259 24.0845 25.259H28.1866V22.8993C24.7552 22.4948 22.084 19.5702 22.084 16.0329C22.084 12.2191 25.1864 9.11651 29.0004 9.11651C32.8143 9.11651 35.9167 12.2189 35.9167 16.0329C35.9167 19.5701 33.2454 22.4948 29.814 22.8993V25.259H33.9195ZM29.0001 4.18662C29.4496 4.18662 29.8139 3.8222 29.8139 3.37281V0.8685C29.8139 0.419 29.4495 0.0546875 29.0001 0.0546875C28.5507 0.0546875 28.1863 0.419113 28.1863 0.8685V3.3727C28.1863 3.8222 28.5506 4.18662 29.0001 4.18662ZM34.6927 5.66936C34.8207 5.74311 34.9605 5.77822 35.0985 5.77822C35.3799 5.77822 35.6537 5.63198 35.8044 5.37075L37.0335 3.23891C37.258 2.84945 37.1243 2.3518 36.7349 2.12728C36.3456 1.9031 35.8477 2.03654 35.6232 2.42589L34.3941 4.55773C34.1696 4.94719 34.3033 5.44484 34.6927 5.66936ZM39.6602 10.187C39.7984 10.187 39.9384 10.1518 40.0666 10.0777L42.1029 8.90139C42.4921 8.67652 42.6254 8.17877 42.4005 7.78953C42.1756 7.4003 41.6778 7.26708 41.2886 7.49194L39.2523 8.66825C38.8631 8.89312 38.7298 9.39087 38.9547 9.78011C39.1056 10.0411 39.3791 10.187 39.6602 10.187ZM17.6678 21.1327L15.8985 22.1509C15.5089 22.3751 15.3748 22.8726 15.5991 23.2622C15.7496 23.5238 16.0235 23.6702 16.3051 23.6702C16.4429 23.6702 16.5825 23.6352 16.7104 23.5616L18.4797 22.5434C18.8693 22.3192 19.0034 21.8217 18.7791 21.4321C18.5549 21.0425 18.0574 20.9085 17.6678 21.1327ZM14.3405 16.342H16.5416C16.9911 16.342 17.3554 15.9776 17.3554 15.5282C17.3554 15.0788 16.9909 14.7144 16.5416 14.7144H14.3405C13.891 14.7144 13.5267 15.0788 13.5267 15.5282C13.5267 15.9776 13.891 16.342 14.3405 16.342ZM40.648 15.5281C40.648 15.9776 41.0125 16.3419 41.4619 16.3419H43.6596C44.1091 16.3419 44.4734 15.9775 44.4734 15.5281C44.4734 15.0787 44.109 14.7143 43.6596 14.7143H41.4619C41.0125 14.7143 40.648 15.0787 40.648 15.5281ZM15.8972 8.90139L17.9336 10.0777C18.0618 10.1518 18.2017 10.187 18.3399 10.187C18.6211 10.187 18.8946 10.0411 19.0453 9.78011C19.2702 9.39087 19.1369 8.89312 18.7477 8.66825L16.7114 7.49194C16.3221 7.26696 15.8244 7.4003 15.5995 7.78953C15.3748 8.17888 15.508 8.67664 15.8972 8.90139ZM39.5204 22.5435L41.2899 23.5617C41.4178 23.6353 41.5574 23.6703 41.6951 23.6703C41.9767 23.6703 42.2507 23.5238 42.4012 23.2623C42.6254 22.8727 42.4914 22.3751 42.1018 22.151L40.3323 21.1328C39.9429 20.9087 39.4451 21.0426 39.221 21.4322C38.9969 21.8218 39.1309 22.3193 39.5204 22.5435ZM22.1959 5.37075C22.3465 5.63209 22.6202 5.77822 22.9017 5.77822C23.0397 5.77822 23.1795 5.74311 23.3075 5.66936C23.697 5.44484 23.8306 4.94719 23.6061 4.55773L22.377 2.42589C22.1525 2.03654 21.6547 1.90298 21.2654 2.12728C20.8759 2.3518 20.7423 2.84945 20.9668 3.23891L22.1959 5.37075ZM30.259 17.4324C30.259 17.2475 30.0847 17.0488 29.8138 16.936V17.9287C30.0847 17.8172 30.259 17.6172 30.259 17.4324ZM27.7447 14.6322C27.7447 14.774 27.7447 14.9797 28.1864 15.1052V14.1369C27.9179 14.2497 27.7447 14.4473 27.7447 14.6322Z" fill="#6A0DAD"/>
</svg>
