<svg width="56" height="53" viewBox="0 0 56 53" fill="none" xmlns="http://www.w3.org/2000/svg">
<path d="M55.829 44.7463V52.6081H52.5862V47.0486H51.6054V52.6081H42.0816V47.0486H41.1008V52.6081H37.8971V44.7463C37.8971 44.5959 37.8905 44.4453 37.8839 44.2941C38.1061 40.7387 40.9308 37.9159 44.3835 37.9159H46.2372C46.4364 37.9398 46.6391 37.9599 46.8451 37.9599C47.0511 37.9599 47.2539 37.9398 47.4527 37.9159H49.3101C52.9025 37.9159 55.829 40.9781 55.829 44.7463Z" fill="#6A0DAD"/>
<path d="M50.7256 32.8627C50.7256 34.9148 49.2707 36.6103 47.3845 36.8881H46.3055C44.4193 36.6103 42.9647 34.9148 42.9647 32.8627C42.9647 30.6222 44.704 28.7962 46.8451 28.7962C48.9863 28.7962 50.7256 30.6222 50.7256 32.8627Z" fill="#6A0DAD"/>
<path d="M36.9165 44.7463V52.6081H33.6732V47.0486H32.6926V52.6081H23.1689V47.0486H22.1886V52.6081H18.9488V44.7463C18.9488 40.9781 21.8711 37.9159 25.4671 37.9159H27.3245C27.5239 37.9398 27.7264 37.9599 27.9327 37.9599C28.1384 37.9599 28.3411 37.9398 28.5406 37.9159H30.3943C33.8434 37.9159 36.6712 40.7387 36.8936 44.2941C36.887 44.4453 36.8801 44.5959 36.8801 44.7463H36.9165Z" fill="#6A0DAD"/>
<path d="M31.8131 32.8627C31.8131 34.9148 30.3583 36.6103 28.4717 36.8881H27.3898C25.5071 36.6103 24.0516 34.9148 24.0516 32.8627C24.0516 30.6222 25.7909 28.7962 27.9327 28.7962C30.0706 28.7962 31.8131 30.6222 31.8131 32.8627Z" fill="#6A0DAD"/>
<path d="M31.5153 22.3597C31.8295 22.3597 32.0877 22.6298 32.0877 22.9592C32.0877 23.2917 31.8295 23.5587 31.5153 23.5587H24.3491C24.0325 23.5587 23.777 23.2917 23.777 22.9592C23.777 22.6298 24.0325 22.3597 24.3491 22.3597H31.5153Z" fill="#6A0DAD"/>
<path d="M26.3994 24.5863H29.4657C29.2701 25.2848 28.6586 25.7987 27.9327 25.7987C27.2032 25.7987 26.5956 25.2848 26.3994 24.5863Z" fill="#6A0DAD"/>
<path d="M27.5141 17.7042L25.827 14.9876V14.4462C25.827 14.4156 25.8863 14.4117 25.8863 14.4462V14.5969C25.8863 15.1789 26.3368 15.6553 26.8964 15.6553C27.4518 15.6553 27.9032 15.1789 27.9032 14.5969V14.419C27.9064 14.3847 27.9622 14.3881 27.9622 14.419V14.5696C27.9622 15.1516 28.4165 15.6278 28.9723 15.6278C29.5277 15.6278 29.979 15.1516 29.979 14.556V14.4462C29.979 14.4156 30.0348 14.4156 30.0348 14.4462V14.9876L28.351 17.7042V21.3319H27.5141V17.7042Z" fill="#6A0DAD"/>
<path d="M22.4599 7.7081L23.1525 6.9813L22.1099 5.88901L21.4173 6.61471L22.4599 7.7081ZM20.4198 13.3839V12.356H18.9488V13.3839H20.4198ZM21.2957 9.50985L19.9684 8.8446L19.5439 9.77008L20.8742 10.4378L21.2957 9.50985ZM24.7615 5.80654L25.683 5.46383L25.1926 4.00822L24.2678 4.35076L24.7615 5.80654ZM34.5658 9.50329L34.9876 10.4278L36.3179 9.76336L35.8963 8.83804L34.5658 9.50329ZM32.7123 6.97475L33.4054 7.7006L34.4483 6.61143L33.7549 5.88214L32.7123 6.97475ZM30.1782 5.45727L31.1036 5.79997L31.594 4.34373L30.6689 4.00135L30.1782 5.45727ZM35.442 13.3772H36.9165V12.3494H35.442V13.3772ZM27.4423 5.19361H28.4231V3.64802H27.4423V5.19361ZM32.7674 32.3491C32.5224 29.7831 30.4468 27.7684 27.9327 27.7684C25.4153 27.7684 23.3424 29.7831 23.094 32.3491H13.8192C13.5741 29.7831 11.498 27.7684 8.98414 27.7684C6.46673 27.7684 4.39414 29.7831 4.14549 32.3491H0V0H55.829V32.3491H51.6838C51.4351 29.7831 49.359 27.7684 46.8451 27.7684C44.3313 27.7684 42.2551 29.7831 42.0065 32.3491H32.7674ZM27.9327 5.56708C24.0978 5.56708 20.9788 8.83492 20.9788 12.8531C20.9788 14.7817 21.6913 16.6008 22.9703 17.9544L24.4571 19.7014V21.3319H24.3492C23.4929 21.3319 22.7965 22.0612 22.7965 22.9592C22.7965 23.8562 23.4929 24.5863 24.3492 24.5863H25.3858C25.6013 25.8568 26.6606 26.8265 27.9327 26.8265C29.2045 26.8265 30.2632 25.8568 30.4757 24.5863H31.5153C32.3724 24.5863 33.0683 23.8562 33.0683 22.9592C33.0683 22.0612 32.3724 21.3319 31.5153 21.3319H31.4074V19.7014L32.8754 17.9744C34.1701 16.6008 34.886 14.7817 34.886 12.8531C34.886 8.83492 31.7639 5.56708 27.9327 5.56708Z" fill="#6A0DAD"/>
<path d="M17.968 44.7463V52.6081H14.7246V47.0486H13.7441V52.6081H4.22092V47.0486H3.23978V52.6081H0V44.7463C0 41.3305 2.39995 38.4944 5.52852 37.9946C5.85199 37.9432 6.18232 37.9159 6.5192 37.9159H8.37596C8.5754 37.9398 8.77783 37.9599 8.98414 37.9599C9.19015 37.9599 9.39258 37.9398 9.59173 37.9159H11.4458C14.143 37.9159 16.4642 39.6386 17.4546 42.0881C17.7843 42.907 17.968 43.8042 17.968 44.7463Z" fill="#6A0DAD"/>
<path d="M12.8643 32.8627C12.8643 33.055 12.8515 33.2429 12.8288 33.4315C12.5867 35.2194 11.2335 36.6378 9.52346 36.8881H8.44095C7.08803 36.6895 5.95365 35.7572 5.42387 34.4868C5.21459 33.9896 5.1004 33.4384 5.1004 32.8627C5.1004 30.6222 6.84297 28.7962 8.98414 28.7962C11.1223 28.7962 12.8643 30.6222 12.8643 32.8627Z" fill="#6A0DAD"/>
</svg>
