<svg width="45" height="58" viewBox="0 0 45 58" fill="none" xmlns="http://www.w3.org/2000/svg">
<path d="M14.7442 22.2439L19.6251 25.641C19.8249 25.7801 20.074 25.8403 20.3199 25.8089C20.5657 25.7775 20.789 25.657 20.9428 25.4727L28.502 16.4138C28.6586 16.2252 28.7299 15.9855 28.7001 15.7473C28.6702 15.509 28.5418 15.2917 28.343 15.143C28.1441 14.9943 27.8911 14.9263 27.6393 14.954C27.3876 14.9817 27.1578 15.1028 27.0002 15.2907L20.0139 23.6629L15.8777 20.7842C15.6732 20.6424 15.4176 20.5831 15.167 20.6195C14.9164 20.6559 14.6913 20.785 14.5412 20.9784C14.391 21.1717 14.328 21.4136 14.3661 21.6509C14.4042 21.8882 14.5401 22.1015 14.7442 22.2439Z" fill="#6A0DAD"/>
<path d="M1.92822 23.7063C1.91167 24.1388 1.80432 24.5637 1.61244 24.9565C1.32057 25.7265 0.990428 26.6007 1.32535 27.4522C1.66028 28.3173 2.51674 28.7884 3.27272 29.2096C3.67902 29.3909 4.04455 29.6446 4.34927 29.957C4.49018 30.3625 4.54387 30.7907 4.50716 31.2162C4.51673 32.0405 4.5263 32.9691 5.15309 33.6666C5.7751 34.3642 6.74639 34.5317 7.60763 34.6812C8.06106 34.7219 8.50163 34.8466 8.90428 35.0481C9.18235 35.3824 9.3873 35.7659 9.50715 36.176C9.81337 36.946 10.1626 37.8202 11.0048 38.2776C11.8373 38.7306 12.8086 38.5811 13.6698 38.4452C14.117 38.3387 14.5818 38.3156 15.0382 38.3773C15.4164 38.6001 15.7448 38.8909 16.0047 39.2334C16.5789 39.8629 17.2248 40.5741 18.1913 40.7326C19.1243 40.8866 19.9808 40.4337 20.732 40.0351C21.1178 39.786 21.552 39.612 22.0095 39.5232C22.467 39.612 22.9012 39.7859 23.287 40.035C23.931 40.4477 24.6752 40.6986 25.4497 40.7643C25.5764 40.7648 25.703 40.7542 25.8277 40.7326C26.7942 40.5741 27.4401 39.8629 28.0143 39.2333C28.2742 38.8909 28.6026 38.6 28.9808 38.3773C29.4372 38.3156 29.902 38.3387 30.3492 38.4452C31.2104 38.5811 32.1817 38.7306 33.0143 38.2776C33.8564 37.8201 34.2056 36.946 34.5071 36.1759C34.6314 35.7666 34.8377 35.3837 35.1147 35.0481C35.5174 34.8466 35.9579 34.7219 36.4114 34.6812C37.2678 34.5317 38.2439 34.3642 38.8659 33.6666C39.4927 32.9691 39.5023 32.0405 39.5071 31.2162C39.474 30.7904 39.5293 30.3626 39.6697 29.957C39.9744 29.6446 40.34 29.3908 40.7463 29.2096C41.5023 28.7884 42.3587 28.3173 42.6984 27.4522C43.0286 26.6006 42.6984 25.7264 42.4066 24.9564C42.2147 24.5637 42.1073 24.1387 42.0908 23.7063C42.2634 23.3237 42.51 22.9749 42.8181 22.6781C43.3826 22.0395 44.019 21.3148 44.019 20.3817C44.019 19.4486 43.3826 18.7239 42.8181 18.0853C42.4814 17.7978 42.2292 17.4326 42.086 17.0254C42.0952 16.6016 42.2048 16.1853 42.4066 15.8069C42.6984 15.0369 43.0286 14.1627 42.6936 13.3112C42.3587 12.4461 41.5023 11.975 40.7463 11.5538C40.34 11.3726 39.9745 11.1188 39.6697 10.8064C39.5288 10.4009 39.4751 9.97275 39.5118 9.54725C39.5023 8.72291 39.4927 7.79434 38.8659 7.09681C38.2439 6.39927 37.2726 6.23168 36.4114 6.08221C35.9579 6.04149 35.5174 5.91683 35.1147 5.71532C34.8367 5.381 34.6317 4.99759 34.5119 4.58748C34.2056 3.81745 33.8564 2.94327 33.0143 2.48579C32.1817 2.03284 31.2104 2.18232 30.3492 2.3182C29.902 2.42472 29.4372 2.44779 28.9808 2.38614C28.6026 2.16338 28.2742 1.87253 28.0143 1.53007C27.4401 0.900477 26.7942 0.189351 25.8277 0.0308198C24.8947 -0.123182 24.0382 0.329764 23.287 0.728357C22.9012 0.977466 22.467 1.15145 22.0095 1.24019C21.552 1.15145 21.1178 0.977466 20.732 0.728357C19.9808 0.329764 19.1243 -0.123182 18.1913 0.0308198C17.2248 0.189351 16.5789 0.900477 16.0047 1.53007C15.7448 1.87253 15.4164 2.16338 15.0382 2.38614C14.5818 2.44779 14.117 2.42472 13.6698 2.3182C12.8086 2.18232 11.8373 2.03284 11.0048 2.48579C10.1626 2.94327 9.81337 3.81745 9.51193 4.58746C9.38761 4.9968 9.18132 5.3797 8.90428 5.7153C8.50162 5.91681 8.06106 6.04147 7.60763 6.08218C6.75118 6.23166 5.7751 6.39925 5.15309 7.09678C4.5263 7.79432 4.51673 8.72286 4.51195 9.54722C4.54501 9.97298 4.48975 10.4008 4.34927 10.8064C4.04455 11.1188 3.67901 11.3725 3.27272 11.5538C2.51674 11.975 1.66025 12.4461 1.32057 13.3112C0.990428 14.1627 1.32057 15.0369 1.61244 15.8069C1.80432 16.1997 1.91167 16.6246 1.92822 17.0571C1.75563 17.4397 1.50897 17.7884 1.20095 18.0852C0.636362 18.7239 0 19.4486 0 20.3817C0 21.3148 0.636362 22.0395 1.20095 22.6781C1.50897 22.975 1.75563 23.3237 1.92822 23.7063ZM22.0095 9.05804C24.3753 9.05804 26.688 9.72216 28.6551 10.9664C30.6221 12.2107 32.1553 13.9792 33.0607 16.0483C33.966 18.1175 34.2029 20.3943 33.7413 22.5908C33.2798 24.7874 32.1406 26.8051 30.4677 28.3887C28.7948 29.9724 26.6634 31.0509 24.3431 31.4878C22.0228 31.9247 19.6177 31.7005 17.432 30.8434C15.2463 29.9863 13.3781 28.535 12.0637 26.6728C10.7494 24.8106 10.0478 22.6213 10.0478 20.3817C10.0478 17.3785 11.3081 14.4983 13.5513 12.3747C15.7946 10.2511 18.8371 9.05804 22.0095 9.05804Z" fill="#6A0DAD"/>
<path d="M32.1382 57.9753C32.3282 57.9813 32.5159 57.9343 32.6781 57.8403C32.8402 57.7462 32.9696 57.6091 33.0502 57.4461L35.6524 52.0415C35.6524 52.0415 41.2073 54.5502 41.2146 54.5535C41.3855 54.627 41.5754 54.6516 41.761 54.6244C41.9466 54.5972 42.1197 54.5193 42.2592 54.4003C42.3987 54.2813 42.4985 54.1264 42.5463 53.9545C42.5941 53.7826 42.5879 53.6012 42.5285 53.4326L36.2962 36.8271C36.2947 36.8308 36.2913 36.8324 36.2896 36.8359C35.9484 37.7085 35.4166 39.0614 33.967 39.8489C33.2659 40.2193 32.4737 40.4074 31.6709 40.394C31.1215 40.3836 30.5739 40.3295 30.0341 40.2322C29.9266 40.2158 29.8 40.1963 29.6809 40.18C29.6084 40.2576 29.5351 40.3381 29.4781 40.4007C28.7931 41.1513 27.7918 42.2492 26.155 42.5179C26.0113 42.5416 25.8663 42.5573 25.7207 42.5651L31.2775 57.3736C31.3413 57.5436 31.4574 57.6917 31.6107 57.7989C31.764 57.9061 31.9477 57.9676 32.1382 57.9753Z" fill="#6A0DAD"/>
<path d="M14.5629 40.4248C14.4956 40.3505 14.4152 40.2622 14.3381 40.18C14.2223 40.1959 14.1012 40.2145 14.0031 40.2295C13.4573 40.3281 12.9037 40.3832 12.3481 40.3941C11.545 40.4074 10.7524 40.2191 10.0511 39.8484C8.61922 39.0704 8.07849 37.7262 7.72195 36.8294C7.70726 36.8685 1.50009 53.4072 1.49054 53.4326C1.43181 53.6011 1.42613 53.7822 1.47421 53.9538C1.52229 54.1253 1.62204 54.2799 1.76132 54.3987C1.90059 54.5175 2.07336 54.5954 2.25858 54.6229C2.4438 54.6504 2.63346 54.6263 2.80446 54.5535L8.36664 52.0415L10.9688 57.4461C11.0479 57.6103 11.1769 57.7484 11.3395 57.8427C11.502 57.937 11.6905 57.9832 11.881 57.9754C12.0714 57.9676 12.2551 57.9062 12.4084 57.7989C12.5617 57.6917 12.6777 57.5436 12.7415 57.3736L18.2997 42.5642C18.1532 42.556 18.0073 42.5404 17.8626 42.5175C16.2272 42.2492 15.2259 41.1513 14.5629 40.4248Z" fill="#6A0DAD"/>
</svg>
