<svg width="57" height="57" viewBox="0 0 57 57" fill="none" xmlns="http://www.w3.org/2000/svg">
<path d="M9.66458 39.7344C10.1311 39.7356 10.5782 39.9214 10.9081 40.2513C11.238 40.5812 11.4238 41.0283 11.425 41.4948V43.033C11.4099 43.4776 11.2268 43.8999 10.9125 44.2148C10.5981 44.5296 10.1761 44.7134 9.73153 44.7292C9.28695 44.745 8.85293 44.5916 8.51707 44.2999C8.18121 44.0082 7.96852 43.5999 7.92193 43.1575C7.9006 43.1575 7.90149 41.5633 7.90415 41.4948C7.90556 41.0284 8.09148 40.5814 8.42132 40.2516C8.75116 39.9218 9.19812 39.7358 9.66458 39.7344ZM19.2313 52.4486H37.6713V51.7018H19.2313V52.4486ZM22.8144 49.9235H34.0882L32.799 44.1177H24.1036L22.8144 49.9235ZM48.4828 40.2501C48.2346 40.0094 47.9213 39.8466 47.5816 39.7818C47.242 39.717 46.8908 39.7529 46.5713 39.8853C46.2519 40.0176 45.9781 40.2405 45.7838 40.5265C45.5894 40.8125 45.483 41.1491 45.4777 41.4948C45.4777 41.5624 45.4777 43.1601 45.4954 43.1575C45.542 43.5999 45.7547 44.0082 46.0906 44.2999C46.4264 44.5916 46.8605 44.745 47.305 44.7292C47.7496 44.7134 48.1716 44.5296 48.486 44.2148C48.8003 43.8999 48.9834 43.4776 48.9985 43.033C48.9585 42.2239 49.2101 40.8396 48.4828 40.2501ZM6.12595 42.3395H5.74363V13.7726H51.159V42.3395H50.7767V41.4948C50.6674 36.8155 43.8248 36.8359 43.6995 41.4948V42.3395H13.2032C13.4584 40.0598 12.0696 37.9882 9.66458 37.9562C7.25333 37.9731 5.86811 40.0518 6.12595 42.3395ZM37.8669 37.3161C37.8866 35.8971 37.3925 34.5188 36.4759 33.4355C35.5592 32.3521 34.2817 31.6368 32.8791 31.4213C31.8121 31.3102 25.1519 31.3217 24.0769 31.4124C22.6643 31.6194 21.3748 32.3319 20.4477 33.4176C19.5206 34.5033 19.0189 35.8885 19.0357 37.3161V40.1256C19.0374 40.3609 19.1316 40.5861 19.2979 40.7525C19.4643 40.9189 19.6895 41.0131 19.9248 41.0147L36.9778 41.0058C37.2136 41.0058 37.4398 40.9122 37.6065 40.7454C37.7733 40.5787 37.8669 40.3525 37.8669 40.1167V37.3161ZM39.2984 19.5882C40.7528 21.0427 41.5699 23.0153 41.5699 25.0722C41.5699 27.1291 40.7528 29.1018 39.2984 30.5562C39.1364 30.7239 39.0468 30.9485 39.0488 31.1816C39.0509 31.4147 39.1444 31.6377 39.3092 31.8026C39.4741 31.9674 39.6971 32.0609 39.9302 32.063C40.1633 32.065 40.3879 31.9754 40.5556 31.8134C42.333 30.02 43.3302 27.5972 43.3302 25.0722C43.3302 22.5473 42.333 20.1245 40.5556 18.331C40.3879 18.1691 40.1633 18.0795 39.9302 18.0815C39.6971 18.0835 39.4741 18.177 39.3092 18.3419C39.1444 18.5067 39.0509 18.7297 39.0488 18.9628C39.0468 19.196 39.1364 19.4205 39.2984 19.5882ZM37.2606 21.6252C38.1732 22.54 38.6857 23.7795 38.6857 25.0718C38.6857 26.364 38.1732 27.6035 37.2606 28.5184C37.0986 28.6861 37.009 28.9107 37.011 29.1438C37.013 29.3769 37.1065 29.5999 37.2714 29.7647C37.4362 29.9296 37.6592 30.0231 37.8924 30.0251C38.1255 30.0272 38.3501 29.9375 38.5178 29.7756C39.7637 28.5272 40.4635 26.8355 40.4635 25.0718C40.4635 23.308 39.7637 21.6163 38.5178 20.368C38.3501 20.206 38.1255 20.1164 37.8924 20.1184C37.6592 20.1205 37.4362 20.214 37.2714 20.3788C37.1065 20.5437 37.013 20.7667 37.011 20.9998C37.009 21.2329 37.0986 21.4575 37.2606 21.6252ZM35.2227 23.663C35.5944 24.0377 35.8029 24.544 35.8029 25.0718C35.8029 25.5995 35.5944 26.1059 35.2227 26.4806C35.0557 26.647 34.9616 26.8731 34.9612 27.1089C34.9607 27.3448 35.054 27.5711 35.2205 27.7382C35.387 27.9053 35.613 27.9994 35.8489 27.9998C36.0847 28.0002 36.3111 27.9069 36.4782 27.7404C37.182 27.0311 37.577 26.0724 37.577 25.0731C37.577 24.0738 37.182 23.1151 36.4782 22.4058C36.3105 22.2438 36.0859 22.1542 35.8528 22.1563C35.6196 22.1583 35.3966 22.2518 35.2318 22.4166C35.0669 22.5815 34.9734 22.8045 34.9714 23.0376C34.9694 23.2707 35.059 23.4953 35.221 23.663H35.2227ZM23.8636 25.9C23.9756 31.7476 32.9271 31.7476 33.0391 25.9V23.4194C33.0382 22.2571 32.576 21.1428 31.7542 20.321C30.9324 19.4992 29.8181 19.037 28.6558 19.0361C28.0482 18.9858 27.4366 19.0615 26.8596 19.2586C26.2826 19.4556 25.7525 19.7698 25.3026 20.1813C24.8526 20.5928 24.4926 21.0929 24.2449 21.6501C23.9973 22.2073 23.8675 22.8096 23.8636 23.4194V25.9ZM20.4245 22.4058C19.7206 23.1151 19.3257 24.0738 19.3257 25.0731C19.3257 26.0724 19.7206 27.0311 20.4245 27.7404C20.5922 27.9024 20.8168 27.992 21.0499 27.99C21.283 27.9879 21.506 27.8944 21.6709 27.7296C21.8357 27.5647 21.9292 27.3417 21.9312 27.1086C21.9333 26.8755 21.8437 26.6509 21.6817 26.4832C21.4959 26.2987 21.3486 26.0791 21.2483 25.8372C21.1481 25.5953 21.0968 25.3359 21.0976 25.074C20.9482 23.9715 22.5548 23.3918 21.6817 22.4067C21.5151 22.2399 21.289 22.1461 21.0533 22.1459C20.8175 22.1458 20.5914 22.2392 20.4245 22.4058ZM18.3867 20.368C17.1407 21.6163 16.4409 23.308 16.4409 25.0718C16.4409 26.8355 17.1407 28.5272 18.3867 29.7756C18.5544 29.9375 18.779 30.0272 19.0121 30.0251C19.2452 30.0231 19.4682 29.9296 19.633 29.7647C19.7979 29.5999 19.8914 29.3769 19.8934 29.1438C19.8954 28.9107 19.8058 28.6861 19.6439 28.5184C18.7313 27.6035 18.2187 26.364 18.2187 25.0718C18.2187 23.7795 18.7313 22.54 19.6439 21.6252C19.8058 21.4575 19.8954 21.2329 19.8934 20.9998C19.8914 20.7667 19.7979 20.5437 19.633 20.3788C19.4682 20.214 19.2452 20.1205 19.0121 20.1184C18.779 20.1164 18.5544 20.206 18.3867 20.368ZM16.3489 31.8134C16.4312 31.8962 16.5291 31.9619 16.637 32.0066C16.7449 32.0514 16.8607 32.0742 16.9775 32.0739C17.152 32.071 17.3218 32.0171 17.4661 31.919C17.6105 31.8208 17.7229 31.6826 17.7897 31.5213C17.8565 31.36 17.8747 31.1828 17.8421 31.0113C17.8094 30.8399 17.7274 30.6817 17.606 30.5562C16.1601 29.0973 15.3488 27.1263 15.3488 25.0722C15.3488 23.0181 16.1601 21.0472 17.606 19.5882C17.768 19.4205 17.8576 19.196 17.8556 18.9628C17.8536 18.7297 17.7601 18.5067 17.5952 18.3419C17.4304 18.177 17.2074 18.0835 16.9743 18.0815C16.7411 18.0795 16.5165 18.1691 16.3489 18.331C14.5715 20.1245 13.5743 22.5473 13.5743 25.0722C13.5743 27.5972 14.5715 30.02 16.3489 31.8134ZM51.159 11.9944H5.74363V7.0332H51.159V11.9944ZM9.91353 8.20682C9.56689 8.20682 9.23446 8.34452 8.98935 8.58963C8.74424 8.83473 8.60654 9.16717 8.60654 9.5138C8.60654 9.86043 8.74424 10.1929 8.98935 10.438C9.23446 10.6831 9.56689 10.8208 9.91353 10.8208C10.2602 10.8208 10.5926 10.6831 10.8377 10.438C11.0828 10.1929 11.2205 9.86043 11.2205 9.5138C11.2205 9.16717 11.0828 8.83473 10.8377 8.58963C10.5926 8.34452 10.2602 8.20682 9.91353 8.20682ZM14.768 8.20682C14.4214 8.20682 14.089 8.34452 13.8439 8.58963C13.5987 8.83473 13.461 9.16717 13.461 9.5138C13.461 9.86043 13.5987 10.1929 13.8439 10.438C14.089 10.6831 14.4214 10.8208 14.768 10.8208C15.1147 10.8208 15.4471 10.6831 15.6922 10.438C15.9373 10.1929 16.075 9.86043 16.075 9.5138C16.075 9.16717 15.9373 8.83473 15.6922 8.58963C15.4471 8.34452 15.1147 8.20682 14.768 8.20682ZM19.6225 8.20682C19.2759 8.20682 18.9435 8.34452 18.6984 8.58963C18.4533 8.83473 18.3156 9.16717 18.3156 9.5138C18.3156 9.86043 18.4533 10.1929 18.6984 10.438C18.9435 10.6831 19.2759 10.8208 19.6225 10.8208C19.9692 10.8208 20.3016 10.6831 20.5467 10.438C20.7918 10.1929 20.9295 9.86043 20.9295 9.5138C20.9295 9.16717 20.7918 8.83473 20.5467 8.58963C20.3016 8.34452 19.9692 8.20682 19.6225 8.20682ZM31.2609 25.9V23.4194C31.26 22.7288 30.9852 22.0667 30.4969 21.5784C30.0085 21.09 29.3464 20.8152 28.6558 20.8143C28.2828 20.7654 27.9036 20.7959 27.5432 20.9039C27.1828 21.0119 26.8493 21.1949 26.5646 21.4409C26.2799 21.687 26.0506 21.9904 25.8915 22.3314C25.7325 22.6724 25.6473 23.0432 25.6418 23.4194V25.9C25.6738 29.3933 31.2289 29.3933 31.2609 25.9ZM32.0967 33.1373H24.806C24.6541 33.1359 24.5024 33.1478 24.3526 33.1728C23.359 33.3132 22.4509 33.8118 21.7992 34.5748C21.1475 35.3379 20.7971 36.3127 20.8139 37.3161V39.2365L36.0887 39.2276V37.3161C36.1098 36.2336 35.7018 35.1867 34.954 34.4039C34.2061 33.621 33.179 33.1657 32.0967 33.1373ZM50.4566 46.8384C49.6342 46.7575 44.8935 46.7708 44.064 46.8295C42.9905 46.9884 42.0109 47.5308 41.3064 48.3562C40.6019 49.1817 40.2202 50.2343 40.2319 51.3194V53.3288C40.2354 53.5651 40.3314 53.7905 40.4994 53.9568C40.6673 54.123 40.8937 54.2168 41.1299 54.2179L53.3462 54.209C53.582 54.209 53.8082 54.1154 53.9749 53.9486C54.1417 53.7819 54.2353 53.5557 54.2353 53.3199V51.3194C54.2514 50.2425 53.8779 49.196 53.1836 48.3726C52.4892 47.5492 51.5208 47.0044 50.4566 46.8384ZM12.8831 46.8384C12.0669 46.7575 7.3209 46.7708 6.49937 46.8295C5.42517 46.9868 4.4446 47.5287 3.73981 48.3545C3.03502 49.1803 2.65393 50.2339 2.66733 51.3194V53.3199C2.66733 53.5557 2.76101 53.7819 2.92775 53.9486C3.09449 54.1154 3.32063 54.209 3.55644 54.209L15.7727 54.2179C16.0085 54.2167 16.2347 54.1243 16.404 53.9601C16.488 53.8777 16.5548 53.7795 16.6006 53.6712C16.6464 53.5628 16.6702 53.4464 16.6707 53.3288V51.3194C16.685 50.2416 16.3097 49.1948 15.6138 48.3715C14.918 47.5482 13.9483 47.0038 12.8831 46.8384Z" fill="#6A0DAD"/>
</svg>
