<svg width="69" height="69" viewBox="0 0 69 69" fill="none" xmlns="http://www.w3.org/2000/svg">
<g clip-path="url(#clip0_2515_216)">
<path d="M41.8715 5.36914H20.3988C19.8059 5.36914 19.3252 5.84982 19.3252 6.44277V9.66368C19.3252 10.2566 19.8059 10.7373 20.3988 10.7373H41.8715C42.4645 10.7373 42.9451 10.2566 42.9451 9.66368V6.44277C42.9451 5.84982 42.4645 5.36914 41.8715 5.36914Z" fill="#6A0DAD"/>
<path d="M27.9141 36.5039H34.3559V47.2402H27.9141V36.5039Z" fill="#6A0DAD"/>
<path d="M25.7676 18.252H27.9148V20.3992H25.7676V18.252Z" fill="#6A0DAD"/>
<path d="M30.0615 26.8418H32.2088V28.9891H30.0615V26.8418Z" fill="#6A0DAD"/>
<path d="M25.7676 26.8418H27.9148V28.9891H25.7676V26.8418Z" fill="#6A0DAD"/>
<path d="M34.3564 26.8418H36.5037V28.9891H34.3564V26.8418Z" fill="#6A0DAD"/>
<path d="M40.7981 47.2391V12.8828H21.4727V47.2391H25.7672V35.4291C25.7672 34.8357 26.2479 34.3555 26.8408 34.3555H35.4299C36.0233 34.3555 36.5035 34.8357 36.5035 35.4291V47.2391H40.7981ZM23.6199 17.1773C23.6199 16.5839 24.1006 16.1037 24.6936 16.1037H37.5772C38.1706 16.1037 38.6508 16.5839 38.6508 17.1773V21.4719C38.6508 22.0653 38.1706 22.5455 37.5772 22.5455H24.6936C24.1006 22.5455 23.6199 22.0653 23.6199 21.4719V17.1773ZM33.2826 31.1346H24.6936C24.1006 31.1346 23.6199 30.6544 23.6199 30.061V25.7664C23.6199 25.173 24.1006 24.6928 24.6936 24.6928H37.5772C38.1706 24.6928 38.6508 25.173 38.6508 25.7664V30.061C38.6508 30.6544 38.1706 31.1346 37.5772 31.1346H33.2826Z" fill="#6A0DAD"/>
<path d="M34.3564 18.252H36.5037V20.3992H34.3564V18.252Z" fill="#6A0DAD"/>
<path d="M30.0615 18.252H32.2088V20.3992H30.0615V18.252Z" fill="#6A0DAD"/>
<path d="M42.9453 41.8711H53.6817V47.2393H42.9453V41.8711Z" fill="#6A0DAD"/>
<path d="M42.9453 39.7246H53.6817V19.3256C53.6817 18.7351 53.1985 18.252 52.608 18.252H42.9453V39.7246ZM47.2398 23.6201H49.3871C49.9806 23.6201 50.4608 24.1003 50.4608 24.6938C50.4608 25.2872 49.9806 25.7674 49.3871 25.7674H47.2398C46.6464 25.7674 46.1662 25.2872 46.1662 24.6938C46.1662 24.1003 46.6464 23.6201 47.2398 23.6201ZM47.2398 27.9147H49.3871C49.9806 27.9147 50.4608 28.3949 50.4608 28.9883C50.4608 29.5817 49.9806 30.0619 49.3871 30.0619H47.2398C46.6464 30.0619 46.1662 29.5817 46.1662 28.9883C46.1662 28.3949 46.6464 27.9147 47.2398 27.9147ZM47.2398 32.2092H49.3871C49.9806 32.2092 50.4608 32.6894 50.4608 33.2828C50.4608 33.8763 49.9806 34.3565 49.3871 34.3565H47.2398C46.6464 34.3565 46.1662 33.8763 46.1662 33.2828C46.1662 32.6894 46.6464 32.2092 47.2398 32.2092Z" fill="#6A0DAD"/>
<path d="M10.7361 47.2393H19.3252V41.8711H8.58887V45.092C8.58887 46.273 9.55516 47.2393 10.7361 47.2393Z" fill="#6A0DAD"/>
<path d="M19.3252 18.252H8.58887V39.7246H19.3252V18.252ZM15.0307 34.3565H12.8834C12.29 34.3565 11.8098 33.8763 11.8098 33.2828C11.8098 32.6894 12.29 32.2092 12.8834 32.2092H15.0307C15.6241 32.2092 16.1043 32.6894 16.1043 33.2828C16.1043 33.8763 15.6241 34.3565 15.0307 34.3565ZM15.0307 30.0619H12.8834C12.29 30.0619 11.8098 29.5817 11.8098 28.9883C11.8098 28.3949 12.29 27.9147 12.8834 27.9147H15.0307C15.6241 27.9147 16.1043 28.3949 16.1043 28.9883C16.1043 29.5817 15.6241 30.0619 15.0307 30.0619ZM15.0307 25.7674H12.8834C12.29 25.7674 11.8098 25.2872 11.8098 24.6938C11.8098 24.1003 12.29 23.6201 12.8834 23.6201H15.0307C15.6241 23.6201 16.1043 24.1003 16.1043 24.6938C16.1043 25.2872 15.6241 25.7674 15.0307 25.7674Z" fill="#6A0DAD"/>
<path d="M68.7126 52.6079L55.829 41.8715V49.387H10.7363C8.3645 49.387 6.4418 47.4642 6.4418 45.0924V15.0307C6.4418 14.4377 5.96115 13.957 5.36817 13.957H1.07363C0.480658 13.957 0 14.4377 0 15.0307V46.1661C0 51.5026 4.32612 55.8288 9.66271 55.8288H55.829V63.3442L68.7126 52.6079Z" fill="#6A0DAD"/>
</g>
<defs>
<clipPath id="clip0_2515_216">
<rect width="68.7126" height="68.7126" fill="white"/>
</clipPath>
</defs>
</svg>
