<svg width="62" height="62" viewBox="0 0 62 62" fill="none" xmlns="http://www.w3.org/2000/svg">
<g clip-path="url(#clip0_2515_188)">
<path d="M29.8927 21.0352H21.0654C21.1234 23.2688 21.3865 25.4925 21.8515 27.678H29.8927V21.0352Z" fill="#6A0DAD"/>
<path d="M26.1613 34.5835C27.0073 33.4087 28.523 32.9265 29.8924 33.3967V29.8926H22.4092C22.8606 31.4458 23.4725 32.9478 24.2349 34.3743L26.1613 34.5835Z" fill="#6A0DAD"/>
<path d="M13.7666 29.8926C14.5297 31.2058 15.4413 32.4269 16.4835 33.5318L21.6174 34.0853C21.0095 32.7295 20.5105 31.3275 20.1249 29.8926H13.7666Z" fill="#6A0DAD"/>
<path d="M29.8929 9.96456V0.138672C26.7475 0.8716 24.0007 4.67796 22.4297 9.96456H29.8929Z" fill="#6A0DAD"/>
<path d="M40.9347 21.0352H32.1074V27.678H40.1486C40.6136 25.4925 40.8767 23.2688 40.9347 21.0352Z" fill="#6A0DAD"/>
<path d="M48.2319 9.96535C45.824 5.81653 42.0056 2.67088 37.4727 1.10156C39.6027 3.68158 41.1172 6.71283 41.9012 9.96535H48.2319Z" fill="#6A0DAD"/>
<path d="M43.149 18.8225H50.8724C50.7558 16.5375 50.2442 14.29 49.3601 12.1797H42.4238C42.8543 14.3693 43.0969 16.5916 43.149 18.8225Z" fill="#6A0DAD"/>
<path d="M32.1074 0.138672V9.96456H39.5707C37.9996 4.67685 35.2528 0.8716 32.1074 0.138672Z" fill="#6A0DAD"/>
<path d="M40.1475 12.1797H32.1074V18.8225H40.9358C40.8779 16.5887 40.614 14.365 40.1475 12.1797Z" fill="#6A0DAD"/>
<path d="M29.8928 12.1797H21.8527C21.3863 14.365 21.1224 16.5887 21.0645 18.8225H29.8928V12.1797Z" fill="#6A0DAD"/>
<path d="M34.1866 33.379C34.85 33.5972 35.4279 34.0187 35.8385 34.5835L37.7649 34.3743C38.5273 32.9478 39.1391 31.4458 39.5906 29.8926H32.1074V33.3967C32.7809 33.1695 33.5094 33.1633 34.1866 33.379Z" fill="#6A0DAD"/>
<path d="M31.0004 45.3954C32.2233 45.3954 33.2147 44.404 33.2147 43.1811C33.2147 41.9582 32.2233 40.9668 31.0004 40.9668C29.7775 40.9668 28.7861 41.9582 28.7861 43.1811C28.7861 44.404 29.7775 45.3954 31.0004 45.3954Z" fill="#6A0DAD"/>
<path d="M38.7347 43.9918H38.7402C38.9655 43.7839 39.0936 43.4913 39.0936 43.1847C39.0936 42.8782 38.9655 42.5855 38.7402 42.3776C37.8944 41.5924 37.5142 40.426 37.7349 39.2931C37.7965 38.9921 37.729 38.679 37.5489 38.43C37.3687 38.181 37.0924 38.019 36.7872 37.9834C36.7717 37.9834 36.7573 37.9834 36.7429 37.9767C35.7714 37.8394 34.9107 37.2787 34.3924 36.4456C34.3311 36.3728 34.2801 36.292 34.2408 36.2053C34.2175 36.1599 34.181 36.1223 34.1599 36.0758C34.0315 35.7969 33.7923 35.5844 33.5003 35.4896C33.2083 35.3948 32.8899 35.4263 32.6221 35.5765C32.1624 35.8295 31.6488 35.9688 31.1242 35.9828C31.0832 35.992 31.0418 35.999 31.0002 36.0038C30.9584 35.9976 30.917 35.9891 30.8762 35.9783C30.3513 35.9637 29.8375 35.8244 29.3771 35.572C29.1095 35.4221 28.7916 35.3907 28.4998 35.4853C28.2081 35.5799 27.9691 35.7919 27.8404 36.0702C27.8193 36.1178 27.7828 36.1555 27.7584 36.202C27.7196 36.2877 27.6694 36.3678 27.609 36.44C27.09 37.2746 26.2282 37.8364 25.2552 37.9745L25.2131 37.9801C24.9092 38.0162 24.634 38.1775 24.4539 38.425C24.2739 38.6725 24.2051 38.9839 24.2643 39.2843C24.4871 40.4162 24.1104 41.583 23.2679 42.371C23.0412 42.5788 22.9121 42.8722 22.9121 43.1798C22.9121 43.4873 23.0412 43.7807 23.2679 43.9885C24.1135 44.7739 24.4936 45.9402 24.2732 47.073C24.2125 47.3711 24.2781 47.6811 24.4543 47.929C24.6306 48.177 24.9017 48.3409 25.2032 48.3817H25.2253C26.2126 48.5099 27.0904 49.0744 27.6167 49.9195C27.6766 49.9921 27.7268 50.0721 27.7662 50.1575C27.7894 50.2029 27.826 50.2406 27.8481 50.2882C27.9761 50.5672 28.215 50.7799 28.507 50.8748C28.799 50.9696 29.1173 50.938 29.3848 50.7875C30.3939 50.2268 31.6209 50.2268 32.6299 50.7875C32.8975 50.9377 33.2158 50.9694 33.5078 50.8748C33.7998 50.7802 34.039 50.5679 34.1677 50.2893C34.1887 50.2417 34.2253 50.2051 34.2485 50.1586C34.2884 50.0708 34.3402 49.9888 34.4024 49.9151C34.9273 49.0744 35.8003 48.5121 36.7828 48.3817H36.806C37.1067 48.3411 37.3772 48.1779 37.5534 47.9309C37.7295 47.6839 37.7956 47.375 37.736 47.0775C37.5135 45.9455 37.8911 44.7788 38.7347 43.9918ZM31.0002 47.6067C28.5543 47.6067 26.5716 45.6239 26.5716 43.1781C26.5716 40.7323 28.5543 38.7495 31.0002 38.7495C33.446 38.7495 35.4287 40.7323 35.4287 43.1781C35.4287 45.6239 33.446 47.6067 31.0002 47.6067Z" fill="#6A0DAD"/>
<path d="M40.3828 34.0898L45.5166 33.5362C46.5591 32.43 47.4708 31.2074 48.2336 29.8926H41.8752C41.4899 31.329 40.9909 32.7325 40.3828 34.0898Z" fill="#6A0DAD"/>
<path d="M59.705 34.7928C59.4749 34.4596 59.0797 34.2807 58.6775 34.3278L38.7567 36.4933L38.7268 36.5011C38.9569 36.6797 39.162 36.8882 39.3369 37.1211C39.8801 37.8689 40.0871 38.8094 39.9081 39.7162C39.833 40.0931 39.9588 40.482 40.2403 40.7436C40.9204 41.371 41.3072 42.2541 41.3072 43.1794C41.3072 44.1046 40.9204 44.9877 40.2403 45.6151L40.2237 45.6295C39.9538 45.8892 39.8348 46.2685 39.9081 46.6359C40.1679 47.8488 39.7074 49.1031 38.7246 49.8599L58.6786 52.0354C59.0793 52.0798 59.4724 51.903 59.705 51.5737C61.2784 49.0616 62.0766 46.1415 62.0001 43.1783C62.0748 40.2184 61.2766 37.302 59.705 34.7928ZM57.6999 38.8892L46.6196 40.0938C46.0127 40.1584 45.4679 39.7196 45.4018 39.1128C45.3372 38.5059 45.7759 37.9611 46.3827 37.895L57.4608 36.6882C57.8578 36.6381 58.2509 36.8061 58.489 37.1276C58.7272 37.4491 58.7734 37.8741 58.6098 38.2392C58.4463 38.6044 58.0984 38.8529 57.6999 38.8892Z" fill="#6A0DAD"/>
<path d="M50.8754 21.0352H43.1476C43.0901 23.2668 42.8404 25.4893 42.4014 27.678H49.3553C50.2433 25.5686 50.7577 23.3208 50.8754 21.0352Z" fill="#6A0DAD"/>
<path d="M19.5765 12.1797H12.6403C11.7562 14.29 11.2445 16.5375 11.1279 18.8225H18.8514C18.9034 16.5916 19.146 14.3693 19.5765 12.1797Z" fill="#6A0DAD"/>
<path d="M19.5961 27.678C19.1571 25.4893 18.9074 23.2668 18.8499 21.0352H11.1221C11.2398 23.3208 11.7542 25.5686 12.6422 27.678H19.5961Z" fill="#6A0DAD"/>
<path d="M30.4623 52.7196C29.9656 52.9972 29.4061 53.1428 28.8371 53.1426C28.8205 53.1426 28.8038 53.1426 28.7861 53.1426V61.6676L29.9741 60.8715C30.5858 60.4802 31.3666 60.4703 31.988 60.8461L33.2147 61.6676V53.1248C32.63 53.1404 32.0515 53.0006 31.5385 52.7196C31.2039 52.5336 30.7969 52.5336 30.4623 52.7196Z" fill="#6A0DAD"/>
<path d="M24.5278 1.10156C19.9948 2.67088 16.1765 5.81653 13.7686 9.96535H20.0948C20.8801 6.71244 22.3961 3.68116 24.5278 1.10156Z" fill="#6A0DAD"/>
<path d="M22.0919 46.6454C22.1666 46.2689 22.0409 45.8805 21.7598 45.6191C21.0797 44.9918 20.6928 44.1087 20.6928 43.1834C20.6928 42.2581 21.0797 41.375 21.7598 40.7477C22.0409 40.4863 22.1666 40.0979 22.0919 39.7214C21.8306 38.5094 22.2905 37.2554 23.2732 36.4996L23.2422 36.4929L3.32142 34.3285C2.92 34.279 2.52442 34.457 2.2951 34.7901C0.722956 37.3004 -0.0752715 40.218 -1.14981e-05 43.179C-0.0751843 46.1396 0.723045 49.0568 2.2951 51.5667C2.52351 51.9016 2.91869 52.0823 3.32142 52.0361L23.2766 49.8661C23.0442 49.6867 22.8371 49.4766 22.661 49.2417C22.1182 48.4932 21.912 47.5523 22.0919 46.6454ZM15.5 40.1011C15.4597 40.1011 15.4194 40.0989 15.3793 40.0945L4.30013 38.8899C3.90167 38.8536 3.55381 38.6051 3.39024 38.2399C3.22667 37.8748 3.27284 37.4498 3.51102 37.1283C3.7492 36.8068 4.14231 36.6388 4.53927 36.6889L15.6196 37.8935C16.2036 37.9577 16.6358 38.4671 16.604 39.0538C16.5722 39.6406 16.0876 40.1003 15.5 40.1011Z" fill="#6A0DAD"/>
</g>
<defs>
<clipPath id="clip0_2515_188">
<rect width="62" height="62" fill="white"/>
</clipPath>
</defs>
</svg>
