<svg width="60" height="60" viewBox="0 0 60 60" fill="none" xmlns="http://www.w3.org/2000/svg">
<path fill-rule="evenodd" clip-rule="evenodd" d="M19.3725 11.5379C16.7264 11.5379 13.8014 12.9277 11.9264 15.077C10.4475 16.7691 9.77246 18.7344 10.0268 20.6105C10.1463 21.4684 10.4521 22.2664 10.9021 22.9121C11.2127 22.8113 11.5432 22.7562 11.8877 22.7562H11.9686C12.0834 22.5102 12.3271 22.3484 12.6049 22.3484H14.8643C17.4635 22.3484 19.8705 20.927 21.1479 18.6395C21.1619 18.6125 21.1818 18.5867 21.1959 18.5621C21.8135 17.7312 22.6127 17.273 23.44 17.273C25.0045 17.273 26.1916 19.1949 26.9053 20.8074C27.183 21.4309 27.4314 22.1023 27.633 22.7562H27.7666C28.1111 22.7562 28.4416 22.8113 28.7568 22.9121C29.2021 22.2676 29.508 21.4684 29.6275 20.6105C29.8807 18.7344 29.2068 16.7691 27.7326 15.077C25.8518 12.9277 22.9279 11.5379 20.2807 11.5379H19.3725ZM55.0596 11.6949H57.51C57.8978 11.6949 58.2131 11.3797 58.2131 10.9918C58.2131 10.6039 57.8967 10.2887 57.51 10.2887H55.0596C54.6717 10.2887 54.3564 10.6039 54.3564 10.9918C54.3564 11.3797 54.6728 11.6949 55.0596 11.6949ZM55.84 5.47695L53.7201 6.70156C53.385 6.89492 53.2701 7.32617 53.4611 7.6625C53.5947 7.8875 53.8291 8.01406 54.074 8.01406C54.1936 8.01406 54.3131 7.98359 54.4232 7.92031L56.5432 6.6957C56.883 6.50117 56.9978 6.07109 56.8021 5.73477C56.6111 5.39727 56.1799 5.28242 55.84 5.47695ZM51.9928 2.1418C52.0924 1.9707 52.2518 1.85703 52.4299 1.8125H52.7791C52.84 1.82773 52.8986 1.85234 52.9549 1.88516C53.29 2.07969 53.4049 2.50977 53.2139 2.84609L51.9893 4.96836C51.8557 5.19336 51.6213 5.31992 51.3764 5.31992C51.2568 5.31992 51.1373 5.28945 51.0271 5.22617C50.692 5.03164 50.5771 4.60156 50.7682 4.26523L51.9928 2.1418ZM50.1119 8.41836L51.1314 10.1867C51.3951 9.84219 51.442 9.35937 51.2123 8.96094C51.0635 8.70664 50.8244 8.525 50.5373 8.44766C50.399 8.41016 50.2502 8.40078 50.1119 8.41836ZM41.6604 19.0285L42.9482 20.6738L43.3689 20.3434L42.1725 18.8129C42.0049 18.882 41.8326 18.9547 41.6604 19.0285ZM43.9326 24.2141C43.976 24.2715 43.976 24.3324 43.9713 24.3641C43.9666 24.3957 43.9525 24.4555 43.8951 24.5L43.2541 25.0016C43.2014 25.0461 43.1393 25.0461 43.1053 25.0426C43.0713 25.0391 43.0139 25.0238 42.967 24.9664L39.4021 20.4031L40.4697 19.7879L43.9326 24.2141ZM44.6557 5.31758L51.0881 16.4609C51.3318 16.8828 51.8779 17.0281 52.2986 16.7844C52.5002 16.6672 52.6432 16.4762 52.7053 16.2477C52.7674 16.0191 52.7334 15.7812 52.6186 15.5785L46.1861 4.43516C46.0232 4.15156 45.7221 3.99336 45.4209 3.99336C45.2674 3.99336 45.1197 4.03203 44.9803 4.11172C44.774 4.22891 44.6311 4.41992 44.5689 4.64844C44.508 4.87695 44.5408 5.11484 44.6557 5.31758ZM38.3486 13.4844C41.1295 11.45 43.2154 9.28437 44.235 7.39883L49.0783 15.7859C46.9338 15.7273 44.0146 16.4504 40.8611 17.8426L38.3486 13.4844ZM37.6256 19.802L39.6834 18.6148L37.09 14.1184L35.0322 15.3055C34.4346 15.65 34.008 16.2102 33.8264 16.8828C33.6447 17.5555 33.735 18.2539 34.0795 18.8516C34.424 19.4492 34.9889 19.877 35.6592 20.0574C36.3283 20.2379 37.0326 20.1477 37.6256 19.802ZM40.4967 49.2652C40.4967 47.7242 39.2428 46.4691 37.7018 46.4691C36.1607 46.4691 34.9021 47.723 34.9021 49.2652C34.9021 50.8062 36.1607 52.0602 37.7018 52.0602C39.2428 52.0613 40.4967 50.8074 40.4967 49.2652ZM37.7018 45.0641C40.0186 45.0641 41.9041 46.9484 41.9041 49.2664C41.9041 51.5832 40.0186 53.4687 37.7018 53.4687C35.385 53.4687 33.4994 51.5832 33.4994 49.2664C33.5006 46.9484 35.3861 45.0641 37.7018 45.0641ZM32.4283 46.4668C32.5525 46.2359 32.5385 45.9547 32.3896 45.7391L31.6092 44.6023L33.04 43.1738L34.1744 43.9531C34.39 44.102 34.6725 44.1172 34.9021 43.9941C35.2373 43.816 35.5912 43.6684 35.9498 43.5582C36.2029 43.482 36.3904 43.2723 36.4385 43.0145L36.6916 41.6609H38.7107L38.9592 43.0145C39.0072 43.2723 39.1982 43.482 39.4478 43.5582C39.8064 43.6684 40.1604 43.816 40.4955 43.9941C40.7299 44.1172 41.0076 44.1008 41.2232 43.9531L42.3623 43.1738L43.7885 44.6023L43.008 45.7391C42.8592 45.9547 42.8451 46.2359 42.9693 46.4668C43.1463 46.8019 43.2951 47.1559 43.4053 47.518C43.4814 47.7687 43.6924 47.9551 43.9455 48.0031L45.3002 48.2551V50.2742L43.9455 50.5262C43.6924 50.5742 43.4814 50.7617 43.4053 51.0125C43.2951 51.3746 43.1463 51.7285 42.9693 52.0637C42.8451 52.2945 42.8592 52.5758 43.008 52.7914L43.7885 53.9269L42.3623 55.3555L41.2232 54.5762C41.0076 54.4285 40.7299 54.4121 40.4955 54.5352C40.1604 54.7133 39.8064 54.8598 39.4478 54.9711C39.1994 55.0473 39.0072 55.257 38.9592 55.5148L38.7107 56.8684H36.6916L36.4385 55.5148C36.3904 55.257 36.2041 55.0473 35.9498 54.9711C35.5912 54.8609 35.2373 54.7144 34.9021 54.5352C34.6725 54.4121 34.39 54.4285 34.1744 54.5762L33.04 55.3555L31.6092 53.9269L32.3896 52.7914C32.5385 52.5746 32.5525 52.2945 32.4283 52.0637C32.2514 51.7273 32.1025 51.3746 31.9924 51.0125C31.9162 50.7617 31.71 50.5754 31.4521 50.5262L30.0975 50.2742V48.2551L31.4521 48.0031C31.7111 47.9551 31.9162 47.7676 31.9924 47.518C32.1072 47.1559 32.2514 46.8019 32.4283 46.4668ZM22.9807 44.8871L23.4975 42.7426L26.1963 44.6961C26.3205 44.7852 26.4646 44.8297 26.6123 44.8297C26.7178 44.8297 26.8279 44.8039 26.9287 44.7523C27.1631 44.6316 27.3166 44.3902 27.3166 44.1254V37.898L33.6342 40.1187C34.2951 40.3496 34.8787 40.7246 35.3428 41.2086L35.1318 42.3547C34.9596 42.418 34.792 42.4871 34.6291 42.5633L33.3518 41.6867C33.074 41.4957 32.6967 41.5297 32.4564 41.7699L30.2018 44.0246C29.9627 44.2648 29.9287 44.641 30.1209 44.9199L30.9963 46.1984C30.9201 46.3625 30.8521 46.5301 30.7854 46.7L29.2631 46.9836C28.9326 47.0457 28.6889 47.3363 28.6889 47.675V50.8637C28.6889 51.2023 28.9326 51.493 29.2631 51.5551L30.7854 51.8387C30.824 51.9406 30.8662 52.0414 30.9096 52.1422H24.142L22.9807 44.8871ZM21.6646 45.5621H17.9896L16.9314 52.1375H22.7217L21.6646 45.5621ZM17.3861 41.8508L17.9463 44.1559H21.7127L22.2682 41.8508L19.8271 40.0836L17.3861 41.8508ZM12.3424 44.1254V37.898L6.02012 40.1187C4.26816 40.7352 3.13379 42.3336 3.13379 44.1934V52.1387H7.64668V47.9855C7.64668 47.5965 7.96309 47.2824 8.3498 47.2824C8.7377 47.2824 9.05293 47.5965 9.05293 47.9855V52.1387H15.5088L16.6713 44.8883L16.1545 42.7426L13.4557 44.6961C13.3314 44.7852 13.1873 44.8297 13.0443 44.8297C12.9342 44.8297 12.824 44.8039 12.7232 44.7523C12.4912 44.6316 12.3424 44.3891 12.3424 44.1254ZM18.6354 39.2117L13.7486 42.7484V37.4035L15.3951 36.8246L18.6354 39.2117ZM24.2592 36.8246L21.0189 39.2105L25.9104 42.7473V37.4023L24.2592 36.8246ZM23.44 33.616C22.349 34.1422 21.1186 34.4387 19.8271 34.4387C18.5357 34.4387 17.31 34.1434 16.2143 33.616V35.6832L19.8271 38.3434L23.44 35.6832V33.616ZM28.1885 25.584V26.0797C28.1885 26.6621 28.1264 27.2293 28.0115 27.7777C28.8963 27.6582 29.5865 26.8977 29.5865 25.9789C29.5865 25.059 28.8975 24.2984 28.0068 24.1801C28.1205 24.7215 28.1885 25.2066 28.1885 25.584ZM11.4717 26.0797V25.584C11.4717 25.1141 11.5104 24.6488 11.5865 24.1895C10.7299 24.3336 10.0689 25.0801 10.0689 25.9789C10.0689 26.8977 10.758 27.657 11.6439 27.7777C11.5291 27.2293 11.4717 26.6609 11.4717 26.0797ZM22.3537 19.3672C22.5975 19.0461 22.9807 18.6805 23.44 18.6805C23.8947 18.6805 24.7373 19.3871 25.6221 21.3793C26.3451 23.0105 26.7799 24.7988 26.7799 25.584V26.0797C26.7799 29.9129 23.6592 33.0324 19.826 33.0324C15.9928 33.0324 12.8768 29.9141 12.8768 26.0797V25.584C12.8768 24.9617 12.9576 24.3488 13.1205 23.7547H14.8631C17.9604 23.7547 20.8232 22.0754 22.3537 19.3672Z" fill="#6A0DAD"/>
</svg>
