<svg width="63" height="63" viewBox="0 0 63 63" fill="none" xmlns="http://www.w3.org/2000/svg">
<path d="M39.8417 27.142H36.7446V39.4688H39.8417V27.142ZM52.7444 27.142H49.6473V39.4688H52.7444V27.142ZM41.429 23.773H35.5621V25.9115H41.429V23.773ZM28.7293 23.773H22.8624V25.9115H28.7293V23.773ZM54.1323 23.773H48.2618V25.9115H54.1323V23.773ZM44.1631 15.1819L38.4955 10.5565L28.1116 19.032H48.8819L44.1631 15.1819ZM38.8893 9.29406L50.8211 19.032H54.7242L38.4955 5.46484L22.2693 19.0332H26.1687L38.1079 9.28791C38.3417 9.09965 38.6703 9.10949 38.8893 9.29406ZM48.2618 43.0224H54.1323V40.6993H48.2618V43.0224ZM35.5621 43.0224H41.429V40.6993H35.5621V43.0224ZM58.4611 20.2637C45.1511 20.2637 31.8412 20.2637 18.5312 20.2637V22.5413H58.4611V20.2637ZM13.9514 50.0964L11.1717 51.226L13.4776 56.9009C13.8123 57.7278 14.7118 58.2581 15.5141 57.9296L16.9057 57.3685L13.9514 50.0964ZM27.4176 32.5659C26.1798 31.9938 24.7463 31.8338 23.3928 32.1549L28.1227 43.8013C30.7596 42.2251 31.8547 38.9004 30.6685 35.9817C30.0336 34.4178 28.8511 33.2255 27.4176 32.5659ZM24.2479 30.7842C25.3086 30.7042 26.3656 30.8543 27.345 31.2099V27.1432H24.2479V30.7842ZM11.3415 37.8336L6.12067 39.9537C4.64903 40.5541 3.93412 42.2448 4.53336 43.7201L6.53903 48.6629C7.1395 50.1346 8.83016 50.8495 10.3055 50.2502L15.5239 48.1326L11.3415 37.8336ZM19.8835 26.7864L12.3776 37.1174L16.7655 47.9234L29.3495 50.0927L19.8835 26.7864ZM28.5903 44.9481L29.2326 46.5317H58.4611V44.2505H29.6115C29.2941 44.5089 28.952 44.7426 28.5903 44.9481Z" fill="#E4E4E4"/>
</svg>
