<svg width="76" height="89" viewBox="0 0 76 89" fill="none" xmlns="http://www.w3.org/2000/svg">
<path d="M41.802 0C36.5957 0 31.6816 1.16914 27.2791 3.25168C15.6607 8.64071 7.62283 20.387 7.62283 34.0331V38.5818V39.6778L0.699305 52.9038C-1.05441 56.2468 0.607966 58.9687 4.37115 58.9687H7.62283V59.0418V64.7962V71.537C7.62283 75.4646 10.838 78.6797 14.7656 78.6797L24.5754 77.2183L24.5937 87.0282V87.1012C24.6485 88.3617 25.708 89.1838 27.0233 88.9646L62.3717 82.7169C63.7052 82.4795 64.8013 81.1824 64.8013 79.8306V78.2778V77.0174V59.0418C71.5787 52.8307 75.8168 43.8977 75.8168 33.9965C75.7985 15.2171 60.5814 0 41.802 0ZM59.1565 51.625C50.9908 59.7908 38.5321 61.0878 29.0145 55.4795L28.9597 55.443C25.2148 58.2745 21.1959 58.7678 18.4009 58.3293C17.4692 58.1832 17.2683 56.9227 18.1269 56.5025C20.6844 55.2421 22.3102 52.7394 23.2419 50.7116L22.9861 50.5107C14.3454 40.7556 14.6925 25.8308 24.0274 16.4959C33.7276 6.79565 49.4563 6.79565 59.1565 16.4959C68.8568 26.1779 68.8568 41.9248 59.1565 51.625Z" fill="url(#paint0_linear_2616_150)"/>
<path d="M41.5467 14.1758C30.5678 14.1758 21.6348 23.1088 21.6348 34.0878C21.6348 45.0668 30.5678 53.9998 41.5467 53.9998C52.5257 53.9998 61.4587 45.0668 61.4587 34.0878C61.4587 23.1088 52.5257 14.1758 41.5467 14.1758ZM35.6645 20.4599C34.4588 22.1406 33.2897 24.2779 32.4859 26.8902H28.5766C30.1476 24.0404 32.6503 21.7569 35.6645 20.4599ZM27.3161 38.2894C26.9142 36.9558 26.7132 35.5492 26.7132 34.0878C26.7132 32.6263 26.9324 31.2197 27.3161 29.8862H31.7917C31.5725 31.2014 31.4446 32.5898 31.4446 34.0878C31.4446 35.5857 31.5725 36.9924 31.7917 38.2894H27.3161ZM28.5766 41.2853H32.4859C33.2897 43.8976 34.4588 46.035 35.6645 47.7156C32.6503 46.4186 30.1476 44.1351 28.5766 41.2853ZM40.0488 48.2819C38.6056 46.8205 36.8154 44.5187 35.628 41.2853H40.0488V48.2819ZM40.0488 38.2894H34.8059C34.5502 36.9924 34.404 35.604 34.404 34.0878C34.404 32.5715 34.5502 31.1649 34.8059 29.8862H40.0488V38.2894ZM40.0488 26.8902H35.628C36.7971 23.6203 38.6056 21.3185 40.0488 19.8571V26.8902ZM54.5169 26.8902H50.6076C49.8038 24.2779 48.6347 22.1406 47.429 20.4599C50.4432 21.7569 52.9459 24.0404 54.5169 26.8902ZM43.0447 19.8936C44.4879 21.3551 46.2781 23.6568 47.4655 26.8902H43.0447V19.8936ZM43.0447 29.8862H48.2876C48.5433 31.1832 48.6895 32.5715 48.6895 34.0878C48.6895 35.604 48.5433 37.0106 48.2876 38.2894H43.0447V29.8862ZM43.0447 41.2853H47.4655C46.2964 44.5553 44.4879 46.857 43.0447 48.3184V41.2853ZM47.429 47.7156C48.6347 46.035 49.8038 43.8976 50.6076 41.2853H54.5169C52.9459 44.1351 50.4432 46.4186 47.429 47.7156ZM51.3018 38.2894C51.521 36.9741 51.6489 35.5857 51.6489 34.0878C51.6489 32.5898 51.521 31.1832 51.3018 29.8862H55.7774C56.1793 31.2197 56.3803 32.6263 56.3803 34.0878C56.3803 35.5492 56.1611 36.9558 55.7774 38.2894H51.3018Z" fill="url(#paint1_linear_2616_150)"/>
<defs>
<linearGradient id="paint0_linear_2616_150" x1="0" y1="44.4999" x2="75.8168" y2="44.4999" gradientUnits="userSpaceOnUse">
<stop stop-color="#0D1B73"/>
<stop offset="1" stop-color="#6A0DAD"/>
</linearGradient>
<linearGradient id="paint1_linear_2616_150" x1="21.6348" y1="34.0877" x2="61.4587" y2="34.0877" gradientUnits="userSpaceOnUse">
<stop stop-color="#0D1B73"/>
<stop offset="1" stop-color="#6A0DAD"/>
</linearGradient>
</defs>
</svg>
