<svg width="70" height="89" viewBox="0 0 70 89" fill="none" xmlns="http://www.w3.org/2000/svg">
<path d="M61.4748 50.7484H57.1787V45.5748C57.1787 44.7338 56.612 44.0026 55.7894 43.8015C55.2958 43.6735 44.1259 41.0593 35.3692 50.8764C26.6125 41.0593 15.4609 43.6735 14.9673 43.8015C14.1447 44.0026 13.578 44.7338 13.578 45.5748V50.7484H9.0625C8.05703 50.7484 7.23438 51.571 7.23438 52.5765V79.4499C7.23438 79.9435 7.43547 80.4371 7.8011 80.7845C8.16672 81.1135 8.66031 81.2964 9.15391 81.2781C9.2636 81.2781 20.4883 80.7662 30.1408 86.8721C31.713 87.8776 33.4863 88.3712 35.2595 88.3712C37.0328 88.3712 38.8061 87.8776 40.3966 86.8721C49.9942 80.7845 61.2555 81.2781 61.3834 81.2781C61.877 81.2964 62.3706 81.1135 62.718 80.7845C63.0836 80.4371 63.303 79.9435 63.303 79.4499V52.5765C63.303 51.571 62.4803 50.7484 61.4748 50.7484ZM37.1973 54.3498C43.0656 46.9459 50.4695 46.8179 53.5225 47.1287V70.0899C50.3598 70.291 43.7786 71.3148 37.1973 76.0862V54.3498ZM17.2342 47.1287C20.2872 46.8179 27.6911 46.9459 33.5411 54.3498V76.0862C26.9781 71.3148 20.3969 70.291 17.2342 70.0899V47.1287Z" fill="url(#paint0_linear_2616_170)"/>
<path d="M7.52295 39.8229C7.24142 39.4097 1.40787 30.5963 6.16648 21.878L6.29811 22.357C6.52114 23.1686 7.25605 23.7006 8.05859 23.7006C8.21947 23.7006 8.384 23.6787 8.5467 23.6348C9.51927 23.3679 10.0915 22.3606 9.82273 21.3881L8.65456 17.1431C8.52294 16.6642 8.20119 16.2583 7.76609 16.0207C7.32552 15.783 6.81181 15.7337 6.34016 15.8854L1.27442 17.4941C0.312828 17.7994 -0.219156 18.8269 0.0861413 19.7903C0.393266 20.7519 1.41884 21.2857 2.38227 20.9786L2.50658 20.9383C-2.55002 31.3897 4.42611 41.7735 4.50838 41.8923C4.86303 42.4078 5.43341 42.6839 6.01475 42.6839C6.36941 42.6839 6.73138 42.5797 7.04581 42.364C7.87761 41.7936 8.0915 40.6565 7.52295 39.8229Z" fill="url(#paint1_linear_2616_170)"/>
<path d="M69.3721 38.691C69.065 37.7294 68.0358 37.1992 67.076 37.5027L66.9517 37.5429C72.0065 27.0915 65.0303 16.7096 64.9499 16.5908C64.3795 15.7608 63.2442 15.5488 62.4106 16.1191C61.5788 16.6895 61.3668 17.8248 61.9335 18.6584C62.215 19.0716 68.0467 27.8849 63.29 36.6033L63.1583 36.1243C62.8914 35.1499 61.8713 34.5777 60.9116 34.8464C59.9372 35.1134 59.365 36.1207 59.6337 37.0932L60.8019 41.3399C60.9335 41.8189 61.2553 42.2248 61.6903 42.4624C61.9609 42.6087 62.2607 42.6836 62.5642 42.6836C62.7507 42.6836 62.9371 42.6544 63.1181 42.5977L68.1838 40.9871C69.1454 40.6818 69.6774 39.6544 69.3721 38.691Z" fill="url(#paint2_linear_2616_170)"/>
<path d="M18.0293 10.8006C22.638 6.19369 28.7567 3.65625 35.2648 3.65625C41.7711 3.65625 47.8899 6.19369 52.4986 10.8006C52.855 11.157 53.323 11.3362 53.791 11.3362C54.259 11.3362 54.727 11.157 55.0835 10.8006C55.7983 10.0858 55.7983 8.93039 55.0835 8.21559C49.7838 2.91769 42.7473 0 35.2648 0C27.7805 0 20.744 2.91769 15.4443 8.21559C14.7295 8.93039 14.7295 10.0858 15.4443 10.8006C16.1591 11.5154 17.3163 11.5154 18.0293 10.8006Z" fill="url(#paint3_linear_2616_170)"/>
<path d="M48.7542 16.3736C49.2222 16.3736 49.6902 16.1945 50.0467 15.838C50.7615 15.125 50.7615 13.9678 50.0467 13.253C46.098 9.30242 40.8494 7.12695 35.2645 7.12695C29.6796 7.12695 24.4292 9.30242 20.4804 13.253C19.7656 13.9678 19.7656 15.125 20.4804 15.838C21.1952 16.5528 22.3506 16.5528 23.0654 15.838C26.3231 12.5784 30.6558 10.7832 35.2645 10.7832C39.8714 10.7832 44.204 12.5784 47.4617 15.838C47.8182 16.1945 48.2862 16.3736 48.7542 16.3736Z" fill="url(#paint4_linear_2616_170)"/>
<path d="M43.7203 21.4072C44.1901 21.4072 44.66 21.2263 45.0183 20.8679C45.7294 20.1513 45.7258 18.9941 45.0091 18.283C42.3894 15.6834 38.9306 14.252 35.2652 14.252C31.598 14.252 28.1392 15.6834 25.5195 18.283C24.8029 18.9941 24.7992 20.1513 25.5103 20.8679C26.2251 21.5846 27.3787 21.5882 28.0971 20.8771C30.0258 18.963 32.5706 17.9082 35.2652 17.9082C37.9599 17.9082 40.5028 18.963 42.4315 20.8771C42.788 21.2299 43.2541 21.4072 43.7203 21.4072Z" fill="url(#paint5_linear_2616_170)"/>
<path d="M41.9315 28.0437C41.9315 31.7183 38.9334 34.6981 35.2589 34.6981C31.5843 34.6981 28.6045 31.7183 28.6045 28.0437C28.6045 24.3692 31.5843 21.3711 35.2589 21.3711C38.9334 21.3711 41.9315 24.3692 41.9315 28.0437Z" fill="url(#paint6_linear_2616_170)"/>
<defs>
<linearGradient id="paint0_linear_2616_170" x1="7.23437" y1="65.8818" x2="63.303" y2="65.8818" gradientUnits="userSpaceOnUse">
<stop stop-color="#0D1B73"/>
<stop offset="1" stop-color="#6A0DAD"/>
</linearGradient>
<linearGradient id="paint1_linear_2616_170" x1="0" y1="29.2413" x2="9.88906" y2="29.2413" gradientUnits="userSpaceOnUse">
<stop stop-color="#0D1B73"/>
<stop offset="1" stop-color="#6A0DAD"/>
</linearGradient>
<linearGradient id="paint2_linear_2616_170" x1="59.5674" y1="29.2412" x2="69.4583" y2="29.2412" gradientUnits="userSpaceOnUse">
<stop stop-color="#0D1B73"/>
<stop offset="1" stop-color="#6A0DAD"/>
</linearGradient>
<linearGradient id="paint3_linear_2616_170" x1="14.9082" y1="5.66832" x2="55.6196" y2="5.66832" gradientUnits="userSpaceOnUse">
<stop stop-color="#0D1B73"/>
<stop offset="1" stop-color="#6A0DAD"/>
</linearGradient>
<linearGradient id="paint4_linear_2616_170" x1="19.9443" y1="11.7505" x2="50.5828" y2="11.7505" gradientUnits="userSpaceOnUse">
<stop stop-color="#0D1B73"/>
<stop offset="1" stop-color="#6A0DAD"/>
</linearGradient>
<linearGradient id="paint5_linear_2616_170" x1="24.9795" y1="17.8299" x2="45.5491" y2="17.8299" gradientUnits="userSpaceOnUse">
<stop stop-color="#0D1B73"/>
<stop offset="1" stop-color="#6A0DAD"/>
</linearGradient>
<linearGradient id="paint6_linear_2616_170" x1="28.6045" y1="28.0346" x2="41.9315" y2="28.0346" gradientUnits="userSpaceOnUse">
<stop stop-color="#0D1B73"/>
<stop offset="1" stop-color="#6A0DAD"/>
</linearGradient>
</defs>
</svg>
