<svg width="76" height="76" viewBox="0 0 76 76" fill="none" xmlns="http://www.w3.org/2000/svg">
<path d="M19.8016 0H13.0625C11.8032 0.00166836 10.596 0.502649 9.70559 1.39309C8.81515 2.28352 8.31417 3.49073 8.3125 4.75V71.25C8.31417 72.5093 8.81516 73.7165 9.70559 74.6069C10.596 75.4973 11.8032 75.9983 13.0625 76H62.9375C64.1968 75.9983 65.404 75.4973 66.2944 74.6069C67.1848 73.7165 67.6858 72.5093 67.6875 71.25V4.75C67.6858 3.49073 67.1848 2.28352 66.2944 1.39309C65.404 0.502649 64.1968 0.00166836 62.9375 0L56.1984 0C56.337 0.380545 56.4073 0.78253 56.4062 1.1875V8.3125C56.4055 9.2571 56.0299 10.1628 55.362 10.8307C54.6941 11.4987 53.7884 11.8743 52.8438 11.875H23.1562C22.2116 11.8743 21.3059 11.4987 20.638 10.8307C19.9701 10.1628 19.5945 9.2571 19.5938 8.3125V1.1875C19.5927 0.78253 19.663 0.380545 19.8016 0ZM53.5028 18.6141L54.625 15.4375L55.7472 18.6141H59.375L56.4419 20.5734L57.5581 23.75L54.625 21.7906L51.6919 23.75L52.8081 20.5734L49.875 18.6141H53.5028ZM36.8778 18.6141L38 15.4375L39.1222 18.6141H42.75L39.8169 20.5734L40.9331 23.75L38 21.7906L35.0669 23.75L36.1831 20.5734L33.25 18.6141H36.8778ZM29.2125 34.3128L29.7291 34.8234C30.8323 34.2161 31.9992 33.7323 33.2084 33.3806V32.6562C33.2083 32.3443 33.2697 32.0355 33.389 31.7473C33.5084 31.4591 33.6833 31.1972 33.9039 30.9767C34.1244 30.7561 34.3863 30.5812 34.6745 30.4619C34.9626 30.3425 35.2715 30.2812 35.5834 30.2812H40.4166C40.7285 30.2812 41.0373 30.3425 41.3255 30.4619C41.6137 30.5812 41.8756 30.7561 42.0961 30.9767C42.3167 31.1972 42.4916 31.4591 42.611 31.7473C42.7303 32.0355 42.7916 32.3443 42.7916 32.6562V33.3806C44.0008 33.7323 45.1677 34.2161 46.2709 34.8234L46.7875 34.3128C47.2336 33.868 47.8378 33.6181 48.4678 33.6181C49.0978 33.6181 49.7021 33.868 50.1481 34.3128L53.5622 37.7269C54.007 38.1729 54.2569 38.7772 54.2569 39.4072C54.2569 40.0372 54.007 40.6414 53.5622 41.0875L53.0516 41.6041C53.6589 42.7073 54.1427 43.8742 54.4944 45.0834H55.2188C55.5307 45.0834 55.8395 45.1447 56.1277 45.264C56.4159 45.3834 56.6778 45.5583 56.8983 45.7789C57.1189 45.9994 57.2938 46.2613 57.4131 46.5495C57.5325 46.8377 57.5938 47.1465 57.5938 47.4584V52.2916C57.5938 52.6035 57.5325 52.9123 57.4131 53.2005C57.2938 53.4887 57.1189 53.7506 56.8983 53.9711C56.6778 54.1917 56.4159 54.3666 56.1277 54.4859C55.8395 54.6053 55.5307 54.6666 55.2188 54.6666H54.4944C54.1427 55.8758 53.6589 57.0427 53.0516 58.1459L53.5622 58.6625C54.0071 59.1086 54.2569 59.7128 54.2569 60.3428C54.2569 60.9728 54.0071 61.5771 53.5622 62.0231L50.1481 65.4372C49.7021 65.8821 49.0978 66.1319 48.4678 66.1319C47.8378 66.1319 47.2336 65.8821 46.7875 65.4372L46.2709 64.9266C45.1677 65.5339 44.0008 66.0177 42.7916 66.3694V67.0938C42.7916 67.4057 42.7303 67.7145 42.6109 68.0027C42.4916 68.2909 42.3167 68.5528 42.0961 68.7733C41.8756 68.9939 41.6137 69.1688 41.3255 69.2881C41.0373 69.4075 40.7285 69.4688 40.4166 69.4688H35.5834C35.2715 69.4688 34.9627 69.4075 34.6745 69.2881C34.3863 69.1688 34.1244 68.9939 33.9039 68.7733C33.6833 68.5528 33.5084 68.2909 33.3891 68.0027C33.2697 67.7145 33.2084 67.4057 33.2084 67.0938V66.3694C31.9992 66.0177 30.8323 65.5339 29.7291 64.9266L29.2125 65.4372C28.7664 65.8821 28.1622 66.1319 27.5322 66.1319C26.9022 66.1319 26.2979 65.8821 25.8519 65.4372L22.4378 62.0231C21.9929 61.5771 21.7431 60.9728 21.7431 60.3428C21.7431 59.7128 21.9929 59.1086 22.4378 58.6625L22.9484 58.1459C22.3411 57.0427 21.8573 55.8758 21.5056 54.6666H20.7812C20.4693 54.6666 20.1605 54.6053 19.8723 54.4859C19.5841 54.3666 19.3222 54.1917 19.1017 53.9711C18.8811 53.7506 18.7062 53.4887 18.5869 53.2005C18.4675 52.9123 18.4062 52.6035 18.4062 52.2916V47.4584C18.4062 47.1465 18.4675 46.8377 18.5869 46.5495C18.7062 46.2613 18.8811 45.9994 19.1017 45.7789C19.3222 45.5583 19.5841 45.3834 19.8723 45.264C20.1605 45.1447 20.4693 45.0834 20.7812 45.0834H21.5056C21.8573 43.8742 22.3411 42.7073 22.9484 41.6041L22.4378 41.0875C21.993 40.6414 21.7431 40.0372 21.7431 39.4072C21.7431 38.7772 21.993 38.1729 22.4378 37.7269L25.8519 34.3128C26.2979 33.868 26.9022 33.6181 27.5322 33.6181C28.1622 33.6181 28.7664 33.868 29.2125 34.3128ZM20.2528 18.6141L21.375 15.4375L22.4972 18.6141H26.125L23.1919 20.5734L24.3081 23.75L21.375 21.7906L18.4419 23.75L19.5581 20.5734L16.625 18.6141H20.2528Z" fill="url(#paint0_linear_2515_165)"/>
<path d="M25.9647 41.2597C24.6432 43.1006 23.7654 45.2221 23.3997 47.4584H20.7812V52.2916H23.3997C23.7654 54.5279 24.6432 56.6494 25.9647 58.4903L24.1181 60.3428L27.5322 63.7569L29.3847 61.9103C31.2256 63.2318 33.3471 64.1096 35.5834 64.4753V67.0938H40.4166V64.4753C42.6529 64.1096 44.7744 63.2318 46.6153 61.9103L48.4678 63.7569L51.8819 60.3428L50.0353 58.4903C51.3568 56.6494 52.2346 54.5279 52.6003 52.2916H55.2188V47.4584H52.6003C52.2346 45.2221 51.3568 43.1006 50.0353 41.2597L51.8819 39.4072L48.4678 35.9931L46.6153 37.8397C44.7744 36.5182 42.6529 35.6404 40.4166 35.2747V32.6562H35.5834V35.2747C33.3471 35.6404 31.2256 36.5182 29.3847 37.8397L27.5322 35.9931L24.1181 39.4072L25.9647 41.2597ZM38 37.4062C40.4661 37.4062 42.8768 38.1375 44.9273 39.5076C46.9777 40.8777 48.5759 42.825 49.5196 45.1034C50.4634 47.3818 50.7103 49.8888 50.2292 52.3075C49.7481 54.7262 48.5605 56.948 46.8167 58.6917C45.073 60.4355 42.8512 61.6231 40.4325 62.1042C38.0138 62.5853 35.5068 62.3384 33.2284 61.3946C30.9501 60.4509 29.0027 58.8527 27.6326 56.8023C26.2625 54.7518 25.5312 52.3411 25.5312 49.875C25.531 48.2375 25.8534 46.616 26.48 45.1032C27.1065 43.5903 28.0249 42.2157 29.1828 41.0578C30.3407 39.8999 31.7153 38.9815 33.2282 38.355C34.741 37.7284 36.3625 37.406 38 37.4062Z" fill="url(#paint1_linear_2515_165)"/>
<path d="M34.0426 54.7239C34.139 54.8583 34.2625 54.971 34.4051 55.0548C34.5477 55.1386 34.7063 55.1916 34.8706 55.2104C34.9158 55.216 34.9613 55.2187 35.0069 55.2185C35.2939 55.2184 35.5713 55.1144 35.7876 54.9257L45.3123 46.6132C45.4302 46.5108 45.5267 46.3861 45.5964 46.2464C45.666 46.1066 45.7074 45.9545 45.7182 45.7987C45.729 45.6429 45.7089 45.4865 45.6591 45.3384C45.6094 45.1904 45.5309 45.0537 45.4283 44.936C45.3256 44.8183 45.2007 44.7221 45.0608 44.6527C44.9208 44.5834 44.7686 44.5424 44.6128 44.5319C44.457 44.5215 44.3006 44.5419 44.1527 44.592C44.0048 44.6421 43.8682 44.7209 43.7508 44.8239L35.2095 52.2782L32.4333 48.4153C32.249 48.1609 31.9714 47.9899 31.6613 47.9397C31.3512 47.8895 31.0338 47.9642 30.7787 48.1476C30.5236 48.3309 30.3515 48.6079 30.3001 48.9178C30.2488 49.2277 30.3224 49.5454 30.5048 49.8012L34.0426 54.7239Z" fill="url(#paint2_linear_2515_165)"/>
<path d="M52.8438 9.5C53.1587 9.49998 53.4607 9.37487 53.6834 9.15217C53.9061 8.92948 54.0312 8.62744 54.0312 8.3125V1.1875C54.0312 0.87256 53.9061 0.570524 53.6834 0.347828C53.4607 0.125132 53.1587 1.57458e-05 52.8438 0L23.1562 0C22.8413 1.57458e-05 22.5393 0.125132 22.3166 0.347828C22.0939 0.570524 21.9688 0.87256 21.9688 1.1875V8.3125C21.9688 8.62744 22.0939 8.92948 22.3166 9.15217C22.5393 9.37487 22.8413 9.49998 23.1562 9.5H52.8438ZM24.3438 2.375H51.6562V7.125H24.3438V2.375Z" fill="url(#paint3_linear_2515_165)"/>
<defs>
<linearGradient id="paint0_linear_2515_165" x1="38" y1="0" x2="38" y2="76" gradientUnits="userSpaceOnUse">
<stop stop-color="#0D1B73"/>
<stop offset="1" stop-color="#6A0DAD"/>
</linearGradient>
<linearGradient id="paint1_linear_2515_165" x1="38" y1="32.6562" x2="38" y2="67.0938" gradientUnits="userSpaceOnUse">
<stop stop-color="#0D1B73"/>
<stop offset="1" stop-color="#6A0DAD"/>
</linearGradient>
<linearGradient id="paint2_linear_2515_165" x1="38.0026" y1="44.5293" x2="38.0026" y2="55.2185" gradientUnits="userSpaceOnUse">
<stop stop-color="#0D1B73"/>
<stop offset="1" stop-color="#6A0DAD"/>
</linearGradient>
<linearGradient id="paint3_linear_2515_165" x1="38" y1="0" x2="38" y2="9.5" gradientUnits="userSpaceOnUse">
<stop stop-color="#0D1B73"/>
<stop offset="1" stop-color="#6A0DAD"/>
</linearGradient>
</defs>
</svg>
