<svg width="96" height="96" viewBox="0 0 96 96" fill="none" xmlns="http://www.w3.org/2000/svg">
<path d="M43.314 34.3462C43.877 34.7969 44.3045 35.3666 44.5923 36H46.5V33.4336L44.3145 31.248C43.7285 30.6621 43.7285 29.7129 44.3145 29.127C44.9004 28.541 45.8496 28.541 46.4355 29.127L48 30.6914L49.5645 29.127C50.1504 28.541 51.0996 28.541 51.6855 29.127C52.2715 29.7129 52.2715 30.6621 51.6855 31.248L49.5 33.4336V36H51.4078C51.6957 35.3664 52.1233 34.7965 52.6868 34.3455C54.4746 32.9136 55.5 30.7822 55.5 28.5C55.5 24.3647 52.1353 21 48 21C43.8647 21 40.5 24.3647 40.5 28.5C40.5 30.7822 41.5254 32.9136 43.314 34.3462Z" fill="url(#paint0_linear_2515_152)"/>
<path d="M45 40.5C45 41.3269 45.6731 42 46.5 42H49.5C50.3269 42 51 41.3269 51 40.5V39H45V40.5Z" fill="url(#paint1_linear_2515_152)"/>
<path d="M46.5 50.924V54.2779C44.7605 54.9012 43.5 56.553 43.5 58.5V61.5299C45.375 62.64 46.935 64.2449 48 66.165C49.065 64.2449 50.625 62.64 52.5 61.5299V58.5C52.5 56.553 51.2395 54.9012 49.5 54.2779V50.924C59.5522 50.1533 67.5 41.7464 67.5 31.5C67.5 20.7473 58.7527 12 48 12C37.2473 12 28.5 20.7473 28.5 31.5C28.5 41.7464 36.4478 50.1533 46.5 50.924ZM48 18C53.7898 18 58.5 22.7102 58.5 28.5C58.5 31.6978 57.0645 34.6816 54.5625 36.687C54.2043 36.9734 54 37.3945 54 37.8428V40.5C54 42.9815 51.9814 45 49.5 45H46.5C44.0185 45 42 42.9815 42 40.5V37.8428C42 37.3945 41.7957 36.9734 41.4382 36.6878C38.9355 34.6816 37.5 31.6978 37.5 28.5C37.5 22.7102 42.2102 18 48 18Z" fill="url(#paint2_linear_2515_152)"/>
<path d="M49.5 72.0001H80.5809L79.4227 68.5259C79.2605 68.0394 78.861 67.6694 78.3635 67.545L60.8232 63.1594C55.0716 61.7214 49.5 66.0715 49.5 72.0001Z" fill="url(#paint3_linear_2515_152)"/>
<path d="M83.25 75H12.75C11.5074 75 10.5 76.0074 10.5 77.25V78.75C10.5 79.9926 11.5074 81 12.75 81H41.0728L42.1582 83.1709C42.4123 83.679 42.9316 84 43.4997 84H52.5003C53.0684 84 53.5878 83.679 53.8418 83.1709L54.9272 81H83.25C84.4926 81 85.5 79.9926 85.5 78.75V77.25C85.5 76.0074 84.4926 75 83.25 75Z" fill="url(#paint4_linear_2515_152)"/>
<path d="M35.1766 63.1594L17.6363 67.545C17.1388 67.6694 16.7393 68.0394 16.5771 68.5259L15.4189 72.0001H46.4998C46.4998 66.0715 40.9282 61.7214 35.1766 63.1594Z" fill="url(#paint5_linear_2515_152)"/>
<path d="M58.2648 50.8934L56.0104 52.8717C55.3878 53.4196 55.3263 54.3673 55.8727 54.9899C56.4154 55.6062 57.3731 55.6662 57.9894 55.1276L60.2438 53.1486C60.8663 52.6007 60.9278 51.653 60.3815 51.0304C59.8358 50.41 58.8873 50.3478 58.2648 50.8934Z" fill="url(#paint6_linear_2515_152)"/>
<path d="M34.889 56.6864C34.0687 56.5501 33.3018 57.1126 33.1715 57.9315C33.0404 58.7489 33.5977 59.5179 34.4158 59.6483C34.4158 59.6483 36.6295 60.0014 36.638 60.0028C37.4008 60.1245 38.2265 59.5701 38.3555 58.7577C38.4866 57.9403 37.9293 57.1712 37.1112 57.0409L34.889 56.6864Z" fill="url(#paint7_linear_2515_152)"/>
<path d="M40.1276 54.9899C40.674 54.3673 40.6124 53.4196 39.9899 52.8717L37.7355 50.8934C37.1129 50.3478 36.1644 50.41 35.6188 51.0304C35.0724 51.653 35.1339 52.6007 35.7565 53.1486L38.0109 55.1276C38.6271 55.6662 39.5849 55.6062 40.1276 54.9899Z" fill="url(#paint8_linear_2515_152)"/>
<path d="M57.6441 58.7577C57.7731 59.5701 58.5988 60.1244 59.3616 60.0028C59.3702 60.0014 61.5838 59.6483 61.5838 59.6483C62.4019 59.5179 62.9593 58.7489 62.8282 57.9315C62.6978 57.1126 61.931 56.5501 61.1107 56.6864L58.8885 57.0409C58.0704 57.1712 57.513 57.9403 57.6441 58.7577Z" fill="url(#paint9_linear_2515_152)"/>
<defs>
<linearGradient id="paint0_linear_2515_152" x1="40.5" y1="28.5" x2="55.5" y2="28.5" gradientUnits="userSpaceOnUse">
<stop stop-color="#0D1B73"/>
<stop offset="1" stop-color="#6A0DAD"/>
</linearGradient>
<linearGradient id="paint1_linear_2515_152" x1="45" y1="40.5" x2="51" y2="40.5" gradientUnits="userSpaceOnUse">
<stop stop-color="#0D1B73"/>
<stop offset="1" stop-color="#6A0DAD"/>
</linearGradient>
<linearGradient id="paint2_linear_2515_152" x1="28.5" y1="39.0824" x2="67.5" y2="39.0824" gradientUnits="userSpaceOnUse">
<stop stop-color="#0D1B73"/>
<stop offset="1" stop-color="#6A0DAD"/>
</linearGradient>
<linearGradient id="paint3_linear_2515_152" x1="49.5" y1="67.4415" x2="80.5809" y2="67.4415" gradientUnits="userSpaceOnUse">
<stop stop-color="#0D1B73"/>
<stop offset="1" stop-color="#6A0DAD"/>
</linearGradient>
<linearGradient id="paint4_linear_2515_152" x1="10.5" y1="79.5" x2="85.5" y2="79.5" gradientUnits="userSpaceOnUse">
<stop stop-color="#0D1B73"/>
<stop offset="1" stop-color="#6A0DAD"/>
</linearGradient>
<linearGradient id="paint5_linear_2515_152" x1="15.4189" y1="67.4415" x2="46.4998" y2="67.4415" gradientUnits="userSpaceOnUse">
<stop stop-color="#0D1B73"/>
<stop offset="1" stop-color="#6A0DAD"/>
</linearGradient>
<linearGradient id="paint6_linear_2515_152" x1="55.5" y1="53.0082" x2="60.7542" y2="53.0082" gradientUnits="userSpaceOnUse">
<stop stop-color="#0D1B73"/>
<stop offset="1" stop-color="#6A0DAD"/>
</linearGradient>
<linearGradient id="paint7_linear_2515_152" x1="33.1523" y1="58.3428" x2="38.3747" y2="58.3428" gradientUnits="userSpaceOnUse">
<stop stop-color="#0D1B73"/>
<stop offset="1" stop-color="#6A0DAD"/>
</linearGradient>
<linearGradient id="paint8_linear_2515_152" x1="35.2461" y1="53.0082" x2="40.5003" y2="53.0082" gradientUnits="userSpaceOnUse">
<stop stop-color="#0D1B73"/>
<stop offset="1" stop-color="#6A0DAD"/>
</linearGradient>
<linearGradient id="paint9_linear_2515_152" x1="57.625" y1="58.3428" x2="62.8473" y2="58.3428" gradientUnits="userSpaceOnUse">
<stop stop-color="#0D1B73"/>
<stop offset="1" stop-color="#6A0DAD"/>
</linearGradient>
</defs>
</svg>
