<svg width="89" height="89" viewBox="0 0 89 89" fill="none" xmlns="http://www.w3.org/2000/svg">
<path fill-rule="evenodd" clip-rule="evenodd" d="M53.1905 68.7346L57.0941 64.831C55.0399 62.1062 53.822 58.7155 53.822 55.0403C53.822 46.0497 61.1113 38.7604 70.1019 38.7604C79.0926 38.7604 86.3819 46.0497 86.3819 55.0403C86.3819 64.031 79.0926 71.3203 70.1019 71.3203C66.4269 71.3203 63.0361 70.1024 60.3114 68.0482L56.4074 71.9522C56.869 72.7506 56.7589 73.794 56.0774 74.4756L44.7807 85.7723C43.9708 86.585 42.6405 86.585 41.8278 85.7723L39.37 83.3145C38.5571 82.5017 38.5571 81.1743 39.37 80.3616L50.6667 69.0649C51.348 68.3835 52.3931 68.2734 53.1905 68.7346ZM70.1019 66.9642C76.6685 66.9642 82.0258 61.6097 82.0258 55.0403C82.0258 48.4738 76.6685 43.1165 70.1019 43.1165C63.5326 43.1165 58.1781 48.4738 58.1781 55.0403C58.1781 61.6097 63.5326 66.9642 70.1019 66.9642ZM53.2294 63.1662C50.4133 63.4435 47.4929 63.5895 44.4995 63.5895C21.384 63.5895 2.61719 54.8844 2.61719 44.1624C2.61719 38.273 8.27916 32.9922 17.2137 29.4283V44.3118C17.2137 46.0776 18.4581 48.0576 21.3152 49.5251C25.6637 51.7583 34.4103 53.3723 44.4995 53.3723C46.9165 53.3723 49.2565 53.2796 51.4773 53.1081C51.4122 53.7433 51.3789 54.388 51.3789 55.0403C51.3789 57.952 52.0436 60.7084 53.2294 63.1662ZM51.9014 50.6299C49.5631 50.8243 47.0769 50.9292 44.4995 50.9292C30.7885 50.9292 19.6568 47.9641 19.6568 44.3118V39.8679C30.8019 43.6432 43.6731 44.6756 55.7729 42.989C53.9384 45.1677 52.5917 47.7709 51.9014 50.6299ZM58.9486 40.0007C45.9584 42.4412 31.7099 41.5465 19.6568 37.2829V27.4599C19.6568 13.7396 30.7792 2.61719 44.4995 2.61719C58.2199 2.61719 69.3422 13.7396 69.3422 27.4599V36.3323C65.4559 36.4874 61.8743 37.8273 58.9486 40.0007ZM55.7991 26.6894C56.9156 26.6894 57.8148 25.7867 57.8148 24.6737V22.2553C57.8148 21.1423 56.9156 20.2395 55.7991 20.2395C54.5045 20.2395 53.8547 18.671 54.7701 17.7554C55.557 16.9685 55.557 15.692 54.7701 14.9051L53.0603 13.1939C52.274 12.4075 50.995 12.4075 50.2086 13.1939C49.293 14.1095 47.7245 13.4604 47.7245 12.1651C47.7245 11.0521 46.8217 10.1494 45.7087 10.1494H43.2904C42.1773 10.1494 41.2746 11.0521 41.2746 12.1651C41.2746 13.4604 39.7061 14.1095 38.7905 13.1939C38.0036 12.407 36.727 12.407 35.9402 13.1939L34.2289 14.9051C33.4421 15.692 33.4421 16.9685 34.2289 17.7554C35.1444 18.671 34.4954 20.2395 33.2 20.2395C32.087 20.2395 31.1843 21.1423 31.1843 22.2553V24.6737C31.1843 25.7867 32.087 26.6894 33.2 26.6894C34.4954 26.6894 35.1444 28.2581 34.2289 29.1736C33.4426 29.9599 33.4426 31.2389 34.2289 32.0252L35.9405 33.7354C36.727 34.5219 38.0036 34.5219 38.7905 33.7351C39.7068 32.8187 41.2746 33.4679 41.2746 34.764C41.2746 35.8805 42.1773 36.7797 43.2904 36.7797H45.7087C46.8217 36.7797 47.7245 35.8805 47.7245 34.764C47.7245 33.4695 49.293 32.8196 50.2086 33.7351C50.995 34.5214 52.274 34.5214 53.0603 33.7351L54.7701 32.0252C55.5565 31.2389 55.5565 29.9599 54.7701 29.1736C53.8547 28.2581 54.5045 26.6894 55.7991 26.6894ZM33.6274 22.661C36.6691 22.3476 38.1718 18.7175 36.2435 16.3457L37.3808 15.2084C39.7525 17.1368 43.3827 15.634 43.6961 12.5925H45.303C45.6164 15.6344 49.2473 17.1369 51.619 15.2079L52.7556 16.3455C50.8274 18.7173 52.3317 22.3474 55.3717 22.6609V24.2681C52.3314 24.5817 50.8273 28.2124 52.7561 30.5841L51.6192 31.7211C49.2474 29.7922 45.6166 31.2963 45.3032 34.3366H43.6961C43.383 31.2928 39.7541 29.7901 37.3806 31.7205L36.243 30.584C38.172 28.2122 36.6695 24.5813 33.6274 24.2681V22.661ZM44.5002 29.276C47.6999 29.276 50.3111 26.6648 50.3111 23.4652C50.3111 20.2641 47.6999 17.6543 44.5002 17.6543C41.2992 17.6543 38.6894 20.2641 38.6894 23.4652C38.6894 26.6648 41.2992 29.276 44.5002 29.276ZM71.7854 36.392V29.4283C80.7199 32.9922 86.3819 38.273 86.3819 44.1624C86.3819 44.6433 86.3442 45.1204 86.2699 45.5928C83.2878 40.5006 77.9689 36.9431 71.7854 36.392Z" fill="url(#paint0_linear_2515_149)"/>
<defs>
<linearGradient id="paint0_linear_2515_149" x1="2.61719" y1="44.4994" x2="86.3819" y2="44.4994" gradientUnits="userSpaceOnUse">
<stop stop-color="#0D1B73"/>
<stop offset="1" stop-color="#6A0DAD"/>
</linearGradient>
</defs>
</svg>
