<svg width="95" height="95" viewBox="0 0 95 95" fill="none" xmlns="http://www.w3.org/2000/svg">
<path d="M39.5837 44.3229H42.7503C43.5902 44.3229 44.3956 43.9893 44.9895 43.3954C45.5834 42.8016 45.917 41.9961 45.917 41.1562H36.417C36.417 41.9961 36.7506 42.8016 37.3445 43.3954C37.9384 43.9893 38.7438 44.3229 39.5837 44.3229Z" fill="url(#paint0_linear_2515_171)"/>
<path d="M7.91704 68.0746H41.167C41.1554 63.7177 42.2044 59.4234 44.2234 55.5626C46.2424 51.7017 49.1708 48.3903 52.7558 45.9142C56.3407 43.4381 60.4744 41.8718 64.8 41.3504C69.1256 40.8291 73.5131 41.3684 77.5837 42.9218V35.4199C77.4491 35.4548 77.324 35.507 77.1863 35.5323L49.0837 40.8856V41.1579C49.0837 42.8376 48.4164 44.4485 47.2287 45.6363C46.041 46.824 44.4301 47.4913 42.7504 47.4913H39.5837C37.904 47.4913 36.2931 46.824 35.1054 45.6363C33.9176 44.4485 33.2504 42.8376 33.2504 41.1579V40.8856L5.14937 35.5323C5.01162 35.507 4.88495 35.4548 4.75195 35.4199V64.9079C4.75195 65.7475 5.08537 66.5527 5.67889 67.1465C6.27241 67.7404 7.07746 68.0742 7.91704 68.0746Z" fill="url(#paint1_linear_2515_171)"/>
<path d="M58.5833 12.6563V7.90625C58.5833 6.64647 58.0829 5.43829 57.1921 4.54749C56.3013 3.6567 55.0931 3.15625 53.8333 3.15625H28.5C27.2402 3.15625 26.032 3.6567 25.1412 4.54749C24.2504 5.43829 23.75 6.64647 23.75 7.90625V12.6563H26.9167V9.48958C26.9167 8.64973 27.2503 7.84428 27.8442 7.25041C28.438 6.65655 29.2435 6.32292 30.0833 6.32292H52.25C53.0899 6.32292 53.8953 6.65655 54.4892 7.25041C55.083 7.84428 55.4167 8.64973 55.4167 9.48958V12.6563H58.5833Z" fill="url(#paint2_linear_2515_171)"/>
<path d="M68.0837 71.2405C67.7483 71.2383 67.4151 71.1849 67.0957 71.0822L60.1671 68.875V75.05C60.1637 75.374 60.2623 75.6909 60.449 75.9558C60.6357 76.2206 60.901 76.42 61.2073 76.5257C65.6696 77.9538 70.4658 77.9571 74.9301 76.5352C75.2428 76.4329 75.5149 76.2339 75.7073 75.967C75.8997 75.7001 76.0023 75.379 76.0004 75.05V68.875L69.0749 71.0917C68.7541 71.1918 68.4198 71.242 68.0837 71.2405Z" fill="url(#paint3_linear_2515_171)"/>
<path d="M68.083 44.3242C63.3857 44.3242 58.7939 45.7171 54.8882 48.3268C50.9826 50.9365 47.9385 54.6457 46.1409 58.9855C44.3433 63.3252 43.873 68.1006 44.7894 72.7076C45.7058 77.3147 47.9677 81.5465 51.2892 84.868C54.6107 88.1895 58.8426 90.4515 63.4496 91.3679C68.0567 92.2843 72.832 91.8139 77.1717 90.0164C81.5115 88.2188 85.2207 85.1747 87.8304 81.269C90.4401 77.3633 91.833 72.7715 91.833 68.0742C91.8263 61.7774 89.3219 55.7404 84.8694 51.2878C80.4169 46.8353 74.3799 44.3309 68.083 44.3242ZM86.4497 65.5409L85.4997 65.8449V75.9988C85.4997 76.4187 85.3329 76.8215 85.0359 77.1184C84.739 77.4153 84.3363 77.5821 83.9164 77.5821C83.4964 77.5821 83.0937 77.4153 82.7968 77.1184C82.4998 76.8215 82.333 76.4187 82.333 75.9988V66.8487L79.1664 67.8605V75.0504C79.1701 76.0387 78.8627 77.0031 78.2878 77.807C77.7129 78.611 76.8997 79.2136 75.9633 79.5296C70.8289 81.1817 65.3051 81.1783 60.1727 79.5201C59.2425 79.201 58.4359 78.5979 57.8667 77.796C57.2974 76.9941 56.9942 76.0338 56.9997 75.0504V67.8605L49.7164 65.533C49.0747 65.3357 48.5133 64.938 48.1144 64.3981C47.7156 63.8582 47.5003 63.2046 47.5003 62.5333C47.5003 61.8621 47.7156 61.2085 48.1144 60.6686C48.5133 60.1287 49.0747 59.731 49.7164 59.5337L67.0934 53.9794C67.7371 53.7736 68.4289 53.7736 69.0726 53.9794L86.4497 59.5337C87.0913 59.731 87.6528 60.1287 88.0516 60.6686C88.4505 61.2085 88.6657 61.8621 88.6657 62.5333C88.6657 63.2046 88.4505 63.8582 88.0516 64.3981C87.6528 64.938 87.0913 65.3357 86.4497 65.533V65.5409Z" fill="url(#paint4_linear_2515_171)"/>
<path d="M50.6826 62.5417L68.0581 68.0643L76.6604 65.3236L67.865 64.0933C67.4571 64.026 67.0918 63.8019 66.847 63.4689C66.6022 63.1359 66.4973 62.7203 66.5548 62.311C66.6123 61.9017 66.8275 61.5311 67.1546 61.2783C67.4816 61.0256 67.8945 60.9107 68.3051 60.9583L83.6365 63.1006L85.4875 62.51C85.4996 62.5067 85.5113 62.5019 85.5223 62.4958L68.1104 57L50.6826 62.5417Z" fill="url(#paint5_linear_2515_171)"/>
<path d="M5.74308 32.4223L34.992 37.9909H47.3578L76.6004 32.4223C77.3231 32.2828 77.9747 31.8959 78.4431 31.3281C78.9115 30.7603 79.1675 30.0471 79.167 29.3111V18.9909C79.167 18.151 78.8334 17.3456 78.2395 16.7517C77.6456 16.1578 76.8402 15.8242 76.0003 15.8242H6.33366C5.49381 15.8242 4.68835 16.1578 4.09449 16.7517C3.50062 17.3456 3.16699 18.151 3.16699 18.9909V29.3111C3.16696 30.0485 3.42428 30.7628 3.89456 31.3307C4.36484 31.8987 5.01861 32.2848 5.74308 32.4223Z" fill="url(#paint6_linear_2515_171)"/>
<defs>
<linearGradient id="paint0_linear_2515_171" x1="41.167" y1="41.1562" x2="41.167" y2="44.3229" gradientUnits="userSpaceOnUse">
<stop stop-color="#0D1B73"/>
<stop offset="1" stop-color="#6A0DAD"/>
</linearGradient>
<linearGradient id="paint1_linear_2515_171" x1="41.1678" y1="35.4199" x2="41.1678" y2="68.0746" gradientUnits="userSpaceOnUse">
<stop stop-color="#0D1B73"/>
<stop offset="1" stop-color="#6A0DAD"/>
</linearGradient>
<linearGradient id="paint2_linear_2515_171" x1="41.1667" y1="3.15625" x2="41.1667" y2="12.6563" gradientUnits="userSpaceOnUse">
<stop stop-color="#0D1B73"/>
<stop offset="1" stop-color="#6A0DAD"/>
</linearGradient>
<linearGradient id="paint3_linear_2515_171" x1="68.0837" y1="68.875" x2="68.0837" y2="77.5992" gradientUnits="userSpaceOnUse">
<stop stop-color="#0D1B73"/>
<stop offset="1" stop-color="#6A0DAD"/>
</linearGradient>
<linearGradient id="paint4_linear_2515_171" x1="68.083" y1="44.3242" x2="68.083" y2="91.8242" gradientUnits="userSpaceOnUse">
<stop stop-color="#0D1B73"/>
<stop offset="1" stop-color="#6A0DAD"/>
</linearGradient>
<linearGradient id="paint5_linear_2515_171" x1="68.1025" y1="57" x2="68.1025" y2="68.0643" gradientUnits="userSpaceOnUse">
<stop stop-color="#0D1B73"/>
<stop offset="1" stop-color="#6A0DAD"/>
</linearGradient>
<linearGradient id="paint6_linear_2515_171" x1="41.167" y1="15.8242" x2="41.167" y2="37.9909" gradientUnits="userSpaceOnUse">
<stop stop-color="#0D1B73"/>
<stop offset="1" stop-color="#6A0DAD"/>
</linearGradient>
</defs>
</svg>
