<svg width="64" height="64" viewBox="0 0 64 64" fill="none" xmlns="http://www.w3.org/2000/svg">
<path d="M49 15H15C14.45 15 14 15.45 14 16V54C14 54.55 14.45 55 15 55H49C49.55 55 50 54.55 50 54V16C50 15.45 49.55 15 49 15ZM48 23H41C40.45 23 40 22.55 40 22C40 21.45 40.45 21 41 21H48V23ZM48 27H45C44.45 27 44 26.55 44 26C44 25.45 44.45 25 45 25H48V27ZM32 22H28C27.45 22 27 21.55 27 21C27 20.45 27.45 20 28 20H32C32.55 20 33 20.45 33 21C33 21.55 32.55 22 32 22ZM27 35V33C27 30.24 29.24 28 32 28C34.76 28 37 30.24 37 33V35C37 37.76 34.76 40 32 40C29.24 40 27 37.76 27 35ZM25 25C25 25.55 24.55 26 24 26H16V24H24C24.55 24 25 24.45 25 25ZM16 36H21C21.55 36 22 36.45 22 37C22 37.55 21.55 38 21 38H16V36ZM32 42C34.01 42 35.88 42.54 37.5 43.48C36.52 45.37 34.84 47.58 32 48.91C29.16 47.58 27.48 45.37 26.5 43.48C28.12 42.54 29.99 42 32 42ZM42 36C42 35.45 42.45 35 43 35H48V37H43C42.45 37 42 36.55 42 36ZM20 20C20.55 20 21 20.45 21 21C21 21.55 20.55 22 20 22H16V20H20ZM21 53C21 49.66 22.5 46.66 24.85 44.64C26.05 46.87 28.13 49.45 31.61 50.92C31.74 50.97 31.87 51 32 51C32.13 51 32.26 50.97 32.39 50.92C35.87 49.45 37.95 46.87 39.15 44.64C41.5 46.66 43 49.66 43 53H21ZM46 41C45.45 41 45 40.55 45 40C45 39.45 45.45 39 46 39H48V41H46Z" fill="#6A0DAD"/>
<path d="M54 54.13V15.87C55.72 15.43 57 13.86 57 12C57 9.79 55.21 8 53 8C51.14 8 49.57 9.28 49.13 11H45.31L32.57 2.18C32.23 1.94 31.77 1.94 31.43 2.18L18.69 11H14.87C14.43 9.28 12.86 8 11 8C8.79 8 7 9.79 7 12C7 13.86 8.28 15.43 10 15.87V54.13C8.28 54.57 7 56.14 7 58C7 60.21 8.79 62 11 62C12.86 62 14.43 60.72 14.87 59H49.13C49.57 60.72 51.14 62 53 62C55.21 62 57 60.21 57 58C57 56.14 55.72 54.57 54 54.13ZM32 4.22L41.8 11H22.2L32 4.22ZM53 60C51.9 60 51 59.1 51 58C51 57.45 50.55 57 50 57H14C13.45 57 13 57.45 13 58C13 59.1 12.1 60 11 60C9.9 60 9 59.1 9 58C9 56.9 9.9 56 11 56C11.55 56 12 55.55 12 55V15C12 14.45 11.55 14 11 14C9.9 14 9 13.1 9 12C9 10.9 9.9 10 11 10C12.1 10 13 10.9 13 12C13 12.55 13.45 13 14 13H50C50.55 13 51 12.55 51 12C51 10.9 51.9 10 53 10C54.1 10 55 10.9 55 12C55 13.1 54.1 14 53 14C52.45 14 52 14.45 52 15V55C52 55.55 52.45 56 53 56C54.1 56 55 56.9 55 58C55 59.1 54.1 60 53 60Z" fill="#6A0DAD"/>
</svg>
