<svg width="90" height="90" viewBox="0 0 90 90" fill="none" xmlns="http://www.w3.org/2000/svg">
<path d="M31.4996 5.625H29.0527L39.7262 25.7766C40.4715 25.6359 41.2309 25.5375 42.0043 25.4531L31.4996 5.625Z" fill="url(#paint0_linear_2616_155)"/>
<path d="M64.4637 57.2344L61.8214 66.4847C61.7551 66.7142 61.6317 66.9232 61.4628 67.0922L57.2441 71.311C56.9797 71.5731 56.6222 71.7198 56.2498 71.7188C56.0483 71.7188 55.8491 71.6755 55.6657 71.5918C55.4823 71.5081 55.3191 71.386 55.1871 71.2337C55.0551 71.0814 54.9573 70.9025 54.9005 70.7091C54.8436 70.5157 54.829 70.3124 54.8577 70.1128L56.1233 61.2731L51.4025 58.9219C51.221 58.8312 51.0613 58.7022 50.9344 58.544C50.8074 58.3857 50.7162 58.2019 50.667 58.005L49.2608 52.38C49.2046 52.1557 49.2046 51.9209 49.2608 51.6966L50.667 46.0716C50.7244 45.8421 50.8388 45.6308 50.9996 45.4573C51.1603 45.2837 51.3623 45.1535 51.5867 45.0788L54.8436 43.9861V42.7697L52.4431 40.3692C52.2312 40.1574 52.0925 39.8834 52.0472 39.5872C52.0019 39.2909 52.0524 38.988 52.1914 38.7225L53.1927 36.8128C49.3238 35.1769 45.053 34.7399 40.933 35.5585L43.2856 38.4961C43.4851 38.7456 43.5937 39.0556 43.5936 39.375V42.1875C43.5935 42.5202 43.4755 42.842 43.2605 43.0959C43.0455 43.3498 42.7475 43.5192 42.4194 43.5741L35.1561 44.7849V47.8125C35.1561 48.035 35.1034 48.2543 35.0023 48.4524C34.9011 48.6505 34.7544 48.8218 34.5742 48.9522C34.3939 49.0826 34.1854 49.1683 33.9655 49.2025C33.7457 49.2366 33.521 49.2181 33.3097 49.1485L30.4114 48.1936L29.6914 50.3691L33.1466 54.976L39.6505 56.2781C39.7729 56.3022 39.8916 56.3423 40.0034 56.3977L45.6284 59.2102C45.8128 59.3022 45.9747 59.4337 46.1026 59.5953C46.2306 59.7568 46.3215 59.9446 46.3688 60.1451C46.4162 60.3457 46.4189 60.5542 46.3767 60.756C46.3346 60.9577 46.2486 61.1477 46.1248 61.3125L42.1142 66.6858L40.8261 71.7188L42.1873 77.1328C45.1568 77.5586 48.183 77.3413 51.0611 76.4955C53.9392 75.6497 56.6019 74.1953 58.8689 72.2308C61.1359 70.2662 62.9542 67.8374 64.2007 65.1089C65.4472 62.3803 66.0927 59.4157 66.0936 56.416L64.4637 57.2344Z" fill="url(#paint1_linear_2616_155)"/>
<path d="M38.9139 58.997L32.0626 57.6273C31.7255 57.5585 31.4253 57.3683 31.2189 57.093L27.0001 51.468C26.8642 51.2865 26.7741 51.0748 26.7376 50.851C26.7011 50.6272 26.7193 50.3979 26.7906 50.1827L28.1828 45.9766C28.3001 45.624 28.5521 45.3322 28.8838 45.1649C29.2156 44.9976 29.6 44.9684 29.9532 45.0836L32.3439 45.8683V43.593C32.344 43.2603 32.462 42.9384 32.677 42.6846C32.892 42.4307 33.19 42.2613 33.5181 42.2064L40.7814 40.9956V39.8706L37.9886 36.3789C34.2197 37.711 30.9061 40.085 28.4326 43.2252C25.959 46.3653 24.4271 50.1427 24.0146 54.1187L27.062 54.8852C27.4226 54.976 27.7326 55.2061 27.924 55.525L32.1428 62.5562C32.2648 62.759 32.3337 62.9893 32.343 63.2258C32.3524 63.4623 32.3019 63.6973 32.1962 63.9091L31.2428 65.8117L36.1506 70.7195C36.3702 70.9388 36.5111 71.2246 36.5514 71.5323L37.1068 75.7919C37.7657 76.0602 38.4379 76.2949 39.1206 76.495L38.0111 72.0625C37.9541 71.8359 37.9541 71.5987 38.0111 71.372L39.4595 65.7189C39.5043 65.5406 39.5846 65.3732 39.6957 65.2267L42.8668 60.977L38.9139 58.997Z" fill="url(#paint2_linear_2616_155)"/>
<path d="M28.537 67.0876C28.3282 66.879 28.1903 66.6101 28.1429 66.3188C28.0954 66.0276 28.1408 65.7288 28.2726 65.4648L29.3343 63.3427L25.8187 57.4716L23.9512 57.002C24.0774 60.4915 25.0687 63.895 26.836 66.9066C28.6033 69.9181 31.0912 72.4433 34.0762 74.2552L33.8301 72.3751L28.537 67.0876Z" fill="url(#paint3_linear_2616_155)"/>
<path d="M57.6566 42.1876V45.0001C57.6567 45.2953 57.5638 45.5831 57.3912 45.8227C57.2185 46.0622 56.9749 46.2413 56.6947 46.3346L53.2086 47.4962L52.0752 52.0313L53.2382 56.6874L58.2852 59.2102C58.5495 59.3423 58.7656 59.5542 58.9027 59.816C59.0397 60.0777 59.0909 60.376 59.0488 60.6685L58.2388 66.3343L59.2232 65.3499L61.9358 55.8563C61.9895 55.6691 62.0814 55.495 62.2058 55.3452C62.3302 55.1953 62.4844 55.073 62.6586 54.9859L65.8818 53.3687C65.442 50.2202 64.2968 47.2118 62.5317 44.5679C60.7666 41.924 58.4271 39.7129 55.6879 38.0996L55.1577 39.1121L57.2375 41.1934C57.3694 41.3233 57.4743 41.4781 57.5462 41.6487C57.6181 41.8193 57.6556 42.0024 57.6566 42.1876Z" fill="url(#paint4_linear_2616_155)"/>
<path d="M45 28.125C39.4374 28.125 33.9997 29.7745 29.3746 32.8649C24.7495 35.9553 21.1446 40.3479 19.0159 45.487C16.8872 50.6262 16.3302 56.2812 17.4154 61.7369C18.5006 67.1926 21.1793 72.204 25.1126 76.1374C29.046 80.0707 34.0574 82.7494 39.5131 83.8346C44.9688 84.9198 50.6238 84.3628 55.763 82.2341C60.9022 80.1054 65.2947 76.5005 68.3851 71.8754C71.4755 67.2503 73.125 61.8126 73.125 56.25C73.1176 48.7931 70.152 41.6437 64.8792 36.3708C59.6063 31.098 52.4569 28.1324 45 28.125ZM45 80.1562C40.2718 80.1562 35.6498 78.7542 31.7184 76.1273C27.787 73.5005 24.7229 69.7668 22.9135 65.3985C21.1041 61.0302 20.6307 56.2235 21.5531 51.5861C22.4755 46.9488 24.7524 42.6891 28.0957 39.3457C31.4391 36.0024 35.6988 33.7255 40.3361 32.8031C44.9735 31.8807 49.7802 32.3541 54.1485 34.1635C58.5168 35.9729 62.2505 39.037 64.8773 42.9684C67.5042 46.8998 68.9063 51.5218 68.9063 56.25C68.8992 62.5882 66.3782 68.6647 61.8965 73.1465C57.4147 77.6282 51.3382 80.1492 45 80.1562Z" fill="url(#paint5_linear_2616_155)"/>
<path d="M64.1393 31.9641L77.8361 5.625H64.1252L53.1143 26.3953C57.1252 27.4944 60.8744 29.3881 64.1393 31.9641Z" fill="url(#paint6_linear_2616_155)"/>
<path d="M36.8859 26.3953L25.875 5.625H12.1641L25.8609 31.9781C29.1217 29.3925 32.872 27.4935 36.8859 26.3953Z" fill="url(#paint7_linear_2616_155)"/>
<path d="M47.9951 25.4531C48.7686 25.5375 49.5139 25.6359 50.2732 25.7766L60.9467 5.625H58.4998L47.9951 25.4531Z" fill="url(#paint8_linear_2616_155)"/>
<path d="M83.4605 5.625H81.0137L66.3184 33.8625C66.8809 34.3969 67.4152 34.9312 67.9215 35.5078L83.4605 5.625Z" fill="url(#paint9_linear_2616_155)"/>
<path d="M6.53906 5.625L22.0781 35.5078C22.5844 34.9312 23.1187 34.3969 23.6812 33.8625L8.98594 5.625H6.53906Z" fill="url(#paint10_linear_2616_155)"/>
<defs>
<linearGradient id="paint0_linear_2616_155" x1="35.5285" y1="5.625" x2="35.5285" y2="25.7766" gradientUnits="userSpaceOnUse">
<stop stop-color="#0D1B73"/>
<stop offset="1" stop-color="#6A0DAD"/>
</linearGradient>
<linearGradient id="paint1_linear_2616_155" x1="47.8925" y1="35.1562" x2="47.8925" y2="77.3448" gradientUnits="userSpaceOnUse">
<stop stop-color="#0D1B73"/>
<stop offset="1" stop-color="#6A0DAD"/>
</linearGradient>
<linearGradient id="paint2_linear_2616_155" x1="33.4407" y1="36.3789" x2="33.4407" y2="76.495" gradientUnits="userSpaceOnUse">
<stop stop-color="#0D1B73"/>
<stop offset="1" stop-color="#6A0DAD"/>
</linearGradient>
<linearGradient id="paint3_linear_2616_155" x1="29.0137" y1="57.002" x2="29.0137" y2="74.2552" gradientUnits="userSpaceOnUse">
<stop stop-color="#0D1B73"/>
<stop offset="1" stop-color="#6A0DAD"/>
</linearGradient>
<linearGradient id="paint4_linear_2616_155" x1="58.9785" y1="38.0996" x2="58.9785" y2="66.3343" gradientUnits="userSpaceOnUse">
<stop stop-color="#0D1B73"/>
<stop offset="1" stop-color="#6A0DAD"/>
</linearGradient>
<linearGradient id="paint5_linear_2616_155" x1="45" y1="28.125" x2="45" y2="84.375" gradientUnits="userSpaceOnUse">
<stop stop-color="#0D1B73"/>
<stop offset="1" stop-color="#6A0DAD"/>
</linearGradient>
<linearGradient id="paint6_linear_2616_155" x1="65.4752" y1="5.625" x2="65.4752" y2="31.9641" gradientUnits="userSpaceOnUse">
<stop stop-color="#0D1B73"/>
<stop offset="1" stop-color="#6A0DAD"/>
</linearGradient>
<linearGradient id="paint7_linear_2616_155" x1="24.525" y1="5.625" x2="24.525" y2="31.9781" gradientUnits="userSpaceOnUse">
<stop stop-color="#0D1B73"/>
<stop offset="1" stop-color="#6A0DAD"/>
</linearGradient>
<linearGradient id="paint8_linear_2616_155" x1="54.4709" y1="5.625" x2="54.4709" y2="25.7766" gradientUnits="userSpaceOnUse">
<stop stop-color="#0D1B73"/>
<stop offset="1" stop-color="#6A0DAD"/>
</linearGradient>
<linearGradient id="paint9_linear_2616_155" x1="74.8895" y1="5.625" x2="74.8895" y2="35.5078" gradientUnits="userSpaceOnUse">
<stop stop-color="#0D1B73"/>
<stop offset="1" stop-color="#6A0DAD"/>
</linearGradient>
<linearGradient id="paint10_linear_2616_155" x1="15.1102" y1="5.625" x2="15.1102" y2="35.5078" gradientUnits="userSpaceOnUse">
<stop stop-color="#0D1B73"/>
<stop offset="1" stop-color="#6A0DAD"/>
</linearGradient>
</defs>
</svg>
