<svg width="56" height="56" viewBox="0 0 56 56" fill="none" xmlns="http://www.w3.org/2000/svg">
<path d="M12.048 1.86719L2.54492 11.3702H12.048V1.86719Z" fill="#6A0DAD"/>
<path d="M11.7086 35.2148L8.82379 42.2573C8.56924 42.9361 8.90864 43.6148 9.50258 43.8694C10.1814 44.1239 10.8602 43.7845 11.1147 43.1906L13.9995 36.1482C13.0662 35.9785 12.4723 35.7239 11.7086 35.2148Z" fill="#6A0DAD"/>
<path d="M19.7694 19.0062C15.6967 17.3092 10.8603 19.091 8.99367 23.4183C6.78761 28.8486 10.6906 34.788 16.5452 34.788C19.8543 34.788 22.9088 32.7516 24.1815 29.6971C25.9634 25.6244 23.927 20.788 19.7694 19.0062ZM21.8906 28.8486C21.7209 29.2729 21.2967 29.5274 20.7876 29.2729C20.3634 29.1032 20.1088 28.5941 20.3634 28.1698C21.4664 25.5395 19.5149 22.6547 16.63 22.6547C16.1209 22.6547 15.7815 22.3153 15.7815 21.8062C15.7815 21.3819 16.1209 20.9577 16.63 20.9577C20.7028 20.8729 23.5028 25.0304 21.8906 28.8486Z" fill="#6A0DAD"/>
<path d="M30.5453 41.0685C29.2726 38.9473 28.9332 36.6563 28.7635 35.6382C28.2544 34.2806 26.812 30.0382 28.8484 26.22C31.0544 22.1473 37.3332 20.1957 41.4908 21.4685V3.90483C41.4908 2.54725 40.3878 1.35938 38.9453 1.35938H13.7453V12.22C13.7453 12.6442 13.4059 13.0685 12.8969 13.0685H2.12109V49.0442C2.12109 50.4018 3.22412 51.5897 4.66655 51.5897H20.6181L20.9575 49.4685C21.3817 45.3957 25.6241 43.8685 29.1878 43.1897L30.5453 41.0685ZM19.1756 6.28059H34.3635C34.8726 6.28059 35.212 6.70483 35.212 7.12907C35.212 7.55331 34.8726 7.97756 34.3635 7.97756H19.1756C18.7514 7.97756 18.3272 7.55331 18.3272 7.12907C18.3272 6.70483 18.7514 6.28059 19.1756 6.28059ZM19.1756 11.3715H34.3635C34.8726 11.3715 35.212 11.7109 35.212 12.22C35.212 12.6442 34.8726 13.0685 34.3635 13.0685H19.1756C18.7514 13.0685 18.3272 12.6442 18.3272 12.22C18.3272 11.7109 18.7514 11.3715 19.1756 11.3715ZM25.7938 30.4624C24.2665 34.1957 20.6181 36.5715 16.6302 36.5715C16.2908 36.5715 16.0362 36.5715 15.7817 36.5715L12.7272 43.8685C12.1332 45.3957 10.3514 46.0745 8.82412 45.4806C7.29685 44.8867 6.61806 43.1048 7.212 41.6624L10.2665 34.3654C6.95746 31.5654 5.76958 26.9836 7.46655 22.9109C9.58776 17.82 15.3575 15.4442 20.4484 17.5654C25.4544 19.6018 27.915 25.3715 25.7938 30.4624Z" fill="#6A0DAD"/>
<path d="M30.7997 30.7154C32.6663 26.2184 36.5694 26.0487 38.8603 28.1699C41.9997 30.9699 43.6966 27.4063 45.9027 30.5457C45.3088 20.873 30.4603 22.3154 30.7997 30.7154Z" fill="#6A0DAD"/>
<path d="M45.4789 34.7897C45.394 33.4321 44.7152 30.8018 43.3576 30.8867C41.7455 31.3957 39.5395 31.0563 37.6728 29.4442C35.3819 27.323 31.9879 29.1897 31.7334 34.62V34.7048C32.4122 44.9715 44.7152 45.1412 45.4789 34.7897Z" fill="#6A0DAD"/>
<path d="M34.6178 43.2734L34.3633 45.3946C36.9087 48.2795 39.9633 48.2795 42.5936 45.3946L42.339 43.4431C40.0481 44.5462 36.8239 44.5462 34.6178 43.2734Z" fill="#6A0DAD"/>
<path d="M53.2849 50.403C53.0304 47.3485 46.7516 46.5848 43.8668 46.5C40.5577 50.2333 36.3152 50.2333 33.0062 46.5C30.1213 46.5848 23.9274 47.2636 23.588 50.3182L22.9092 54.6455H53.8789L53.2849 50.403Z" fill="#6A0DAD"/>
</svg>
