<svg width="56" height="56" viewBox="0 0 56 56" fill="none" xmlns="http://www.w3.org/2000/svg">
<path fill-rule="evenodd" clip-rule="evenodd" d="M16.422 1.55961C16.2775 1.51915 16.1206 1.51532 15.965 1.55622L2.24992 5.1994C1.95045 5.27399 1.69987 5.50521 1.61587 5.82469C1.49316 6.29096 1.77173 6.76838 2.23789 6.8911L15.9524 10.5341C16.0969 10.5745 16.2538 10.5783 16.4094 10.5374L28.7227 7.26669V13.8607L27.7341 14.3633V19.1642C27.7341 19.2516 27.8309 19.3036 27.9038 19.2554L29.5978 18.134L31.2917 19.2554C31.3646 19.3036 31.4615 19.2516 31.4615 19.1642V14.3633L30.4728 13.8607V6.71796C30.6079 6.60574 30.7106 6.45185 30.7586 6.26908C30.8813 5.80282 30.6028 5.3254 30.1366 5.20268L16.422 1.55961ZM25.9477 9.81447L16.8587 12.2288C16.4115 12.3476 15.9408 12.3454 15.4948 12.2232L6.42673 9.81447V15.0433C18.0771 17.1736 14.2971 17.1736 25.9475 15.0433L25.9477 9.81447ZM54.1325 50.7944L48.5288 45.3568C48.1627 45.0014 47.5723 45.0104 47.217 45.3764L47.1018 45.4952L43.9029 42.3912C45.0644 40.7347 45.7465 38.7173 45.7465 36.5405C45.7465 30.9048 41.1779 26.3362 35.5424 26.3362C29.9067 26.3362 25.3381 30.9048 25.3381 36.5405C25.3381 42.176 29.9067 46.7446 35.5424 46.7446C38.0729 46.7446 40.388 45.823 42.1713 44.2978L45.3091 47.3427L45.1939 47.4615C44.8386 47.8275 44.8475 48.4181 45.2136 48.7732L50.8173 54.2108C51.1835 54.566 51.7738 54.5573 52.1292 54.1911L54.1524 52.1061C54.5077 51.74 54.4986 51.1498 54.1325 50.7944ZM35.5424 43.8677C31.4956 43.8677 28.2151 40.5871 28.2151 36.5405C28.2151 32.4937 31.4956 29.2132 35.5424 29.2132C39.589 29.2132 42.8695 32.4937 42.8695 36.5405C42.8695 40.5871 39.589 43.8677 35.5424 43.8677ZM32.8972 6.11574C32.9817 6.15424 33.0593 6.20893 33.13 6.27958L37.5923 10.7419C37.6629 10.8125 37.7176 10.8902 37.7561 10.9746H33.2946C33.0757 10.9746 32.8972 10.7961 32.8972 10.5773V6.11574ZM33.2946 12.7246C32.9043 12.7246 32.5383 12.6202 32.2226 12.4377V12.7871L33.2114 13.2896V19.1641C33.2114 20.6419 31.5574 21.53 30.3256 20.7145L29.5977 20.2326L28.8698 20.7145C27.638 21.53 25.9841 20.6419 25.9841 19.1641V16.8157C23.9651 17.1883 21.9526 17.5965 19.9336 17.9632C16.9895 18.498 15.3849 18.498 12.4408 17.9632C10.7619 17.6583 9.08761 17.3247 7.41023 17.0066V44.6723C7.41023 45.11 7.76723 45.467 8.20495 45.467H27.5929C26.0558 44.0972 24.8745 42.3366 24.2055 40.3411H13.6169C13.1337 40.3411 12.7419 39.9494 12.7419 39.4661C12.7419 38.9829 13.1337 38.5911 13.6169 38.5911H23.7641C23.6488 37.9247 23.5881 37.2396 23.5881 36.5404C23.5881 36.0308 23.6202 35.5288 23.6821 35.0361H13.6169C13.1337 35.0361 12.7419 34.6443 12.7419 34.1611C12.7419 33.6779 13.1337 33.2861 13.6169 33.2861H24.0368C24.4001 32 24.9733 30.8019 25.7171 29.7311H13.6169C13.1337 29.7311 12.7419 29.3393 12.7419 28.8561C12.7419 28.3729 13.1337 27.9811 13.6169 27.9811H27.1988C29.353 25.8809 32.2964 24.5862 35.5423 24.5862C36.323 24.5862 37.086 24.662 37.8249 24.8049V12.7246H33.2946ZM31.6183 24.4261H13.6169C13.1337 24.4261 12.7419 24.0343 12.7419 23.5511C12.7419 23.0679 13.1337 22.6761 13.6169 22.6761H31.6183C32.1015 22.6761 32.4933 23.0679 32.4933 23.5511C32.4933 24.0343 32.1015 24.4261 31.6183 24.4261Z" fill="#E4E4E4"/>
</svg>
